<?xml version="1.0" encoding="UTF-8" standalone="no"?>
<svg width="65px" height="81px" viewBox="0 0 65 81" version="1.1" xmlns="http://www.w3.org/2000/svg" xmlns:xlink="http://www.w3.org/1999/xlink" xmlns:sketch="http://www.bohemiancoding.com/sketch/ns">
    <!-- Generator: Sketch 3.0.1 (7597) - http://www.bohemiancoding.com/sketch -->
    <title>New Directions_black</title>
    <description>Created with Sketch.</description>
    <defs></defs>
    <g id="Page-1" stroke="none" stroke-width="1" fill="none" fill-rule="evenodd" sketch:type="MSPage">
        <g id="New-Directions_black" sketch:type="MSLayerGroup" fill="#777777">
            <path d="M34.9890667,68.8951895 C34.8634,68.9796 34.7386,69.0648632 34.6120667,69.1484211 C34.5193333,69.2584105 34.4274667,69.3675474 34.3321333,69.4766842 C34.1128667,69.6906947 33.8736667,69.8765684 33.6500667,70.0837579 C33.5850667,70.1553789 33.5218,70.2252947 33.4568,70.2952105 C33.1881333,70.4921684 32.8631333,70.6567263 32.6265333,70.8715895 C32.4246,71.1162947 32.2252667,71.361 32.0233333,71.6057053 C31.6463333,71.9893895 31.3066,72.4302 30.8741333,72.7755158 C30.6687333,72.9383684 30.4572667,73.0168105 30.2362667,73.1412947 C29.9026,73.3459263 29.5715333,73.5514105 29.2378667,73.7534842 C28.9458,73.9095158 28.6078,74.0220632 28.3105333,74.1772421 C27.9708,74.3511789 27.6076667,74.4168316 27.2523333,74.5524 C27.0512667,74.6282842 26.897,74.8116 26.7028667,74.8866316 C26.3293333,75.0290211 25.4176,74.9829789 25.3560667,75.4979684 C25.3361333,75.6514421 25.3968,75.8040632 25.4713333,75.9208737 C25.6646,76.2235579 25.9558,76.3753263 26.2062667,76.6132105 C26.9178,77.2893474 27.6830667,77.9484316 28.5098667,78.4770632 C28.6823333,78.5734105 28.8548,78.6697579 29.0272667,78.7635474 C29.1538,78.8684211 29.2803333,78.9732947 29.406,79.0773158 C29.7058667,79.2111789 30.0083333,79.3484526 30.3090667,79.4814632 C30.5396,79.6127684 31.7893333,79.8395684 32.0718667,79.8122842 C32.1455333,79.8046105 32.1810667,79.8174 32.1810667,79.7406632 C32.4116,79.8225158 32.9524,79.9342105 33.2167333,79.9035158 C33.3571333,79.8540632 33.4984,79.8046105 33.6396667,79.7526 C33.709,79.7329895 33.8450667,79.7312842 33.8450667,79.6374947 C33.9048667,79.6545474 34.0530667,79.7423684 34.0530667,79.6374947 C34.2645333,79.5888947 34.8850667,79.3996105 34.8850667,79.1267684 L34.9890667,79.1267684 C35.0315333,79.1600211 35.0922,79.2197053 35.0922,79.1267684 C35.4042,79.0432105 35.5463333,78.8198211 35.7933333,78.6501474 C36.2726,78.3176211 36.7605333,77.9723053 37.2432667,77.6474526 C37.6488667,77.3729053 38.0007333,77.0148 38.3803333,76.7232 C38.6065333,76.5501158 38.7452,76.2840947 38.9670667,76.0871368 C39.2357333,75.8441368 39.5607333,75.6446211 39.8216,75.3905368 C40.0850667,75.1296316 40.4022667,74.7416842 40.4274,74.3673789 C40.4802667,73.5966 39.6526,72.8735684 39.1646667,72.4088842 C39.0702,72.2988947 38.9774667,72.1889053 38.8804,72.0763579 C38.7452,71.9876842 38.6117333,71.8973053 38.4748,71.8060737 C38.09,71.4411474 37.7598,71.0284737 37.3542,70.6652526 C37.0612667,70.4393053 36.7683333,70.2159158 36.4736667,69.9908211 C36.1816,69.7273579 36.0152,69.3624316 35.6832667,69.1484211 C35.4830667,69.0179684 35.2230667,68.9463474 34.9890667,68.8951895 L34.9890667,68.8951895 Z M14.8130667,64.5987789 C14.5920667,64.7727158 14.3433333,64.9193684 14.1466,65.1581053 C14.0807333,65.2868526 14.014,65.4164526 13.9472667,65.5443474 C13.793,65.8103684 13.5520667,65.9919789 13.403,66.2588526 C13.1378,66.7269474 12.8500667,67.2197684 12.5805333,67.6861579 C12.4401333,67.8490105 12.3023333,68.0127158 12.1628,68.1738632 C11.9652,68.5132105 11.7684667,68.8517053 11.57,69.1893474 C11.4348,69.3726632 11.3013333,69.5585368 11.167,69.7427053 C11.1002667,69.8910632 11.0335333,70.0402737 10.9650667,70.1869263 C10.894,70.2781579 10.8238,70.3685368 10.7527333,70.4606211 C10.5620667,70.7641579 10.4728,71.1478421 10.361,71.4897474 C10.2093333,71.8734316 10.0585333,72.2571158 9.90773333,72.6390947 C9.74653333,73.1191263 9.7188,73.6349684 9.64946667,74.1610421 C9.5498,74.8934526 9.45706667,75.6028421 9.45706667,76.4154 C9.45706667,76.9764316 9.42673333,77.8623158 9.7136,78.2681684 C9.84013333,78.4472211 10.0134667,78.4966737 10.2058667,78.5657368 C10.4242667,78.5879053 10.6418,78.6100737 10.8576,78.6313895 C11.1990667,78.6697579 11.5448667,78.7754842 11.895,78.8402842 C12.2884667,78.9127579 12.6932,79.0432105 13.065,79.1838947 C13.507,79.3092316 13.949,79.4345684 14.3884,79.5599053 C14.6345333,79.6681895 14.8798,79.7756211 15.1250667,79.8822 C15.2134667,79.9222737 15.8010667,80.0262947 15.8010667,79.9461474 C16.1780667,79.9563789 16.5325333,80.0714842 16.9433333,80.0331158 C17.238,80.0041263 19.0250667,79.5445579 19.0250667,79.3314 C19.097,79.3441895 19.2330667,79.4277474 19.2330667,79.3314 C20.2652667,79.2657474 20.5972,78.1308947 20.8693333,77.3456211 C20.9577333,77.0847158 21.0452667,76.8255158 21.1310667,76.5637579 C21.1397333,76.1741053 21.1475333,75.7844526 21.1553333,75.3922421 C21.1458,74.8781053 21.0088667,74.3946632 20.8806,73.9487368 C20.7454,73.4840526 20.735,73.0082842 20.5998,72.5401895 C20.5183333,72.3270316 20.4368667,72.1164316 20.3562667,71.9041263 C20.267,71.5170316 20.1786,71.1299368 20.0893333,70.7436947 C20.0113333,70.4776737 19.8397333,70.2372316 19.7790667,69.9635368 C19.6022667,69.1714421 19.5060667,68.3631474 19.5502667,67.4627684 C19.5693333,67.0441263 19.6733333,66.6442421 19.6378,66.1838211 C19.6100667,65.8521474 19.3925333,65.6705368 19.0770667,65.6210842 L19.0770667,65.5699263 C18.6012667,65.0302105 18.2416,65.0481158 17.5786,64.8682105 C17.4702667,64.8230211 17.3610667,64.7803895 17.251,64.7352 C17.0100667,64.7565158 16.77,64.7769789 16.5273333,64.7982947 C15.9310667,64.8059684 15.3590667,64.7224105 14.8130667,64.5987789 L14.8130667,64.5987789 Z M33.2210667,59.6876211 C33.1257333,59.7976105 32.9853333,59.8538842 32.9480667,60.0039474 C32.8518667,60.3697263 32.9948667,60.7167474 33.0018,61.0680316 C33.0052667,61.2846 32.9368,61.4346632 32.9255333,61.6307684 C32.8986667,62.0187158 33.0512,62.7050842 33.5330667,62.7050842 C33.6197333,62.5635474 33.7618667,62.4953368 33.8788667,62.3819368 C34.1631333,62.1005684 34.4690667,61.5855789 34.4690667,61.1703474 C34.8486667,61.0526842 35.4458,60.1420737 34.9483333,59.8513263 C34.5132667,59.5972421 33.7809333,59.6876211 33.2210667,59.6876211 L33.2210667,59.6876211 Z M40.9170667,53.1897158 C40.6700667,53.4045789 40.3026,53.3278421 40.0096667,53.4446526 C39.8744667,53.5179789 39.7392667,53.5913053 39.6023333,53.6637789 C39.0364,53.8948421 38.4600667,54.0457579 37.9374667,54.3672 C37.6454,54.5454 37.3984,54.8608737 37.1505333,55.1064316 C36.9910667,55.2897474 36.8333333,55.4713579 36.6738667,55.6529684 C36.4754,56.0323895 36.3246,56.3239895 36.3488667,56.8202211 C36.3774667,56.9736947 36.4043333,57.1297263 36.4320667,57.2832 C36.452,57.5125579 36.4710667,57.7427684 36.4901333,57.9712737 C36.5698667,58.2066 36.8446,58.9705579 36.8108,59.2127053 C36.7293333,59.7720316 36.218,60.2784947 36.1469333,60.8130947 C36.0420667,61.6086 36.3194,62.4075158 36.4892667,63.1314 C36.4918667,63.2192211 36.4970667,63.3078947 36.5005333,63.3965684 C36.5525333,63.6404211 36.6348667,63.8689263 36.6444,64.1375053 C36.6582667,64.5732 36.5360667,65.0148632 36.4676,65.4198632 C36.4485333,65.6014737 36.4286,65.7839368 36.4095333,65.9664 C36.2630667,66.5257263 35.8982,67.1080737 36.0299333,67.7168526 C36.0438,67.7637474 36.0568,67.8089368 36.0672,67.8558316 C36.1036,67.9555895 36.2232,68.0152737 36.2994667,68.1073579 C36.8385333,68.7562105 37.5717333,69.2345368 38.1853333,69.8382 C38.545,70.1835158 38.9038,70.5288316 39.2634667,70.875 C39.3466667,70.9432105 39.4316,71.0114211 39.5165333,71.0787789 C39.7132667,71.3141053 39.91,71.5494316 40.1041333,71.7822 C40.1769333,71.8401789 40.2939333,71.8623474 40.3970667,71.8623474 C40.4048667,71.9118 40.4135333,71.9612526 40.4196,72.0107053 C40.4698667,72.2622316 40.7255333,72.4054737 40.8711333,72.6084 C41.2013333,73.0696737 41.5194,73.5377684 41.6190667,74.1167053 C41.6546,74.3290105 41.6754,74.7033158 41.5826667,74.8951579 C41.4258,75.2131895 41.0548667,75.5209895 41.1692667,75.9421895 C41.2117333,76.1007789 41.3998,76.1962737 41.5462667,76.2389053 C41.6078,76.2576632 41.8530667,76.3650947 41.8530667,76.2619263 C42.0272667,76.2951789 42.2006,76.3301368 42.3730667,76.3642421 C42.4502,76.3037053 42.6850667,76.3497474 42.6850667,76.2619263 C42.7587333,76.2696 42.9970667,76.3599789 42.9970667,76.2619263 C43.4988667,76.2585158 44.0015333,76.2576632 44.5033333,76.2542526 C44.6784,76.2440211 44.837,76.1689895 45.0146667,76.2022421 C45.071,76.2124737 45.0770667,76.2278211 45.0770667,76.1587579 C46.124,76.0922526 46.0165333,75.6778737 45.9203333,74.8286526 C45.8718,74.4731053 45.8241333,74.1184105 45.7756,73.7611579 C45.6880667,73.4175474 45.6022667,73.0739368 45.5147333,72.7286211 C45.4315333,72.1923158 45.4142,71.7063158 45.3804,71.1461368 C45.3500667,70.8553895 45.3206,70.5654947 45.2894,70.2747474 C45.2833333,69.9328421 45.3786667,69.6924 45.3856,69.3564632 C45.4064,67.9777579 45.4194,66.6988105 45.6161333,65.4198632 C45.6733333,65.1794211 45.7314,64.9398316 45.7886,64.6985368 C45.8059333,64.4120526 45.8206667,64.1264211 45.838,63.8390842 C45.9090667,63.5491895 46.0208667,63.261 46.0884667,62.9549053 C46.1422,62.6905895 46.1049333,62.4637895 46.1578,62.2028842 C46.1968,62.0971579 46.2358,61.9922842 46.2730667,61.8865579 C46.2956,61.7194421 46.2202,61.4713263 46.2236667,61.2726632 C46.2418667,61.1029895 46.2600667,60.9341684 46.2765333,60.7644947 C46.2375333,60.0875053 46.1101333,59.4258632 45.9879333,58.7693368 C45.9463333,58.6465579 45.9056,58.5237789 45.8631333,58.3984421 C45.8024667,57.9763895 45.7409333,57.5543368 45.6802667,57.1322842 C45.5918667,56.6138842 45.3890667,56.0784316 45.3890667,55.5429789 C45.0086,55.4014421 44.8118667,54.6715895 44.6090667,54.3484421 C43.8472667,53.1351474 42.2647333,53.2314947 40.9170667,53.1897158 L40.9170667,53.1897158 Z M44.6610667,51.2465684 C44.5796,51.3275684 44.499,51.4094211 44.4158,51.4912737 C44.2771333,51.7291579 44.3083333,52.3404947 44.3880667,52.6107789 C44.4444,52.8068842 44.5735333,52.8844737 44.7035333,53.0345368 C44.7442667,53.1001895 44.785,53.1675474 44.824,53.2332 C44.9037333,53.3039684 44.9826,53.3781474 45.0623333,53.4506211 C45.1117333,53.541 45.1611333,53.6322316 45.2096667,53.7243158 C45.3535333,53.9076316 45.5416,54.0355263 45.6698667,54.2307789 C45.7409333,54.3885158 45.812,54.5471053 45.8839333,54.7031368 C46.1508667,55.2275053 46.3675333,55.7510211 46.5426,56.3256947 C46.6041333,56.5277684 46.6128,56.7775895 46.6648,56.9796632 C46.7774667,57.4341158 46.9083333,57.9090316 46.9785333,58.3600737 C46.9932667,58.5450947 47.0071333,58.7309684 47.021,58.9151368 C47.1458,59.6577789 47.4006,60.4404947 47.4136,61.2215053 C47.4032,61.4559789 47.3954,61.6921579 47.3867333,61.9283368 C47.3494667,62.0690211 47.3113333,62.2114105 47.2723333,62.3520947 C47.2350667,62.6266421 47.2333333,62.8858421 47.1796,63.1578316 C47.1241333,63.3812211 47.0712667,63.6071684 47.0158,63.8305579 C46.9248,64.6269158 46.8875333,65.4070737 46.8615333,66.1804105 C46.8190667,66.4549579 46.7774667,66.7303579 46.7332667,67.0057579 C46.7142,67.2385263 46.7956667,67.4644737 46.7809333,67.7168526 C46.7367333,67.9078421 46.6925333,68.0988316 46.6466,68.2889684 C46.5504,69.0384316 46.6249333,69.8526947 46.5894,70.6354105 C46.5772667,70.9014316 46.6128,71.1666 46.6370667,71.4061895 C46.7081333,72.1232526 46.5998,73.2998842 47.0660667,73.8455684 C47.1683333,73.9163368 47.2723333,73.9871053 47.3746,74.0553158 C47.4708,74.1584842 47.5678667,74.2608 47.6640667,74.3614105 C47.8018667,74.4236526 47.9396667,74.4850421 48.0774667,74.5472842 C48.399,74.7050211 48.7283333,74.9318211 49.1322,74.9318211 C49.3228667,74.7468 49.5126667,74.5600737 49.7033333,74.3742 C50.0612667,73.9811368 50.362,73.5514105 50.6956667,73.1481158 C50.999,72.7780737 51.3474,72.4634526 51.6741333,72.1181368 C51.7772667,71.9407895 51.8804,71.7642947 51.9826667,71.5878 C52.2426667,71.1896211 52.5321333,70.7385789 52.7202,70.3020316 C52.832,70.0411263 52.8788,69.7810737 53.0183333,69.5363684 C53.3095333,69.0179684 53.7056,68.5532842 54.0167333,68.0434105 C54.4856,67.2743368 54.7976,66.4106211 55.0394,65.529 C55.1096,65.3363053 55.1798,65.1427579 55.2491333,64.9500632 C55.2491333,64.8366632 55.2508667,64.7224105 55.2508667,64.6073053 C55.3072,64.3020632 55.4398,63.9038842 55.3938667,63.5790316 C55.3089333,63.3198316 55.2248667,63.0580737 55.1390667,62.7980211 C55.0766667,62.5899789 55.0151333,62.3836421 54.9536,62.1756 C54.6329333,61.6324737 54.3148667,61.0884947 53.9950667,60.5436632 C53.8182667,60.2026105 53.6908667,59.8479158 53.5054,59.5128316 C53.4161333,59.3525368 53.2636,59.2630105 53.157,59.1129474 C53.1058667,58.9867579 53.0556,58.8614211 53.0053333,58.7352316 C52.702,58.2756632 52.4203333,57.8101263 52.1144,57.3590842 C51.7521333,56.8244842 51.2503333,56.3657684 50.8499333,55.8516316 C50.5838667,55.5097263 50.3013333,55.1499158 50.0352667,54.7994842 C49.9304,54.7031368 49.8255333,54.6084947 49.7172,54.5104421 C49.4078,54.1591579 49.1322,53.7507474 48.7916,53.4258947 C48.3660667,53.0208947 47.7776,52.7480526 47.2966,52.4283158 C46.4897333,51.8911579 45.7106,51.3096632 44.6610667,51.2465684 L44.6610667,51.2465684 Z M40.8130667,44.1859263 C40.4846,44.4724105 39.4714667,44.4468316 38.9939333,44.5082211 C38.5016667,44.5713158 38.0206667,44.7964105 37.5665333,44.9584105 C37.1115333,45.1178526 36.4693333,45.1349053 36.0672,45.3625579 C35.867,45.4759579 35.5333333,45.7803474 35.4440667,45.9909474 C35.2135333,46.5221368 35.3348667,47.1564947 35.3903333,47.7158211 C35.3972667,48.1915895 35.4059333,48.6699158 35.4111333,49.1465368 C35.4986667,49.6410632 35.5879333,50.1364421 35.6763333,50.6301158 C35.6988667,51.0530211 35.6780667,51.4563158 35.7578,51.8706947 C35.7578,51.9474316 35.7595333,52.0258737 35.7595333,52.1017579 C35.8098,52.3635158 35.8618,52.6244211 35.9120667,52.8827684 C35.9467333,53.3065263 35.9216,53.7643895 36.1608,54.0892421 C36.2058667,54.1489263 36.4450667,54.2401579 36.4450667,54.1105579 C36.5031333,54.1412526 36.5750667,54.2128737 36.6530667,54.2128737 C36.7813333,53.8453895 37.349,53.6194421 37.6601333,53.4463579 C37.8308667,53.3355158 38.0042,53.2246737 38.1740667,53.1129789 C38.7296,52.8333158 39.3172,52.6431789 39.8978667,52.4214947 C40.2038,52.3532842 40.5088667,52.2867789 40.8130667,52.2177158 C40.9170667,52.1733789 41.3330667,52.1887263 41.3330667,52.0642421 C41.3963333,52.0821474 41.5410667,52.1708211 41.5410667,52.0642421 C41.9154667,52.0642421 42.2933333,52.0804421 42.6348,52.1136947 C42.6998,52.1205158 42.6850667,52.1239263 42.6850667,52.0642421 C42.8081333,52.0420737 42.9320667,52.0199053 43.0551333,51.9951789 C43.5898667,51.6967579 43.5170667,50.0972211 43.5170667,49.5063474 C43.7164,49.2633474 43.6046,48.7057263 43.6306,48.3808737 C43.7502,46.8512526 43.9946,45.8485579 42.8384667,44.7495158 C42.6720667,44.5934842 42.5152,44.3718 42.2673333,44.3479263 C42.1884667,44.3402526 42.1642,44.3735053 42.1642,44.2882421 C41.7733333,44.1552316 41.2828,44.1859263 40.8130667,44.1859263 L40.8130667,44.1859263 Z M10.8090667,40.0932947 C10.6669333,40.2084 10.4147333,40.2390947 10.2483333,40.3175368 C9.9398,40.4982947 9.63126667,40.6782 9.321,40.8589579 C9.18146667,40.9203474 9.04193333,40.9808842 8.90153333,41.0397158 C8.7698,41.1445895 8.6398,41.2477579 8.50806667,41.3500737 C8.37806667,41.4378947 8.19173333,41.4396 8.06346667,41.5342421 C7.31553333,42.0748105 6.71926667,42.8720211 6.201,43.5993158 C6.04673333,43.7826316 5.8942,43.9642421 5.73906667,44.1458526 C4.02046667,47.1888947 3.34706667,50.9097789 3.276,54.7236 C3.2578,54.8608737 3.2396,54.9981474 3.22053333,55.1337158 C3.21533333,55.5591789 3.211,55.9854947 3.20406667,56.4109579 C3.17806667,56.5814842 3.15293333,56.7537158 3.12606667,56.9233895 C3.15293333,57.0760105 3.17806667,57.2311895 3.20406667,57.3846632 C3.21533333,57.5765053 3.1538,57.7657895 3.1668,57.9371684 C3.19973333,58.1801684 3.2318,58.4231684 3.26473333,58.6670211 C3.27773333,58.8767684 3.211,59.0958947 3.22226667,59.3269579 C3.25173333,59.5162421 3.28206667,59.7038211 3.31153333,59.8914 C3.35746667,60.6186947 3.38433333,61.2163895 3.432,61.9360105 C3.46406667,62.4475895 3.59146667,63.0120316 3.62353333,63.5244632 C3.6296,63.7623474 3.63826667,64.0010842 3.6452,64.2389684 C3.70066667,64.4785579 3.757,64.7198526 3.8116,64.9602947 C3.82373333,65.2646842 3.83673333,65.5699263 3.848,65.8760211 C3.87746667,66.3483789 4.01006667,66.8718947 4.11926667,67.3169684 C4.13833333,67.5343895 4.15826667,67.7526632 4.1756,67.9683789 C4.22673333,68.2591263 4.34546667,68.5242947 4.35586667,68.8440316 C4.38273333,69.6676737 4.04906667,70.1008105 3.66686667,70.7036211 C3.60446667,70.8374842 3.54033333,70.9730526 3.47793333,71.1077684 C3.30633333,71.3482105 3.1382,71.5878 2.96746667,71.8256842 C2.8548,71.9757474 2.6702,72.0857368 2.54626667,72.2204526 C2.47953333,72.3270316 2.4128,72.4361684 2.3452,72.5436 C2.13893333,72.8411684 1.92053333,73.1711368 1.716,73.4627368 C1.41526667,73.8839368 0.9932,74.2940526 0.942066667,74.8303579 C0.867533333,75.5934632 1.17606667,76.0317158 1.41353333,76.6328211 C1.55826667,77.0020105 1.66746667,77.5775368 2.10253333,77.7327158 C2.35126667,77.8205368 2.50986667,77.5903263 2.6936,77.4897158 C2.9042,77.3729053 3.00646667,77.1904421 3.159,77.0250316 C3.80553333,76.3130842 3.0758,75.6096632 2.84526667,74.9667789 C2.73606667,74.6649474 2.67626667,74.1022105 2.70573333,73.7551895 C2.72393333,73.5104842 2.834,73.2248526 2.96226667,73.0304526 C3.05066667,72.8948842 3.42506667,72.7627263 3.42506667,72.5785579 C3.54206667,72.6339789 3.72926667,72.7218 3.77953333,72.8548105 C3.86273333,73.0807579 3.63306667,73.4388632 3.6452,73.7534842 C3.66253333,74.3486211 4.05426667,75.4092947 4.52053333,75.7844526 C4.67393333,75.8458421 4.8256,75.9106421 4.97726667,75.9728842 C5.04746667,75.9950526 5.109,76.0572947 5.19306667,76.0572947 L5.19306667,75.9549789 C5.45653333,75.8628947 5.64026667,75.9549789 5.92106667,75.9549789 C5.96873333,75.7776316 6.11346667,75.5465684 6.33706667,75.5465684 C6.20706667,75.2080737 6.23306667,74.7800526 6.23306667,74.4202421 C5.7902,74.1235263 5.486,72.7021895 5.65153333,72.1292211 C5.7018,71.9493158 5.811,71.8188632 5.95053333,71.6875579 C6.05973333,71.5826842 6.162,71.4897474 6.33446667,71.4991263 C6.7288,71.5187368 6.48093333,72.0004737 6.474,72.2204526 C6.4688,72.3474947 6.526,72.4122947 6.5546,72.5103474 C6.552,72.6007263 6.54853333,72.6919579 6.54506667,72.7831895 C7.1136,73.1557895 6.99833333,75.2387684 8.00106667,75.2387684 C8.01146667,75.2080737 8.021,75.1782316 8.0288,75.1466842 C8.09553333,74.9539895 8.30873333,74.8602 8.372,74.6615368 C8.3928,74.4287684 8.4136,74.1951474 8.43353333,73.9615263 C8.48033333,73.5906316 8.78106667,72.8931789 8.6762,72.5436 C8.6528,72.4736842 8.60946667,72.3739263 8.52106667,72.3739263 C8.6268,71.8461474 8.164,71.2910842 7.943,70.8664737 C7.83726667,70.6635474 7.83033333,70.4572105 7.7428,70.2474632 C7.5972,69.9021474 7.27566667,69.5201684 7.23146667,69.1433053 C7.24533333,69.0597474 7.26006667,68.9778947 7.27393333,68.8951895 C7.00526667,68.7144316 6.8432,68.3188105 6.71926667,68.04 C6.61006667,67.8711789 6.50346667,67.7023579 6.39426667,67.5326842 C6.162,67.1012526 6.16633333,66.5922316 6.08226667,66.0891789 C6.06233333,66.0013579 6.045,65.9143895 6.02506667,65.8257158 C6.227,65.4931895 6.01553333,64.9048737 6.06233333,64.5535895 C6.1958,63.5193474 6.23133333,62.5209158 6.3518,61.479 C6.44626667,61.0859368 6.54073333,60.6928737 6.6326,60.2989579 C6.64646667,60.0619263 6.65946667,59.8257474 6.67073333,59.5878632 C6.72273333,59.4139263 6.77386667,59.2399895 6.82673333,59.0643474 C6.8458,58.9168421 6.86746667,58.7693368 6.88653333,58.6201263 C6.96626667,58.3745684 7.04773333,58.1281579 7.12746667,57.8808947 C7.15606667,57.7044 7.18553333,57.5296105 7.21326667,57.3531158 C7.40653333,56.7630947 7.70293333,56.1884211 7.95426667,55.6222737 C8.05653333,55.3912105 8.06173333,55.1311579 8.14753333,54.8941263 C8.25586667,54.6929053 8.36506667,54.4933895 8.47426667,54.2913158 C8.73253333,53.7507474 8.94573333,53.1931263 9.17973333,52.6414737 C9.2898,52.4402526 9.40246667,52.2390316 9.51253333,52.0352526 C9.6798,51.7504737 9.78206667,51.4119789 9.90253333,51.1041789 C10.0256,50.7793263 10.2630667,50.4954 10.4424667,50.1884526 C10.5100667,50.0400947 10.5785333,49.8934421 10.647,49.7450842 C10.8593333,49.4330211 11.1210667,49.2147474 11.1210667,48.7901368 C11.6618667,48.6068211 11.8915333,47.9102211 12.1792667,47.4728211 C12.2572667,47.3892632 12.337,47.3057053 12.415,47.2238526 C12.6403333,46.8111789 12.6992667,46.3013053 12.8110667,45.8298 C12.883,45.5723053 12.9540667,45.3139579 13.026,45.0564632 C13.0502667,44.6966526 12.9428,44.226 12.857,43.8875053 C12.7772667,43.74 12.6975333,43.5933474 12.6169333,43.4458421 C12.5528,43.2923684 12.4912667,43.1397474 12.428,42.9854211 C12.3526,42.8515579 12.2780667,42.7185474 12.2018,42.5846842 C12.1047333,42.3254842 12.0995333,42.0603158 12.0198,41.7942947 C11.9366,41.5240105 11.7918667,41.3023263 11.7242667,41.0192526 C11.6722667,40.8078 11.5327333,40.3780737 11.2805333,40.3576105 C11.219,40.3507895 11.2250667,40.3584632 11.2250667,40.2979263 C11.0872667,40.2297158 10.9494667,40.1623579 10.8090667,40.0932947 L10.8090667,40.0932947 Z M44.7642,39.1724526 C44.6281333,39.3233684 44.5484,39.2747684 44.3490667,39.2747684 C44.1991333,39.4887789 43.9287333,39.5152105 43.7831333,39.7241053 C43.4564,40.1896421 43.2796,40.7344737 43.0646667,41.2545789 C42.8506,41.7670105 42.3730667,42.2589789 42.3730667,42.8566737 C42.5672,42.9163579 42.6651333,43.1627684 42.8922,43.1627684 C42.9303333,43.0348737 42.9936,42.9948 43.0551333,42.8848105 C43.1652,42.6494842 43.2735333,42.4150105 43.3818667,42.1805368 C43.5578,41.7209684 44.2329333,39.6840316 44.7642,39.6840316 C44.8049333,39.4768421 44.9860667,39.3063158 44.7642,39.1724526 L44.7642,39.1724526 Z M37.3810667,37.8423474 L37.4850667,37.8423474 C37.4556,37.9020316 37.4556,37.9446632 37.3810667,37.9446632 L37.3810667,37.8423474 L37.3810667,37.8423474 Z M24.4850667,35.7960316 C24.271,36.3843474 24.5223333,36.8183368 24.6774667,37.3341789 C24.804,37.7843684 24.9305333,38.2362632 25.0553333,38.6847474 C25.1350667,38.7998526 25.2148,38.9158105 25.2936667,39.0283579 C25.4973333,39.4384737 25.7001333,39.8485895 25.8908,40.2689368 C26.0450667,40.6168105 26.1291333,41.0098737 26.2920667,41.3517789 C26.3700667,41.4353368 26.4498,41.5171895 26.5278,41.5990421 C26.7748,41.9588526 26.9732667,42.3570316 27.2315333,42.7185474 C27.4508,42.9419368 27.6700667,43.1661789 27.8893333,43.3895684 C28.0808667,43.6121053 28.2732667,43.8337895 28.4630667,44.0554737 C28.7343333,44.3214947 29.0576,44.5423263 29.3436,44.8236947 C29.4545333,44.955 29.5646,45.0863053 29.6738,45.2176105 C29.9485333,45.4878947 30.7545333,46.1307789 31.1410667,46.1307789 C31.1913333,46.0693895 31.2416,46.0105579 31.2901333,45.9491684 C31.499,45.4529368 31.0128,44.0802 30.8550667,43.6138105 C30.6193333,42.9197684 30.4728667,42.2035579 30.16,41.5504421 C29.7873333,40.7762526 29.328,40.0105895 28.8088667,39.3088737 C28.6303333,39.1170316 28.4518,38.9243368 28.2732667,38.7316421 C28.0193333,38.3812105 27.6718,37.9881474 27.3416,37.7008105 C27.2436667,37.6402737 27.1483333,37.5788842 27.0512667,37.5183474 C26.5763333,37.0673053 26.0632667,36.4917789 25.493,36.1490211 C25.1827333,35.9622947 24.8118,35.9367158 24.4850667,35.7960316 L24.4850667,35.7960316 Z M36.6530667,34.1589789 L36.6530667,34.2621474 C36.7146,34.2323053 36.7570667,34.2357158 36.7570667,34.1589789 L36.6530667,34.1589789 L36.6530667,34.1589789 Z M24.3810667,26.4852947 C24.0058,26.8067368 23.4251333,26.5833474 23.0386,27.0548526 C22.8098,27.3302526 22.8765333,27.6099158 22.7872667,27.9594947 C22.633,28.5529263 22.4830667,29.1429474 22.3348667,29.7167684 C22.3106,29.8796211 22.2863333,30.0441789 22.2603333,30.2070316 C22.1537333,30.4218947 22.0471333,30.6359053 21.9405333,30.8499158 C21.7992667,31.0119158 21.6588667,31.1730632 21.5176,31.3342105 C21.3780667,31.4561368 21.2012667,31.5107053 21.086,31.6744105 C20.2635333,32.8246105 19.3388,33.9287684 18.5050667,35.0789684 C18.2528667,35.4745895 18.0032667,35.8727684 17.7510667,36.2692421 C17.6505333,36.4934842 17.55,36.7168737 17.4477333,36.9411158 C17.0802667,37.5933789 16.744,38.2132421 16.4398,38.8996105 C16.3618,39.0130105 16.2838,39.1264105 16.2058,39.2398105 C16.0593333,39.5919474 15.9414667,39.9688105 15.7880667,40.3158316 C15.7577333,40.3840421 15.7074667,40.7071895 15.6450667,40.7071895 C15.5618667,40.9058526 15.4448667,41.0866105 15.3738,41.2844211 C15.2472667,41.7533684 15.1198667,42.2231684 14.9933333,42.6912632 C14.6848,43.6342737 14.3546,44.5986 14.0296,45.5356421 C14.0027333,45.7121368 13.975,45.8903368 13.9472667,46.0676842 C13.8415333,46.4573368 13.7063333,46.8717158 13.5096,47.2204421 C13.4402667,47.3091158 13.3700667,47.4012 13.299,47.4907263 C13.1594667,47.7362842 13.0190667,47.9826947 12.8795333,48.2291053 C12.5545333,48.6486 12.2260667,49.0825895 11.9548,49.5387474 C11.8490667,49.7544632 11.7433333,49.9701789 11.6384667,50.1850421 C11.4495333,50.4152526 11.2614667,50.6429053 11.0708,50.8697053 C10.7882667,51.3318316 10.6721333,51.8519368 10.4502667,52.3456105 C10.2422667,52.7386737 10.0342667,53.1325895 9.82453333,53.5256526 C9.72573333,53.8360105 9.6278,54.1455158 9.529,54.4558737 C9.41026667,54.7679368 9.22393333,55.0493053 9.08786667,55.3596632 C8.79406667,56.0238632 8.63373333,56.7298421 8.372,57.4136526 C8.19173333,57.8851579 8.01146667,58.3566632 7.82946667,58.8264632 C7.77573333,59.1641053 7.72373333,59.5008947 7.67,59.8376842 C7.61106667,60.0252632 7.553,60.2145474 7.49406667,60.4038316 C7.48106667,60.6059053 7.4698,60.8088316 7.4568,61.0126105 C7.40046667,61.3212632 7.34326667,61.6290632 7.28433333,61.9377158 C7.1448,63.6625895 7.00006667,65.8359474 7.39873333,67.4559474 C7.47933333,67.6844526 7.56253333,67.9138105 7.644,68.1423158 C7.74886667,68.2795895 7.8546,68.4168632 7.9612,68.5532842 C8.0262,68.7613263 8.09033333,68.9685158 8.15533333,69.1748526 C8.2628,69.3624316 8.37026667,69.5491579 8.47773333,69.7358842 C8.59906667,69.9669474 8.92926667,70.6354105 9.24906667,70.6354105 C9.30626667,70.5748737 9.3652,70.5160421 9.42153333,70.4572105 C9.555,70.2329684 9.68846667,70.0087263 9.81933333,69.7861895 C9.97706667,69.5124947 10.0568,69.1893474 10.231,68.9241789 C10.3722667,68.7331895 10.5152667,68.5439053 10.6565333,68.3520632 C10.7570667,68.1670421 10.8576,67.9854316 10.9581333,67.8021158 C11.1748,67.4764105 11.5370667,67.1814 11.5370667,66.7465579 C11.8508,66.6502105 11.8638,66.2358316 12.1610667,66.2358316 C12.129,65.7822316 13.0546,64.6686947 13.4203333,64.3105895 C13.5165333,64.2142421 14.1890667,63.6463895 14.1890667,63.6259263 L14.2410667,63.6259263 C14.2774667,63.666 14.3450667,63.7708737 14.3450667,63.6779368 L14.3970667,63.6779368 C14.6752667,63.6438316 14.9526,63.6097263 15.2290667,63.5747684 L15.2290667,63.5244632 C15.3313333,63.5722105 15.8010667,63.7316526 15.8010667,63.6779368 L15.8530667,63.6779368 C16.0723333,63.5960842 16.3618,63.6847579 16.5828,63.7111895 C17.1808,63.7759895 17.693,63.8100947 18.2338,63.9678316 C18.3135333,64.0079053 18.395,64.0496842 18.4738667,64.0889053 C18.6706,64.1485895 18.8690667,64.2082737 19.0658,64.2671053 C19.2278667,64.3489579 19.3908,64.4316632 19.5528667,64.5135158 C19.6222,64.5314211 19.7530667,64.5066947 19.7530667,64.5987789 C20.1136,65.0123053 20.618,65.3030526 20.7965333,65.8419158 C20.9083333,66.1821158 20.8112667,66.6118421 20.761,66.9528947 C20.7575333,67.2419368 20.7540667,67.5309789 20.7488667,67.8191684 C20.7757333,67.9564421 20.8008667,68.0937158 20.8268667,68.2318421 C20.8416,68.5191789 20.8563333,68.8065158 20.8710667,69.093 C20.995,69.7461158 21.229,70.4333368 21.4040667,71.0634316 C21.4075333,71.1734211 21.411,71.2834105 21.4118667,71.3934 C21.4508667,71.6713579 21.5080667,71.9510211 21.6025333,72.2085158 C21.6866,72.4412842 21.7342667,72.6757579 21.8218,72.9204632 C21.8668667,73.0134 21.9128,73.1063368 21.957,73.1992737 C22.0948,73.7534842 22.0948,74.2812632 22.607,74.6316947 C22.6763333,74.6777368 23.0290667,74.7732316 23.0290667,74.6248737 C23.0897333,74.6402211 23.2370667,74.7288947 23.2370667,74.6248737 L23.7570667,74.6248737 C23.829,74.4654316 24.0690667,74.4901579 24.0690667,74.4202421 C24.5405333,74.3895474 24.8976,74.2190211 25.3205333,74.1371684 C25.6178,74.0783368 25.9072667,74.0621368 26.1898,73.9777263 C26.7436,73.7406947 27.2982667,73.5062211 27.8503333,73.2700421 C28.1302667,73.1302105 28.4041333,72.9989053 28.6823333,72.8599263 C28.9484,72.7235053 29.1373333,72.4762421 29.4770667,72.4762421 C29.5568,72.252 29.9970667,72.1087579 29.9970667,71.9646632 C30.0577333,71.9962105 30.1288,72.0669789 30.2050667,72.0669789 C30.2943333,71.6824421 30.7146667,71.4616105 30.9781333,71.1947368 C31.2043333,70.9611158 31.2398667,70.5919263 31.4903333,70.3685368 C31.7061333,70.1758421 31.9158667,69.9157895 32.1533333,69.7461158 C32.3596,69.5960526 32.565,69.4962947 32.7704,69.3590211 C33.0408,69.1185789 33.3120667,68.8789895 33.5816,68.6385474 C33.6873333,68.5021263 33.7922,68.3665579 33.8970667,68.2284316 C34.1102667,68.0110105 34.3642,67.8029684 34.3642,67.4627684 C34.4916,67.4278105 34.6519333,67.2581368 34.7810667,67.2581368 C34.7134667,66.9162316 35.1364,66.3918632 35.2568667,66.0653053 C35.3938,65.6875895 35.6572667,63.2746421 35.4276,62.9813368 C34.9942667,62.4271263 34.3529333,63.5543053 33.9230667,63.7231263 C33.6466,63.8305579 33.1708,63.7887789 32.8570667,63.7649053 C32.7799333,63.7589368 32.4930667,63.7495579 32.4930667,63.6779368 C32.2686,63.5560105 32.045,63.4357895 31.8205333,63.3147158 C31.4582667,62.9847474 31.2372667,62.5550211 31.0327333,62.1440526 C30.9070667,61.9505053 30.7822667,61.7578105 30.6566,61.5634105 C30.4928,61.1942211 30.3333333,60.8352632 30.1712667,60.4686316 C29.9598,59.9954211 29.6902667,59.5162421 29.4268,59.0728737 C29.1503333,58.6090421 28.9501333,58.0855263 28.7022667,57.6089053 C28.6416,57.4341158 28.5818,57.2610316 28.5202667,57.0870947 C28.3703333,56.7707684 28.2204,56.4561474 28.0713333,56.1398211 C28.0080667,56.0494421 27.9448,55.9607684 27.8815333,55.8686842 C27.7402667,55.4952316 27.599,55.1226316 27.456,54.7483263 C27.3433333,54.4942421 27.1743333,54.1361368 26.9403333,53.9553789 C26.7600667,53.8164 26.5876,53.7524526 26.4108,53.5972737 C26.1750667,53.3696211 25.9410667,53.1411158 25.7053333,52.9134632 C25.5952667,52.8333158 25.4843333,52.7531684 25.3742667,52.6713158 C24.9175333,52.3072421 24.5275333,51.8425579 24.167,51.4043053 C24.011,51.2380421 23.8541333,51.0726316 23.6972667,50.9063684 C23.5664,50.7349895 23.4060667,50.5704316 23.2838667,50.3939368 C23.1868,50.2259684 23.0897333,50.058 22.9918,49.8908842 C22.9233333,49.8260842 22.8557333,49.7621368 22.7855333,49.6973368 C22.6668,49.5677368 22.4458,49.2181579 22.3548,49.0638316 C22.1078,48.6503053 21.8807333,48.2069368 21.6346,47.7925579 C21.3954,47.3892632 21.0565333,47.0098421 20.8858,46.575 C20.8251333,46.3857158 20.7653333,46.1989895 20.7055333,46.0105579 C20.696,45.9235895 20.6856,45.8374737 20.6760667,45.7496526 C20.4472667,45.1783895 20.3138,44.6130947 20.1950667,43.9864105 C20.1153333,43.5660632 19.9350667,43.1525368 19.9220667,42.7006421 C19.9151333,42.4985684 19.9888,41.8872316 20.0815333,41.7414316 C20.1543333,41.6220632 20.4290667,41.4668842 20.4290667,41.4234 C20.67,41.5376526 20.8,41.7192632 20.8936,41.9571474 C20.9230667,42.1686 20.9525333,42.3800526 20.982,42.5898 C21.1865333,43.4424316 21.2706,44.3615684 21.4916,45.2031158 C21.5730667,45.3625579 21.6562667,45.5237053 21.7368667,45.684 C21.7732667,45.8298 21.8088,45.9773053 21.8426,46.1222526 C22.0575333,46.5204316 22.2716,46.9177579 22.4865333,47.3142316 C22.5463333,47.4557684 22.607,47.5956 22.6650667,47.7345789 C23.3722667,48.9785684 24.3403333,50.1253579 25.3482667,51.2158737 C25.4808667,51.3608211 25.6646,51.4546105 25.8076,51.5816526 C25.9393333,51.7240421 26.0710667,51.8672842 26.2010667,52.0105263 C26.442,52.2006632 26.6820667,52.3899474 26.9221333,52.5800842 C27.17,52.7770421 27.3234,53.0379474 27.5322667,53.2621895 C27.729,53.4744947 27.9803333,53.6228526 28.1718667,53.8505053 C28.3573333,54.0687789 28.3668667,54.3450316 28.4925333,54.5897368 C28.6632667,54.9282316 28.8842667,55.2590526 29.0186,55.6094842 C29.1520667,55.9556526 29.2136,56.2881789 29.445,56.5900105 C29.549,56.7264316 29.5576667,56.8492105 29.6131333,57.0137684 C29.6963333,57.1911158 29.7795333,57.3701684 29.8618667,57.5475158 C29.9225333,57.7240105 29.9823333,57.8988 30.043,58.0752947 C30.1955333,58.4052632 31.1428,60.1488947 31.4608667,60.1855579 C31.5683333,60.1974947 31.6610667,60.1557158 31.7052667,60.0670421 C31.7321333,59.8896947 31.7598667,59.7140526 31.7876,59.5358526 C31.8968,58.8878526 31.9531333,58.2287684 31.9765333,57.5372842 C32.0094667,57.2976947 32.0415333,57.0598105 32.0718667,56.8202211 C32.1342667,54.8711053 32.1013333,52.9373368 32.0718667,51.0410842 C32.0675333,50.7895579 31.9912667,50.6070947 31.9808667,50.3743263 C31.9730667,50.0690842 31.9652667,49.7638421 31.9548667,49.4577474 C31.9193333,49.1866105 31.8075333,48.8728421 31.8188,48.5863579 C31.8344,48.5181474 31.8526,48.4499368 31.8690667,48.3808737 C31.6446,48.2367789 31.6255333,48.0074211 31.5007333,47.8036421 C31.3932667,47.6288526 31.1445333,47.4506526 30.9816,47.3193474 C30.6990667,47.1803684 30.4182667,47.0413895 30.1348667,46.9024105 C29.9043333,46.7284737 29.6755333,46.5536842 29.445,46.3780421 C29.2396,46.2484421 29.0350667,46.1188421 28.8288,45.9892421 C28.7490667,45.8826632 28.6710667,45.7760842 28.5913333,45.6686526 C28.3937333,45.4512316 28.1805333,45.2653579 27.9690667,45.0581684 C27.7888,44.8944632 27.6076667,44.7316105 27.4274,44.5679053 C27.2072667,44.2882421 26.988,44.0102842 26.767,43.7306211 C26.5000667,43.416 26.2123333,43.1695895 25.9991333,42.8310947 C25.8795333,42.6418105 25.6576667,42.4832211 25.5493333,42.2802947 C25.3153333,41.8488632 25.1628,41.4234 24.9660667,40.9791789 C24.8932667,40.8768632 24.8204667,40.7762526 24.7468,40.6739368 C24.5024,40.2552947 24.3143333,39.7931684 24.115,39.3532105 C24.0465333,39.123 23.9780667,38.8944947 23.9096,38.6642842 C23.5976,37.9992316 22.4813333,34.8820105 23.4095333,34.3960105 C23.9260667,34.1240211 24.6003333,34.4659263 25.0414667,34.6978421 C25.1792667,34.8069789 25.3170667,34.9169684 25.454,35.0261053 C25.9436667,35.3228211 26.4905333,35.6587579 26.9325333,36.0484105 C27.2003333,36.2914105 27.4698667,36.5352632 27.7385333,36.7782632 C28.7048667,37.5115263 29.5368667,38.4741474 30.1253333,39.5152105 C30.2050667,39.6158211 30.2848,39.7164316 30.3645333,39.8170421 C30.5344,40.1018211 30.7077333,40.3874526 30.8776,40.6722316 C30.953,40.7745474 31.0275333,40.8768632 31.1003333,40.9791789 C31.2988,41.4251053 31.4218667,41.9153684 31.5865333,42.3826105 C31.7373333,42.7313368 31.8881333,43.0792105 32.0398,43.4287895 C32.1178,43.6871368 32.1386,43.9574211 32.2122667,44.226 C32.2798667,44.4834947 32.3821333,44.7145579 32.4540667,44.9626737 C32.4757333,45.1451368 32.4965333,45.3293053 32.5164667,45.5117684 C32.5693333,45.7189579 32.6230667,45.927 32.6750667,46.1333368 C32.6967333,46.4385789 32.7166667,46.7438211 32.7374667,47.0482105 C32.7799333,47.6552842 32.9168667,48.2589474 32.9948667,48.843 C33.0018,49.4389895 33.0087333,50.0358316 33.0148,50.6301158 C33.02,50.9882211 33.1153333,51.2747053 33.1153333,51.6549789 C33.1188,51.9781263 33.1222667,52.3029789 33.1257333,52.6252737 C33.1526,52.7966526 33.1803333,52.9680316 33.2080667,53.1385579 C33.2522667,54.0653684 33.2323333,55.1166632 33.2176,56.1057158 C33.2046,56.8244842 32.9220667,57.7777263 33.2791333,58.4231684 C33.2895333,58.4368105 33.3008,58.4496 33.3103333,58.4615368 C33.6058667,58.6943053 34.8781333,58.8554526 35.2551333,58.6465579 C35.4042,58.5638526 35.4735333,58.3583684 35.49,58.2006316 C35.5281333,57.7973368 35.3652,57.4409368 35.3175333,57.0743053 C35.3036667,56.7690632 35.2915333,56.4655263 35.2768,56.1602842 C35.2265333,56.0204526 35.1771333,55.8840316 35.1268667,55.7442 C35.1381333,55.6111895 35.1502667,55.4756211 35.1615333,55.3417579 C35.1026,54.6835263 35.0142,54.0005684 34.9284,53.3355158 C34.8625333,52.8316105 34.9024,52.2833684 34.8200667,51.7760526 C34.7758667,51.5637474 34.7316667,51.3531474 34.6874667,51.1408421 C34.6068667,50.3189053 34.6164,49.5830842 34.5635333,48.7389789 C34.5453333,48.4814842 34.4864,48.1907368 34.4508667,47.9221579 C34.4222667,47.8019368 34.3945333,47.6825684 34.3642,47.5623474 C34.4855333,47.3994947 34.1960667,46.1137263 34.1683333,45.8212737 C34.1700667,45.0564632 34.1735333,44.2899474 34.1752667,43.5225789 C34.2645333,42.8396211 34.7724,41.9605579 35.2291333,41.4523895 C35.4397333,41.2545789 35.6494667,41.0559158 35.8583333,40.8572526 C35.8964667,40.7822211 35.9346,40.7088947 35.9727333,40.6338632 C36.2431333,40.2084 36.4398667,39.8980421 36.5213333,39.3728211 C36.5880667,38.9294526 36.3454,38.7069158 36.2587333,38.3471053 C35.9762,37.1952 35.5593333,36.0953053 35.1286,35.0141684 C35.0332667,34.7745789 35.0280667,34.5273158 34.9396667,34.2792 C34.7776,33.8264526 34.5765333,33.4112211 34.5765333,32.8791789 C34.5765333,32.6566421 34.5219333,32.2618737 34.7542,32.1732 C35.3071333,31.9557789 35.5151333,32.7265579 36.0290667,32.7265579 C36.1114,32.6131579 36.1946,32.4997579 36.2769333,32.3863579 C36.3159333,32.1595579 36.3549333,31.9319053 36.3922,31.7042526 C36.3835333,31.2404211 36.0221333,30.8132526 35.8548667,30.4108105 C35.7612667,30.1831579 35.7170667,29.9401579 35.5697333,29.7406421 C35.4917333,29.6954526 35.4146,29.6511158 35.3357333,29.6050737 C34.8590667,29.4746211 34.0036667,30.1123895 33.6058667,30.3161684 C33.5001333,30.3477158 33.3944,30.3801158 33.2878,30.4116632 C33.059,30.4986316 32.9186,30.6486947 32.6473333,30.6708632 C32.4393333,30.6964421 32.2330667,30.7220211 32.0250667,30.7467474 C31.7278,30.7399263 31.4582667,30.5796316 31.1826667,30.5114211 C30.9980667,30.4901053 30.8126,30.4696421 30.6262667,30.4483263 C30.3238,30.3877895 30.0274,30.2726842 29.7275333,30.2044737 C29.5221333,30.1899789 29.3176,30.1754842 29.1130667,30.1592842 C28.7915333,30.1388211 28.47,30.0791368 28.1250667,30.0535579 C27.8130667,29.9947263 27.5010667,29.9350421 27.1873333,29.8745053 C26.9117333,29.8668316 26.6344,29.8591579 26.3570667,29.8489263 C26.2010667,29.8284632 26.0450667,29.8071474 25.8890667,29.7858316 C25.7218,29.7926526 25.5571333,29.8540421 25.3690667,29.8489263 C25.2295333,29.8301684 25.0908667,29.8105579 24.9513333,29.7900947 C24.8083333,29.7875368 24.6558,29.8489263 24.5206,29.7900947 C24.4105333,29.7406421 24.2675333,29.5948421 24.2380667,29.4848526 C24.0933333,28.9408737 25.0024667,29.0755895 25.1645333,28.7635263 C25.4245333,28.2613263 25.1740667,27.864 25.0700667,27.3907895 C25.0128667,27.1392632 25.0068,26.9747053 24.8594667,26.7700737 C24.7615333,26.6362105 24.5206,26.5586211 24.3810667,26.4852947 L24.3810667,26.4852947 Z M44.5570667,25.4621368 C44.2563333,25.7213368 42.0740667,25.9353474 41.5402,25.9609263 C41.1822667,25.9771263 40.8529333,25.8961263 40.5279333,26.0248737 C40.1162667,26.1868737 39.9221333,26.5100211 39.663,26.8374316 C39.143,27.4879895 38.6117333,28.0694842 38.1896667,28.7737579 C38.0423333,28.9570737 37.895,29.1412421 37.7450667,29.3237053 C37.5258,29.7645158 37.4218,30.2931474 37.3351333,30.7970526 C37.2996,30.9965684 37.4036,31.1756211 37.4469333,31.3529684 C37.5301333,31.6991368 37.5483333,32.1894 37.4651333,32.5159579 C37.4183333,32.6421474 37.3706667,32.7700421 37.3238667,32.8962316 C37.2034,33.0974526 36.7570667,33.534 36.7570667,33.7497158 L36.9642,33.7497158 C37.0543333,33.6968526 37.1453333,33.6439895 37.2346,33.5911263 C37.3776,33.4888105 37.4148667,33.3097579 37.5431333,33.1997684 C37.6705333,33.0880737 37.8412667,33.0292421 37.9773333,32.9047579 C38.5233333,32.3505474 39.0693333,31.7980421 39.6153333,31.2438316 C39.7531333,31.1389579 39.8909333,31.0366421 40.0278667,30.9326211 C40.0998,30.8337158 40.1717333,30.7348105 40.2445333,30.6342 C40.3598,30.5591684 40.4750667,30.4841368 40.5886,30.4074 C40.7428667,30.2343158 40.8971333,30.0620842 41.0505333,29.889 C41.2282,29.6988632 41.4284,29.5905789 41.6112667,29.4192 C41.6970667,29.3168842 41.7837333,29.2145684 41.8678,29.1105474 C42.1607333,28.8198 42.5420667,28.5750947 42.8384667,28.2741158 C42.9095333,28.1769158 42.9823333,28.0797158 43.0534,27.9816632 C43.1348667,27.9390316 43.2154667,27.8955474 43.2952,27.8512105 C43.5006,27.6900632 43.6436,27.4069895 43.9330667,27.4069895 C43.9911333,27.1895684 44.1298,27.1392632 44.2806,26.9815263 C44.4262,26.7990632 44.5700667,26.6166 44.7130667,26.4341368 C44.8734,26.2746947 45.4922,25.8807789 45.4922,25.6676211 C45.4462667,25.6241368 45.4584,25.6156105 45.3890667,25.6156105 L45.3890667,25.5644526 C45.3353333,25.5968526 45.2330667,25.7068421 45.2330667,25.6156105 C45.1689333,25.5746842 45.0770667,25.5456947 45.0770667,25.4621368 C44.8881333,25.5277895 44.7555333,25.4928316 44.5570667,25.4621368 L44.5570667,25.4621368 Z M27.0850667,14.7701368 C27.0088,14.7701368 27.0036,14.8136211 26.9810667,14.8724526 C27.0963333,14.8724526 27.1561333,15.0378632 27.261,15.0779368 C27.456,15.1111895 27.6501333,15.1427368 27.846,15.1768421 C28.0115333,15.2373789 28.0895333,15.4343368 28.2403333,15.5170421 C28.6762667,15.7540737 29.3618,15.5954842 29.7544,15.3797684 C30.1270667,15.1734316 30.6522667,14.6874316 30.2891333,14.2210421 C30.1790667,14.0786526 30.0005333,14.0078842 29.8592667,13.9217684 C29.8098667,13.8834 29.7596,13.8433263 29.7110667,13.8032526 C29.3912667,13.7503895 29.0688667,13.6975263 28.7490667,13.6446632 C28.3088,14.0044737 27.2523333,14.1468632 27.0850667,14.7701368 L27.0850667,14.7701368 Z M31.3118,4.67668421 C31.031,4.82333684 30.7476,4.96913684 30.4668,5.11408421 C30.381,5.19593684 30.2926,5.27608421 30.2050667,5.35793684 C30.2050667,5.60008421 30.4798,5.72542105 30.4520667,5.9616 C30.3870667,6.50216842 29.3730667,6.0102 29.1035333,6.36148421 C28.7967333,6.75795789 28.9076667,7.49377895 28.6450667,7.81351579 C28.7083333,8.0352 28.7698667,8.25773684 28.8322667,8.47942105 C28.8270667,8.667 28.8218667,8.85372632 28.8175333,9.04130526 C28.9588,9.59892632 29.0108,12.0800842 29.9208,11.8294105 C29.9875333,11.8098 30.0360667,11.7441474 30.056,11.6861684 C30.2068,11.2104 29.9381333,10.7559474 29.8488667,10.3483895 C29.7500667,9.90757895 29.6131333,9.45142105 29.5923333,8.98844211 C29.6088,8.76761053 29.6252667,8.54507368 29.6408667,8.32509474 C29.6408667,7.85017895 29.5342667,7.51083158 29.7223333,7.05978947 C29.8228667,6.81593684 30.0230667,6.81849474 30.238,6.92763158 C30.5361333,7.07769474 30.4876,7.43921053 30.745,7.63616842 C31.3343333,8.08635789 33.0390667,7.48184211 33.4741333,7.03762105 C33.6994667,6.80741053 34.0106,5.88997895 33.7584,5.58814737 C33.6431333,5.45087368 33.3623333,5.44234737 33.3008,5.27182105 C33.2982,5.23430526 33.293,5.19764211 33.2895333,5.16097895 C33.3086,4.97254737 33.5053333,4.86682105 33.4940667,4.64257895 C33.4776,4.33392632 33.02,4.24951579 32.8059333,4.43709474 C32.7010667,4.40298947 32.5970667,4.36803158 32.4930667,4.33392632 C32.188,4.58374737 31.668,4.52832632 31.3118,4.67668421 L31.3118,4.67668421 Z M30.2050667,0.753726316 C29.9164667,0.983084211 29.2820667,0.804031579 28.9128667,0.887589474 C28.4041333,1.00098947 27.8061333,0.984789474 27.2982667,1.08710526 C27.1552667,1.13826316 27.014,1.18942105 26.871,1.23972632 C26.6361333,1.28917895 26.3830667,1.30452632 26.1846,1.42474737 C25.9367333,1.57225263 25.831,1.89028421 25.7070667,2.12049474 C25.1844667,3.08737895 24.6930667,4.02271579 24.6930667,5.25562105 C24.7806,5.24538947 25.0050667,5.265 25.0050667,5.15330526 C25.1090667,5.18655789 25.2130667,5.22151579 25.3170667,5.25562105 C25.4470667,5.13369474 26.0450667,5.17717895 26.0450667,5.05098947 C26.1213333,5.07486316 26.4610667,5.19934737 26.4610667,5.05098947 C26.5260667,5.07827368 26.5650667,5.06974737 26.5650667,5.15330526 C26.7990667,5.31445263 26.7245333,5.56001053 26.8216,5.79704211 C26.9030667,5.99570526 27.0850667,6.02384211 27.0850667,6.27792632 C27.313,6.27792632 27.8321333,6.20630526 27.9690667,6.37086316 C28.2758667,6.74175789 28.0245333,7.27294737 28.0384,7.70949474 C28.0618,7.84676842 28.0843333,7.98404211 28.1077333,8.11961053 C28.1363333,9.06688421 28.0228,10.1471684 28.249,11.0808 C28.2897333,11.2513263 28.4838667,11.7535263 28.6268667,11.8592526 C28.743,11.9445158 29.9970667,12.1917789 29.4008,12.5839895 C29.2786,12.6479368 29.1581333,12.7110316 29.0368,12.7749789 C28.7577333,12.8934947 28.5896,12.8252842 28.3348,12.7195579 C28.1623333,12.6479368 28.0046,12.5515895 27.8893333,12.3998211 C27.8243333,12.2020105 27.7593333,12.0050526 27.6926,11.8063895 C27.6397333,11.6819053 27.586,11.5591263 27.5305333,11.4337895 C27.3676,10.9912737 27.2471333,10.4464421 27.2003333,9.96044211 C27.1596,9.54265263 27.2982667,8.49221053 26.9342667,8.30036842 C26.7436,8.19975789 26.0320667,8.48112632 25.7816,8.51011579 C25.3968,8.55189474 24.6896,8.40097895 24.4235333,8.67296842 C24.2138,8.88442105 24.3325333,9.18198947 24.3325333,9.44801053 C24.3160667,9.58613684 24.2996,9.72341053 24.2822667,9.85897895 C24.2736,10.3074632 24.3256,10.7192842 24.3958,11.1353684 C24.4547333,11.4866526 24.6410667,11.7518211 24.7537333,12.0732632 C24.8135333,12.3375789 24.8750667,12.6010421 24.9348667,12.8645053 C25.1142667,13.3368632 25.2936667,13.8083684 25.4730667,14.2798737 C25.5640667,14.5160526 25.5788,14.7769579 25.6550667,15.0165474 C25.7382667,15.1768421 25.8206,15.3379895 25.9020667,15.4982842 C26.0728,16.0226526 26.1577333,16.8676105 26.5096,17.2819895 C26.5503333,17.3297368 26.5971333,17.3800421 26.6690667,17.3800421 L26.6690667,17.4303474 C26.6136,17.5505684 26.6985333,17.6946632 26.7730667,17.7867474 C27.417,18.5848105 28.4908,17.982 29.328,17.8924737 C29.4467333,17.9086737 29.5663333,17.9257263 29.6850667,17.9419263 C29.9563333,17.6895474 31.7728667,17.7040421 31.3716,18.3392526 C31.2710667,18.4125789 31.1722667,18.4876105 31.0717333,18.5609368 C30.9235333,18.5831053 30.7753333,18.6052737 30.6262667,18.6282947 C30.2024667,18.7058842 29.7682667,18.7638632 29.3228,18.8295158 C29.1633333,18.8823789 29.0056,18.9369474 28.8461333,18.9889579 C28.4518,19.0674 27.8503333,19.1415789 27.4508,19.0963895 C27.1015333,19.0571684 26.8094667,18.873 26.5390667,18.6760421 C26.364,18.5481474 26.3007333,18.3017368 26.2045333,18.1312105 C26.039,17.8387579 25.8648,17.5778526 25.7348,17.2777263 C25.6524667,17.0824737 25.571,16.8872211 25.4878,16.6902632 C25.3673333,16.4745474 25.2486,16.2588316 25.129,16.0431158 C25.077,15.8623579 25.0241333,15.6824526 24.9704,15.4999895 C24.8898,15.3209368 24.8100667,15.1427368 24.7286,14.9636842 C24.6428,14.6695263 24.5925333,14.3873053 24.4642667,14.1170211 C24.3897333,13.9601368 24.2623333,13.7222526 24.0595333,13.6932632 C23.6513333,13.6318737 23.3896,14.0147053 23.2015333,14.2832842 C23.0221333,14.4572211 22.8436,14.6311579 22.6633333,14.8059474 C22.2863333,15.3124105 21.6302667,16.8087789 21.0400667,17.0372842 C20.9681333,17.0645684 20.7410667,17.1754105 20.7410667,17.0722421 C20.4472667,16.9980632 20.3025333,16.7891684 19.9628,16.8173053 C19.6993333,16.8931895 19.4367333,16.9699263 19.1732667,17.0458105 C18.2485333,17.2836947 17.3905333,17.6383895 16.5117333,17.9504526 C16.3132667,18.0075789 16.1148,18.0664105 15.9163333,18.1243895 C15.561,18.3068526 15.2048,18.4893158 14.8477333,18.6692211 C14.2982667,18.8900526 13.7098,19.0153895 13.1750667,19.2711789 C13.0710667,19.3410947 12.9670667,19.4118632 12.8630667,19.4817789 C12.5744667,19.6335474 12.3188,19.7409789 12.0362667,19.9021263 C11.6670667,20.1118737 11.1470667,20.2909263 10.9520667,20.7206526 C10.8090667,21.0344211 10.7718,21.3746211 10.6678,21.7156737 C10.5594667,22.0669579 10.3818,22.4318842 10.3133333,22.8053368 C10.0940667,23.9777053 10.0975333,25.1057368 10.0776,26.3309684 C10.0732667,26.5620316 10.0152,26.7410842 10.0013333,26.9474211 C10.0178,27.0838421 10.0342667,27.2194105 10.049,27.3558316 C10.036,27.4572947 10.0221333,27.5596105 10.01,27.6602211 C10.0308,27.8145474 10.0542,27.9697263 10.075,28.1223474 C10.1192,29.0593895 10.1625333,29.8941158 10.2535333,30.7859684 C10.2466,30.9010737 10.2405333,31.0178842 10.2344667,31.1329895 C10.3020667,31.7358 10.4728,32.3241158 10.5768,32.9346 C10.5932667,33.1358211 10.6114667,33.3378947 10.6270667,33.5391158 C10.6790667,33.7130526 10.7310667,33.8878421 10.7830667,34.0600737 C10.8047333,34.2425368 10.8255333,34.4258526 10.8454667,34.6083158 C10.9243333,34.8197684 11.0058,35.0320737 11.0855333,35.2426737 C11.115,35.3586316 11.1436,35.4745895 11.1722,35.5896947 C11.2138,35.6903053 11.2822667,36.3076105 11.3290667,36.3076105 C11.4625333,36.6947053 11.596,37.0835053 11.7277333,37.4697474 C11.7762667,37.5626842 11.8248,37.6556211 11.8733333,37.7468526 C11.9634667,38.0631789 12.0536,38.3812105 12.1437333,38.6983895 C12.1879333,38.7768316 12.2312667,38.8544211 12.2737333,38.9311579 C12.3777333,39.2236105 12.4184667,39.5271474 12.5493333,39.7991368 C12.7088,40.1282526 12.6897333,40.6253368 12.8890667,40.986 C13.0078,41.2008632 13.0598,41.4396 13.1768,41.6629895 C13.2669333,41.8352211 13.6690667,42.1771263 13.6690667,42.3450947 C13.7115333,42.3007579 13.7210667,42.3092842 13.7210667,42.2419263 C13.7332,42.2342526 13.7453333,42.2257263 13.7566,42.2189053 C13.7748,42.2035579 13.7947333,42.1899158 13.8129333,42.1771263 C14.1197333,41.8838211 14.1353333,41.5103684 14.2896,41.1394737 C14.4542667,40.7361789 14.6778667,40.3303263 14.8243333,39.9236211 C14.8884667,39.7147263 14.9526,39.5066842 15.0167333,39.2977895 C15.2273333,38.8578316 15.4388,38.4187263 15.6485333,37.9770632 C15.7395333,37.8090947 15.8790667,37.6829053 15.9605333,37.5115263 C16.0238,37.3375895 16.0879333,37.1628 16.1494667,36.9871579 C16.25,36.7509789 16.4250667,36.6017684 16.4250667,36.3076105 C16.5923333,36.2249053 16.6330667,36.1004211 16.6330667,35.8992 C16.6634,35.8889684 16.6972,35.8795895 16.7275333,35.8693579 C16.7665333,35.8471895 16.8072667,35.8250211 16.8454,35.8028526 C17.0464667,35.6442632 17.0672667,35.4123474 17.2007333,35.2145368 C17.3827333,34.9399895 17.6384,34.7029579 17.836,34.4343789 C17.9703333,34.2186632 18.1072667,34.0029474 18.2416,33.7863789 C18.4045333,33.5740737 18.6151333,33.4291263 18.7702667,33.2065895 C18.9046,33.0079263 19.0094667,32.7956211 19.1611333,32.5969579 C19.279,32.4946421 19.396,32.3923263 19.513,32.2891579 C19.6898,32.0683263 19.8666,31.8492 20.0425333,31.6283684 C20.4680667,31.1662421 20.9230667,30.7765895 21.2056,30.2394316 C21.4396,29.7883895 21.4985333,29.2034842 21.5947333,28.6884947 C21.6415333,28.5802105 21.6900667,28.4727789 21.7368667,28.3644947 C21.775,28.1939684 21.814,28.0268526 21.8512667,27.8571789 C21.9240667,27.5630211 21.918,27.2850632 22.0367333,27.0190421 C22.4735333,26.0206105 22.8436,26.0845579 23.7978,25.7375368 C23.8792667,25.7068421 24.0690667,25.6642105 24.0690667,25.5644526 C24.1323333,25.5823579 24.2770667,25.6718842 24.2770667,25.5644526 C24.7797333,25.5644526 25.4306,25.5584842 25.7590667,25.8944211 C25.8856,26.0231684 26.0225333,26.5304842 26.0953333,26.7129474 C26.2045333,26.9857895 26.1378,27.1102737 26.3310667,27.3669158 C26.3830667,27.4368316 26.3700667,27.6107684 26.4610667,27.6107684 C26.5148,27.7352526 26.5685333,27.8622947 26.6205333,27.9867789 C26.7132667,28.1513368 26.9810667,28.3320947 26.9810667,28.5316105 L27.0850667,28.5316105 C27.1240667,28.2169895 27.1466,27.8904316 27.0391333,27.5741053 C26.7401333,26.6950421 26.0970667,25.9788316 25.5718667,25.2242526 C24.9660667,24.3562737 24.5483333,23.3945053 23.621,22.7413895 C22.997,22.3031368 22.3808,21.8401579 21.749,21.4129895 C21.3832667,21.1648737 20.4065333,20.7368526 20.2808667,20.2781368 C20.2453333,20.1519474 20.2774,20.0445158 20.3493333,19.9566947 C20.6613333,19.5602211 21.4907333,20.2167474 21.8348,20.2798421 C21.9041333,20.2909263 21.9370667,20.2653474 21.9370667,20.3463474 C22.1147333,20.5637684 22.3045333,20.6038421 22.5368,20.7402632 C22.8228,20.9065263 23.0403333,21.1384421 23.309,21.3422211 C23.4502667,21.4274842 23.5932667,21.5136 23.7345333,21.5980105 C23.9893333,21.8401579 24.245,22.0806 24.4998,22.3210421 C24.6861333,22.4583158 24.8733333,22.5972947 25.0605333,22.7354211 C25.2052667,22.9545474 25.3508667,23.1745263 25.4956,23.3945053 C25.7556,23.6639368 26.0164667,23.9359263 26.2756,24.2062105 C26.3891333,24.3690632 26.5035333,24.5319158 26.6153333,24.6930632 C26.7878,24.8917263 26.9611333,25.0920947 27.1344667,25.2899053 C27.313,25.5746842 27.4681333,25.9131789 27.6293333,26.2141579 C27.7125333,26.3258526 27.7948667,26.4392526 27.8780667,26.5509474 C28.0566,26.9542421 28.2455333,27.3686211 28.3963333,27.7787368 C28.5246,28.1325789 28.613,28.4838632 28.8617333,28.7780211 C29.2430667,29.2307684 31.0613333,29.5308947 31.7148,29.6468526 C31.7858667,29.6570842 32.0770667,29.7542842 32.0770667,29.6570842 L32.8059333,29.6570842 C32.9073333,29.3731579 33.1612667,29.4157895 33.3961333,29.2938632 C33.852,29.0559789 34.3252,28.8709579 34.8018667,28.6825263 C34.9379333,28.6424526 35.0774667,28.6040842 35.2135333,28.5640105 C35.2846,28.5299053 35.4059333,28.5256421 35.4059333,28.4301474 C35.6234667,28.5111474 35.8436,28.593 36.0611333,28.6722947 C36.3861333,28.8121263 36.3904667,29.1531789 36.8931333,28.9903263 C37.1306,28.9127368 37.4556,28.3278316 37.5890667,28.3278316 C37.5856,28.2647368 37.5821333,28.2042 37.5769333,28.1419579 C37.7381333,27.9211263 37.9002,27.7002947 38.0614,27.4786105 C38.1610667,27.2927368 38.2607333,27.1094211 38.3612667,26.9235474 C38.4696,26.7555789 38.5805333,26.5884632 38.6897333,26.4179368 C38.7521333,26.2525263 38.8301333,25.9737158 38.7772667,25.7886947 C38.7313333,25.6352211 38.6507333,25.4928316 38.6542,25.3095158 C38.6559333,25.1671263 38.6862667,25.0281474 38.8197333,24.9667579 C39.0858,24.8422737 40.1214667,24.9667579 40.4447333,25.0264421 C40.5678,25.0690737 40.6908667,25.1125579 40.8130667,25.1551895 C40.8130667,25.0835684 40.7784,25.0528737 40.8642,25.0528737 L40.8642,25.0017158 L40.9170667,25.0017158 C40.9344,25.0690737 40.9292,25.1551895 41.0202,25.1551895 C41.1502,25.0162105 41.3036,25.1381368 41.4821333,25.1151158 C41.5532,25.0946526 41.6251333,25.0741895 41.6970667,25.0528737 L41.6970667,25.0017158 L41.7490667,25.0017158 C41.7664,25.0690737 41.7603333,25.1551895 41.8530667,25.1551895 C41.9310667,25.0520211 42.2690667,25.0196211 42.2690667,24.9514105 L42.3202,24.9514105 C42.9416,24.8550632 43.5647333,24.7604211 44.1844,24.6649263 C44.4834,24.5813684 44.785,24.4995158 45.0831333,24.4168105 C45.3041333,24.3963474 45.5251333,24.3767368 45.7444,24.3562737 C45.9515333,24.2889158 46.1595333,24.2215579 46.3658,24.1542 C46.4403333,24.1260632 46.5850667,24.0655263 46.5850667,23.9785579 L46.6370667,23.9785579 C46.8788667,24.0970737 47.06,23.8719789 47.2723333,23.814 C47.4404667,23.8012105 47.6120667,23.7884211 47.7810667,23.7739263 C47.7984,23.7057158 47.8166,23.6383579 47.8330667,23.5701474 C48.2326,23.5181368 48.5238,23.3143579 48.8860667,23.2018105 C49.5681333,22.9895053 50.2926667,22.8820737 51.0094,22.7882842 C51.1272667,22.7925474 51.2451333,22.7976632 51.363,22.8002211 C51.4878,22.7601474 51.6152,22.7200737 51.7391333,22.6808526 C52.0112667,22.6186105 52.2920667,22.5972947 52.5642,22.6075263 C52.6898667,22.6109368 53.0850667,22.5972947 53.0850667,22.5972947 L53.1362,22.5972947 C53.4378,22.4651368 54.3946,22.6714737 54.6840667,22.7797579 C54.8270667,22.8326211 54.9484,23.0065579 55.1130667,23.0065579 L55.1130667,23.1600316 C55.0038667,23.2308 54.8955333,23.3024211 54.7863333,23.3731895 C54.5436667,23.4448105 54.1961333,23.4141158 53.9170667,23.4141158 C53.1206,23.4209368 52.3241333,23.4277579 51.5268,23.4320211 C51.168,23.4703895 50.8915333,23.6767263 50.5708667,23.7824526 C50.1886667,23.9069368 49.8610667,23.9708842 49.5161333,24.1644316 C49.2448667,24.3144947 49.0334,24.5754 48.8072,24.7825895 C48.5749333,24.9318 48.3444,25.0801579 48.113,25.2293684 C47.9431333,25.3836947 47.7741333,25.5388737 47.6051333,25.6923474 C46.9083333,26.1868737 46.2115333,26.6805474 45.513,27.1733684 C44.9566,27.6082105 44.4756,28.0942105 43.9833333,28.5802105 C43.8438,28.6825263 43.7034,28.7865474 43.5647333,28.8888632 C43.2276,29.2017789 42.8904667,29.5164 42.5542,29.8301684 C42.4337333,29.9179895 42.3132667,30.0075158 42.1928,30.0953368 C41.9224,30.3349263 41.7118,30.618 41.4734667,30.8695263 C41.1805333,31.1756211 40.8356,31.4382316 40.5348667,31.7358 C40.3338,31.9822105 40.1318667,32.2277684 39.9299333,32.4741789 C39.6881333,32.7393474 39.4255333,32.9567684 39.1620667,33.1997684 C38.8093333,33.5229158 38.5008,33.8861368 38.1818667,34.2323053 C38.0068,34.3977158 37.8308667,34.5622737 37.6540667,34.7251263 C37.5942667,34.8240316 37.5353333,34.9229368 37.4755333,35.0209895 C37.2268,35.3279368 36.9624667,35.5052842 36.8879333,35.9034632 C36.7631333,36.5608421 37.0361333,36.8993368 37.1470667,37.4364947 C37.2025333,37.7562316 37.2571333,38.0759684 37.3117333,38.394 C37.3646,38.5841368 37.5734667,38.8561263 37.5370667,39.0667263 C37.5240667,39.1357895 37.5093333,39.1724526 37.5890667,39.1724526 C37.7060667,39.3762316 37.9695333,39.4478526 38.0536,39.6541895 C38.2884667,40.2331263 37.3082667,41.7738316 37.0188,42.2734737 C36.8784,42.5130632 36.8316,42.7807895 36.6972667,43.0272 C36.5863333,43.2250105 36.3878667,43.3273263 36.3653333,43.5737368 C36.3488667,43.7374421 36.3601333,43.9540105 36.5230667,44.0239263 C36.7614,44.1236842 37.0768667,44.0384211 37.2744667,43.9250211 C38.493,43.2147789 38.8024,41.7124421 39.5130667,40.6048737 C39.7522667,40.2297158 39.8848667,39.6635684 40.3268667,39.4410316 C40.4508,39.3779368 40.6570667,39.3779368 40.8130667,39.3779368 C40.7896667,40.0600421 40.7255333,40.1077895 40.4516667,40.6338632 C40.4135333,40.7489684 40.3754,40.8657789 40.3364,40.9808842 C40.2653333,41.0832 40.1942667,41.1855158 40.1223333,41.2861263 C40.0556,41.4924632 39.9897333,41.6988 39.9221333,41.9034316 C39.7288667,42.2615368 39.5338667,42.5181789 39.4966,42.9615474 C39.4801333,43.1465684 39.5572667,43.3674 39.7730667,43.3674 C39.91,43.2778737 40.027,43.3674 40.1890667,43.3674 C40.3026,43.2616737 40.4967333,43.2702 40.6397333,43.2224526 C40.7758,43.173 40.9751333,43.0365789 41.0713333,42.9180632 C41.3348,42.5855368 41.4197333,42.1839474 41.5826667,41.7985579 C41.6892667,41.6629895 41.795,41.5274211 41.9007333,41.3901474 C41.9943333,41.1821053 42.0879333,40.9740632 42.1832667,40.7668737 C42.4909333,40.0915895 42.9286,39.3992526 43.4780667,38.8791474 C44.1445333,38.2439368 44.9323333,37.7997158 45.6664,37.2847263 C45.7660667,37.1841158 45.8648667,37.0852105 45.9628,36.9837474 C46.0442667,36.9411158 46.1274667,36.8976316 46.2080667,36.855 C46.3623333,36.7202842 46.5166,36.5872737 46.67,36.4534105 C47.6337333,35.7755684 48.7101333,35.2384105 49.6461333,34.5094105 C50.0985333,34.1547158 53.4482,32.3624842 53.4482,32.1126632 C53.5088667,32.1450632 53.5799333,32.2149789 53.6562,32.2149789 L53.6562,32.1126632 C53.7706,32.0256947 53.8867333,31.9387263 54.0002667,31.8509053 C54.2438,31.6906105 54.5549333,31.6002316 54.7863333,31.4305579 C55.1148,31.1875579 55.4129333,30.9343263 55.7691333,30.7348105 C55.9216667,30.6674526 56.0750667,30.6009474 56.2258667,30.5318842 C56.4659333,30.3818211 56.6696,30.1558737 56.9131333,30.0168947 C57.1618667,29.8719474 57.4643333,29.7534316 57.6983333,29.5888737 C57.8188,29.4908211 57.9384,29.3936211 58.0571333,29.2938632 C58.2391333,29.1924 58.4211333,29.0917895 58.6014,28.9894737 C58.8068,28.8249158 58.9714667,28.6347789 59.2730667,28.6347789 C59.4013333,28.2758211 59.9733333,28.1453684 60.2784,27.9663158 C60.6250667,27.7599789 60.9535333,27.5263579 61.2681333,27.2671579 C61.3140667,27.1895684 61.36,27.1119789 61.4050667,27.0343895 C61.5732,26.8681263 61.7422,26.7010105 61.9103333,26.5338947 C61.9831333,26.3915053 62.0568,26.2508211 62.1287333,26.1084316 C62.5958667,25.4050105 63.1141333,24.8149895 63.4434667,24.0348316 C63.4946,23.9137579 63.5518,23.3646632 63.6410667,23.3646632 L63.6410667,23.2120421 C63.3048,23.0031474 63.2250667,22.6203158 62.9624667,22.3415053 C62.1434667,21.4743789 61.2551333,20.6874 60.3893333,19.8620526 C60.0972667,19.6335474 59.8060667,19.4067474 59.5131333,19.1782421 C59.3606,19.0418211 59.2072,18.9079579 59.0546667,18.7723895 C58.8172,18.5686105 58.5199333,18.4202526 58.2651333,18.2556947 C58.0684,18.1278 57.8283333,17.9888211 57.6610667,17.8370526 C57.5952,17.7714 57.5310667,17.7057474 57.4660667,17.6400947 C57.213,17.5045263 56.9590667,17.3698105 56.7034,17.2342421 C56.3021333,16.9929474 55.9008667,16.7508 55.4978667,16.5095053 C55.2387333,16.4088947 54.9804667,16.3082842 54.7230667,16.2076737 C54.5428,16.1181474 54.4206,16.0004842 54.2472667,15.8990211 C53.8538,15.7233789 53.4612,15.5477368 53.0686,15.3695368 C52.6118667,15.1973053 52.1118,15.1316526 51.6420667,14.9884105 C51.4418667,14.8937684 51.2442667,14.7991263 51.0440667,14.7036316 C50.7182,14.5996105 50.3689333,14.5740316 50.0266,14.5143474 C49.7631333,14.4683053 49.5144,14.3216526 49.2318667,14.2943684 C49.0758667,14.2781684 48.9588667,14.3617263 48.8202,14.3617263 C48.5610667,13.9874211 47.8608,13.9899789 47.4188,13.9345579 C46.9620667,13.8748737 46.5148667,13.7120211 46.0607333,13.6693895 C45.8553333,13.6864421 45.6490667,13.7060526 45.4428,13.7239579 C43.3515333,13.5900947 41.2524667,13.5935053 39.3986667,14.1246947 C38.8587333,14.2781684 38.2442667,14.3131263 37.8343333,14.7044842 C37.2120667,15.2962105 37.6523333,16.4327684 37.7710667,17.1268105 C37.7788667,17.4499579 37.7892667,17.7731053 37.7970667,18.0962526 C37.5630667,18.0732316 37.3273333,17.9419263 37.1730667,17.9419263 C37.1193333,17.5232842 36.9087333,17.1958737 36.7960667,16.8019579 C36.6158,16.1761263 36.5915333,15.5647895 36.5360667,14.8724526 C36.5100667,14.7351789 36.4840667,14.5996105 36.4563333,14.4623368 C36.4580667,14.1391895 36.4598,13.8160421 36.4615333,13.4928947 C36.4875333,13.3556211 36.5135333,13.2183474 36.5395333,13.0810737 C36.5447333,12.6709579 36.5490667,12.2642526 36.5525333,11.8541368 C36.5698667,11.7015158 36.5880667,11.5471895 36.6036667,11.3937158 C36.6036667,11.1959053 36.5473333,10.9972421 36.5551333,10.7806737 C36.5837333,10.6092947 36.6106,10.4379158 36.6374667,10.2673895 C36.6617333,9.89905263 36.5525333,9.61427368 36.5525333,9.24593684 C36.5525333,8.51182105 36.6357333,7.83227368 36.6496,7.0956 C36.6444,6.90802105 36.6392,6.723 36.6331333,6.53542105 C36.6054,6.41605263 36.5785333,6.29583158 36.5490667,6.17646316 C36.6712667,6.02554737 36.6409333,5.80983158 36.6678,5.61457895 C36.6938,5.49521053 36.7189333,5.37498947 36.7440667,5.25391579 C36.7518667,4.79349474 36.7605333,4.33392632 36.7683333,3.87435789 C36.8272667,3.14621053 36.6868667,1.944 36.0940667,1.52109474 C35.6928,1.23290526 35.1788667,1.23631579 34.6822667,1.13570526 C34.5548667,1.09222105 34.4292,1.04873684 34.3018,1.00610526 C33.9768,0.984789474 33.6518,0.966031579 33.3250667,0.944715789 C33.1855333,0.919989474 33.0477333,0.894410526 32.9073333,0.867126316 C32.5268667,0.8586 32.1472667,0.850926316 31.7650667,0.8424 C31.6437333,0.818526316 31.5215333,0.795505263 31.3976,0.770778947 C30.9902667,0.730705263 30.5734,0.887589474 30.2050667,0.753726316 L30.2050667,0.753726316 Z M29.8930667,0.0375157895 C30.1348667,0.0707684211 30.3792667,0.105726316 30.6210667,0.139831579 C30.7692667,0.0102315789 31.3490667,0.110842105 31.3490667,0.0375157895 C31.6610667,0.0400736842 31.9730667,0.0451894737 32.2833333,0.0486 C32.4393333,0.0758842105 32.5970667,0.103168421 32.7530667,0.1296 C33.0815333,0.139831579 33.41,0.149210526 33.7384667,0.158589474 C33.8043333,0.166263158 33.9490667,0.237031579 33.9490667,0.139831579 C34.9804,0.301831579 36.3835333,0.392210526 37.1158667,1.11353684 C37.7078,1.69503158 37.7381333,2.77702105 37.6835333,3.66802105 C37.6523333,3.87265263 37.6228667,4.07898947 37.5925333,4.28276842 C37.5856,4.63234737 37.6566667,4.9896 37.6566667,5.30507368 C37.6367333,5.4756 37.6142,5.64697895 37.5925333,5.81750526 C37.5890667,6.27792632 37.5856,6.73834737 37.5821333,7.19706316 C37.5552667,7.38634737 37.5284,7.57477895 37.5015333,7.76150526 C37.5284,8.10255789 37.557,8.44446316 37.5838667,8.78551579 C37.5873333,9.07455789 37.5197333,9.34313684 37.5197333,9.60233684 C37.5197333,9.80185263 37.5873333,9.99198947 37.5769333,10.2153789 C37.5483333,10.4046632 37.5197333,10.5930947 37.4902667,10.7806737 C37.4642667,11.3093053 37.5145333,11.8370842 37.557,12.3179684 C37.5838667,12.6479368 37.5024,12.9651158 37.6428,13.2618316 C37.7060667,13.3956947 37.8586,13.4144526 38.0059333,13.4246842 C38.6334,13.4630526 39.4714667,13.1561053 40.0885333,13.0554947 C40.4083333,13.0026316 40.7714667,12.9574421 41.0730667,12.9352737 C41.2559333,12.9173684 41.4379333,12.9003158 41.6208,12.8807053 C41.7005333,12.8534211 41.9570667,12.8312526 41.9570667,12.7246737 C42.0610667,12.7579263 42.1642,12.7928842 42.2690667,12.8261368 C42.4268,12.6922737 42.6096667,12.8261368 42.7890667,12.8261368 L42.7890667,12.7246737 C42.8922,12.7579263 42.9970667,12.7928842 43.1002,12.8261368 C43.2501333,12.6990947 44.0370667,12.8602421 44.0370667,12.7246737 C44.0968667,12.7400211 44.2450667,12.8278421 44.2450667,12.7246737 C44.6021333,12.7246737 44.8933333,12.7749789 45.2330667,12.7749789 L45.2330667,12.7246737 C45.5303333,12.8517158 45.8683333,12.7997053 46.2158667,12.8457474 C46.5738,12.8917895 46.9932667,13.0307684 47.3642,13.0307684 L47.3642,12.9804632 L47.4170667,12.9804632 L47.4170667,12.9293053 C47.918,13.1544 48.5654,13.1629263 49.1287333,13.2550105 C49.6192667,13.3351579 50.0682,13.5287053 50.5379333,13.6293158 C50.9513333,13.7222526 51.3664667,13.8143368 51.7781333,13.9055684 C51.8691333,13.9345579 52.2530667,13.9149474 52.2530667,14.0036211 C52.6526,14.3259158 53.2653333,14.4222632 53.7524,14.5851158 C54.0488,14.6840211 54.6936,15.2024211 55.0151333,15.0915789 C55.0706,15.0728211 55.0610667,15.0711158 55.0610667,15.1282421 L55.1130667,15.1282421 C55.4051333,15.4360421 55.913,15.5426211 56.2796,15.7327579 C56.4815333,15.8367789 56.8932,16.1838 57.1046667,16.2221684 C57.1748667,16.2332526 57.2450667,16.1676 57.2450667,16.2537158 L57.2970667,16.2537158 C57.4686667,16.4344737 57.7052667,16.5359368 57.902,16.6808842 C58.3448667,17.0065895 58.8085333,17.2674947 59.2505333,17.6051368 C59.5096667,17.8029474 59.735,18.0595895 59.9785333,18.2616632 C60.1891333,18.4390105 60.4794667,18.5643474 60.7048,18.7340211 C61.1788667,19.1680105 61.6529333,19.6037053 62.1287333,20.0376947 C62.2301333,20.1800842 62.3332667,20.3224737 62.4329333,20.4631579 C62.5646667,20.5893474 62.6981333,20.7163895 62.829,20.8408737 C62.9520667,20.9423368 63.0491333,21.1512316 63.1592,21.2799789 C63.362,21.5170105 63.5804,21.6960632 63.7806,21.9407684 C63.9201333,22.1658632 64.0596667,22.3918105 64.2000667,22.6152 C64.3118667,22.7848737 64.4956,22.9673368 64.5424,23.1668526 C64.5814,23.3407895 64.5848667,23.5889053 64.5354667,23.7594316 C64.4713333,23.9777053 64.3153333,24.1712526 64.2156667,24.3673579 C64.1784,24.4807579 64.1428667,24.5958632 64.1056,24.7092632 C63.9002,25.0051263 63.6956667,25.3026947 63.4911333,25.5977053 C63.4486667,25.7179263 63.4062,25.8381474 63.362,25.9566632 C63.1219333,26.2772526 62.8836,26.6004 62.6426667,26.9218421 C62.4806,27.1597263 62.3419333,27.4948105 62.1079333,27.6781263 C61.8418667,27.8861684 61.6035333,28.1001789 61.3236,28.2843474 C60.9986,28.4821579 60.6736,28.6808211 60.3486,28.8786316 C60.2220667,28.9843579 60.0955333,29.0900842 59.9664,29.1932526 C59.6873333,29.3569579 59.3892,29.4831474 59.1205333,29.6587895 C58.6750667,29.9853474 58.2296,30.3110526 57.785,30.6359053 C57.6090667,30.7518632 57.3716,30.8311579 57.2078,30.9505263 C56.7701333,31.2830526 56.3333333,31.6155789 55.8956667,31.9481053 C55.8194,31.9856211 55.7448667,32.0222842 55.6686,32.0572421 C55.3600667,32.2772211 55.0524,32.4980526 54.7438667,32.7171789 C54.5566667,32.8527474 54.3356667,32.9380105 54.1398,33.0565263 C53.9682,33.2048842 53.7966,33.3532421 53.6241333,33.5007474 C53.4178667,33.6431368 53.2107333,33.7855263 53.0036,33.9262105 C52.4446,34.3525263 52.0329333,34.8598421 51.5476,35.3552211 C51.3933333,35.4762947 51.2408,35.5999263 51.0865333,35.7218526 C50.6887333,36.0748421 50.3793333,36.4372105 49.9902,36.7876421 C49.7666,36.9470842 49.5456,37.1082316 49.3228667,37.2685263 C49.1538667,37.422 48.9857333,37.5771789 48.8176,37.7306526 C48.6408,37.8500211 48.4648667,37.9702421 48.2880667,38.0904632 C48.0844,38.2968 47.8833333,38.5031368 47.6805333,38.7069158 C47.5696,38.7751263 47.4595333,38.8416316 47.3494667,38.9072842 C47.0834,39.1392 46.8208,39.3728211 46.5556,39.6038842 C46.4472667,39.6661263 46.3380667,39.7309263 46.2288667,39.7931684 C45.7903333,40.1205789 45.2738,40.4710105 44.9730667,40.9442211 C44.7096,41.3551895 44.6125333,41.7721263 44.4088667,42.2137895 C44.2216667,42.6136737 44.0041333,42.9999158 43.8724,43.4330526 C43.8048,43.6521789 43.8741333,43.8823895 43.9096667,44.0870211 C43.9330667,44.2336737 43.9556,44.3811789 43.9772667,44.5269789 C44.1194,44.7631579 44.2632667,45.0010421 44.4054,45.2380737 C44.5865333,45.5160316 44.6801333,45.9304105 44.707,46.2748737 C44.7468667,46.8546632 44.6368,47.4122842 44.5952,47.9724632 C44.5614,48.4149789 44.5570667,48.9180316 44.5570667,49.4040316 C44.5570667,49.6393579 44.5276,49.9173158 44.7052667,50.0631158 C45.0996,50.3862632 45.6248,50.4766421 46.0867333,50.6795684 C46.1916,50.7486316 46.2973333,50.8194 46.4013333,50.8884632 C46.6396667,50.9984526 46.8936,51.0649579 47.1276,51.1860316 C47.3356,51.3275684 47.5436,51.4691053 47.7524667,51.6106421 C48.6555333,52.0770316 49.452,52.5920211 50.2034,53.3542737 C50.2701333,53.4216316 50.4850667,53.4830211 50.4850667,53.5478211 C50.6003333,53.6910632 50.7182,53.7703579 50.843,53.9076316 C50.9903333,54.0687789 51.1628,54.4158 51.3153333,54.6212842 C51.6195333,54.9683053 51.9228667,55.3161789 52.2270667,55.6623474 C52.4541333,55.9420105 52.5711333,56.2736842 52.7730667,56.5635789 C53.0816,57.0052421 53.4048667,57.4307053 53.7168667,57.8740737 C53.9543333,58.3157368 54.1909333,58.7565474 54.4284,59.1982105 C54.5688,59.3943158 54.7083333,59.5912737 54.8461333,59.7873789 C55.51,60.8557263 56.1426667,61.9922842 56.3376667,63.2712316 C56.4520667,64.0241053 56.3394,64.7820947 56.1799333,65.4727263 C56.0698667,65.9476421 55.9901333,66.4856526 55.7934,66.9222 C55.6339333,67.2709263 55.4216,67.5889579 55.2422,67.9342737 C55.1815333,68.0706947 55.1191333,68.2062632 55.0558667,68.3418316 C54.9856667,68.4151579 54.9154667,68.4884842 54.8461333,68.5626632 C54.6537333,68.8764316 54.5280667,69.2217474 54.3573333,69.5440421 C54.2455333,69.7145684 54.1346,69.8833895 54.0219333,70.0505053 C53.9578,70.2218842 53.8936667,70.3958211 53.8286667,70.5654947 C53.7524,70.6985053 53.677,70.8315158 53.6007333,70.9636737 C53.3702,71.4368842 53.1708667,71.9024211 52.9134667,72.3645474 C52.5442667,73.0185158 51.8942667,73.4755263 51.3881333,74.0254737 C51.1073333,74.3273053 50.843,74.7016105 50.5613333,75.0068526 C50.4686,75.0852947 50.3776,75.1628842 50.2848667,75.2413263 C50.1661333,75.3973579 50.0474,75.5516842 49.9286667,75.7060105 C49.5230667,76.0317158 48.8375333,76.1758105 48.2620667,76.0172211 C48.0124667,75.9490105 47.7810667,75.7938316 47.4864,75.9021158 C47.2966,75.9694737 47.2628,76.2158842 47.1414667,76.3471895 C46.8988,76.6004211 46.5486667,76.8630316 46.2375333,77.0216211 C45.9740667,77.1520737 45.4445333,77.2646211 45.1282,77.2543895 C44.9392667,77.2484211 44.7624667,77.1827684 44.5570667,77.1964105 C44.2615333,77.2578 43.9668667,77.3191895 43.6713333,77.3780211 C43.2501333,77.4027474 42.7587333,77.3865474 42.3618,77.3498842 C42.2422,77.3592632 42.1252,77.3712 42.0073333,77.3814316 C41.7490667,77.3694947 41.4908,77.3584105 41.2299333,77.3473263 C40.8442667,77.3200421 40.4490667,77.2066421 40.0348,77.1682737 C39.9299333,77.1571895 39.8008,77.112 39.6933333,77.1401368 C39.2695333,77.2398947 39.0268667,77.4897158 38.6958,77.7497684 C38.5467333,77.8461158 38.3968,77.9458737 38.2477333,78.0422211 C37.9478667,78.2869263 37.6506,78.5316316 37.3524667,78.7771895 C36.9113333,79.0849895 36.4936,79.4669684 36.0611333,79.7807368 C35.8774,79.9128947 35.7006,80.1149684 35.4848,80.1720947 C35.4146,80.19 35.3002,80.1652737 35.3002,80.2522421 C34.7758667,80.4364105 34.2385333,80.7152211 33.6786667,80.8132737 C33.1292,80.9079158 32.5164667,80.8166842 31.9713333,80.7749053 C31.5241333,80.7399474 31.0414,80.8004842 30.6436,80.6998737 C30.4295333,80.6436 30.0135333,80.4986526 29.8246,80.4006 C29.7206,80.3289789 29.6166,80.2573579 29.5126,80.1857368 C28.2507333,79.6289684 27.2168,78.7123895 26.0788667,77.9569579 C25.8795333,77.7847263 25.6793333,77.6107895 25.4774,77.4377053 C25.2954,77.3089579 25.1142667,77.1810632 24.9305333,77.0514632 C24.3845333,76.5637579 23.7787333,75.7998 22.9805333,75.8194105 C22.2664,75.8330526 22.2681333,76.5927474 22.035,77.0429368 C21.8850667,77.3243053 21.7134667,77.5553684 21.6025333,77.8572 C21.4647333,78.2289474 21.3113333,78.9127579 21.0903333,79.2145895 C21.0192667,79.3134947 20.9490667,79.4149579 20.878,79.5130105 C20.67,79.7099684 20.0572667,79.9956 19.7842667,80.1038842 C19.5710667,80.1652737 19.3578667,80.2283684 19.1455333,80.2889053 C19.0415333,80.3588211 18.9384,80.4295895 18.8344,80.4986526 C18.5882667,80.5566316 18.3412667,80.6171684 18.0925333,80.6742947 C17.9816,80.7237474 17.8715333,80.7732 17.7606,80.8235053 C16.1130667,81.3402 14.2445333,80.6103474 12.8648,80.0970632 C12.5398,80.0237368 12.2165333,79.9504105 11.8915333,79.8753789 C11.5665333,79.8225158 11.2432667,79.7696526 10.9182667,79.7150842 C10.8082,79.6792737 10.6972667,79.6443158 10.5854667,79.6076526 C10.4338,79.6161789 10.2847333,79.6247053 10.1330667,79.6306737 C9.6902,79.623 9.3886,79.4328632 9.0818,79.1813368 C8.81573333,78.9613579 8.86426667,78.6382105 8.8088,78.3133579 C8.72386667,78.0192 8.6398,77.7241895 8.55573333,77.4300316 C8.45606667,77.0565789 8.49506667,76.5603474 7.99846667,76.5143053 C6.93246667,76.4119895 5.93926667,76.7385474 5.02926667,77.1077368 C4.67826667,77.2484211 4.355,77.2978737 4.0612,77.5502526 C3.50306667,78.0260211 3.13646667,78.6168947 2.48473333,78.9596526 C2.25593333,79.0798737 1.90753333,79.1054526 1.69173333,78.975 C0.9932,78.5495368 0.758333333,77.2978737 0.4628,76.5961579 C0.297266667,76.2056526 0.0927333333,75.8799474 0.0182,75.4382842 C0.0112666667,75.2012526 0.00606666667,74.9650737 0,74.7271895 C0.0208,74.2522737 0.409933333,73.9692 0.409933333,73.4994 C0.510466667,73.4644421 0.5616,73.4482421 0.641333333,73.3715053 C0.685533333,73.2879474 0.729733333,73.2043895 0.7722,73.1216842 C0.913466667,72.9503053 1.05473333,72.7763684 1.19426667,72.6041368 C1.261,72.4702737 1.32773333,72.3372632 1.39186667,72.2034 C1.53226667,72.0448105 1.6718,71.8862211 1.8122,71.7259263 C1.8538,71.6415158 1.89626667,71.5571053 1.93873333,71.4726947 C2.03666667,71.3848737 2.13546667,71.2979053 2.23253333,71.2100842 C2.33826667,71.0549053 2.44573333,70.9014316 2.5506,70.7471053 C2.78373333,70.4717053 3.0472,70.1826632 3.172,69.8509895 C3.5568,68.8167474 3.14253333,67.3698316 2.93453333,66.3807789 C2.91633333,66.1633579 2.899,65.9459368 2.87906667,65.7268105 C2.73953333,64.9782 2.6546,64.2185053 2.5792,63.4212947 C2.57053333,63.3462632 2.47606667,63.1143474 2.59306667,63.1143474 L2.59306667,62.9617263 C2.47173333,62.8236 2.43273333,62.0494105 2.43273333,61.8354 C2.43273333,61.7757158 2.42406667,61.7842421 2.48906667,61.7842421 L2.48906667,61.6307684 C2.30446667,61.4227263 2.405,60.9861789 2.35993333,60.7133368 C2.33306667,60.5931158 2.30706667,60.4737474 2.28106667,60.3518211 L2.38506667,60.3518211 L2.38506667,60.1992 C2.1788,59.9664316 2.29406667,58.9748211 2.27153333,58.6124526 C2.24033333,58.4419263 2.21,58.2722526 2.17793333,58.1008737 C2.42406667,57.8007474 2.25593333,56.3691789 2.23253333,55.9471263 C2.249,55.7442 2.26546667,55.5412737 2.2802,55.3383474 C2.29146667,54.5803579 2.28106667,53.7763263 2.28106667,53.0882526 C2.48126667,52.8282 2.37033333,52.2535263 2.39373333,51.9107684 C2.41106667,51.6157579 2.46826667,51.3045474 2.50553333,50.9916316 C2.55233333,50.5772526 2.64073333,50.0392421 2.72393333,49.6137789 C2.7638,49.4927053 2.80453333,49.3707789 2.84526667,49.2497053 C2.85306667,49.1738211 2.80453333,49.0970842 2.90593333,49.0970842 C2.9952,48.5232632 3.16333333,47.9971895 3.3046,47.4557684 C3.35573333,47.2392 3.40773333,47.0234842 3.458,46.8060632 C3.536,46.6619684 3.614,46.5153158 3.692,46.3703684 C3.84453333,45.9355263 3.926,45.4896 4.07853333,45.0666947 C4.2198,44.6702211 4.49366667,44.3027368 4.73026667,43.9506 C4.79873333,43.8022421 4.86633333,43.6538842 4.9348,43.5046737 C5.19826667,43.0749474 5.5848,42.7245158 5.87426667,42.3126947 C6.032,42.0833368 6.16633333,41.8659158 6.3648,41.6570211 C6.60226667,41.4063474 6.8796,41.2025684 7.10233333,40.9450737 C7.27653333,40.7412947 7.50273333,40.6935474 7.72546667,40.5775895 C7.82773333,40.5 7.93,40.4215579 8.03226667,40.3422632 C8.37806667,40.1418947 8.72386667,39.9398211 9.07053333,39.7386 C9.18926667,39.7027895 9.30973333,39.6678316 9.4276,39.6328737 C9.6512,39.5322632 9.7968,39.3847579 10.0386,39.3054632 C10.1512667,39.2722105 10.2630667,39.2381053 10.3757333,39.2031474 C10.5456,39.0812211 10.7414667,38.9158105 10.7796,38.7069158 C10.8238,38.4690316 10.7657333,38.2499053 10.725,38.0427158 C10.6175333,37.5064105 10.4858,37.0417263 10.3670667,36.5173579 C10.3150667,36.3766737 10.2648,36.2376947 10.2128,36.0970105 C10.049,35.2315895 9.92073333,34.4548421 9.74133333,33.6013579 C9.69713333,33.5101263 9.6538,33.4206 9.60873333,33.3293684 C9.49606667,32.7990316 9.5238,32.2456737 9.43106667,31.7068105 C9.40506667,31.5584526 9.31926667,30.9871895 9.14506667,30.9871895 C9.2222,30.7433368 9.16673333,30.5745158 9.152,30.3212842 C9.1078,29.6536737 9.04193333,29.0721789 9.04193333,28.3781368 C9.04626667,27.3217263 9.0506,26.2653158 9.0558,25.2080526 C9.10953333,24.9846632 9.165,24.7604211 9.21873333,24.5353263 C9.23606667,24.2317895 9.25426667,23.9274 9.27073333,23.6221579 C9.31926667,23.2836632 9.477,22.9639263 9.5368,22.6441895 C9.65726667,21.9936316 9.82626667,21.3857053 10.0386,20.7914211 C10.1036,20.6072526 10.1278667,20.4299053 10.2197333,20.2619368 C10.6678,19.4229474 11.96,18.9957789 12.7608,18.6138 C13.4758,18.2701895 14.1994667,17.9743263 14.9292,17.6622632 C15.0262667,17.6196316 15.2290667,17.5710316 15.2290667,17.4303474 C15.3417333,17.4115895 15.4552667,17.3936842 15.5670667,17.3749263 C15.6632667,17.3109789 15.7603333,17.2470316 15.8565333,17.1813789 C15.9865333,17.1029368 16.5810667,16.9682211 16.5810667,16.8173053 L16.6330667,16.8173053 C16.6686,16.8573789 16.7379333,16.9622526 16.7379333,16.8676105 L16.7890667,16.8676105 C17.1106,16.6169368 19.1810667,15.9953684 19.1810667,15.7932947 L19.2330667,15.7932947 C19.3500667,15.8640632 19.8050667,15.9024316 19.8050667,15.6909789 L19.8570667,15.6909789 C19.9012667,15.7395789 19.9350667,15.7932947 20.0130667,15.7932947 C20.1985333,15.6099789 20.6630667,15.5886632 20.9490667,15.5886632 C21.0305333,15.3524842 21.268,15.3234947 21.4205333,15.1418842 C22.074,14.3489368 22.7023333,13.5312632 23.2717333,12.6956842 C23.3792,12.5771684 23.4875333,12.4586526 23.595,12.3392842 C23.7882667,11.9266105 23.6192667,11.4423158 23.5655333,11.0322 C23.5152667,10.6536316 23.4918667,10.3262211 23.4173333,9.96641053 C23.3636,9.80952632 23.3098667,9.65434737 23.257,9.49831579 C23.2535333,8.83496842 23.2518,8.17076842 23.2483333,7.50656842 C23.3393333,6.36318947 23.5542667,5.25050526 23.9165333,4.21285263 C24.0326667,3.87265263 24.0751333,3.55291579 24.2164,3.23317895 C24.3975333,2.87592632 24.5778,2.52037895 24.7563333,2.16312632 C24.8213333,2.01135789 24.8880667,1.85958947 24.9530667,1.70611579 C25.0865333,1.46993684 25.3170667,1.25848421 25.3170667,0.957505263 C25.3751333,0.938747368 25.4340667,0.919989474 25.4912667,0.898673684 C25.7296,0.765663158 25.9098667,0.598547368 26.1716,0.498789474 C26.3518667,0.470652632 26.5321333,0.441663158 26.7115333,0.412673684 C27.1258,0.317178947 27.5218667,0.273694737 27.9664667,0.225947368 C28.1164,0.208042105 28.2568,0.150915789 28.4258,0.179052632 C28.5003333,0.192694737 28.7490667,0.224242105 28.7490667,0.139831579 C28.8192667,0.147505263 29.0610667,0.238736842 29.0610667,0.139831579 C29.3418667,0.1296 29.6816,0.180757895 29.8930667,0.0375157895 L29.8930667,0.0375157895 Z" id="Fill-1" sketch:type="MSShapeGroup"></path>
        </g>
    </g>
</svg>