<?xml version="1.0" encoding="UTF-8" standalone="no"?>
<svg width="75px" height="95px" viewBox="0 0 75 95" version="1.1" xmlns="http://www.w3.org/2000/svg" xmlns:xlink="http://www.w3.org/1999/xlink" xmlns:sketch="http://www.bohemiancoding.com/sketch/ns">
    <!-- Generator: Sketch 3.0.1 (7597) - http://www.bohemiancoding.com/sketch -->
    <title>New Directions_black</title>
    <description>Created with Sketch.</description>
    <defs>
        <path id="path-1" d="M0.06,0.044 L74.506,0.044 L74.506,94.94 L0.06,94.94 L0.06,0.044 Z"></path>
    </defs>
    <g id="Page-1" stroke="none" stroke-width="1" fill="none" fill-rule="evenodd" sketch:type="MSPage">
        <g id="New-Directions_black" sketch:type="MSLayerGroup">
            <mask id="mask-2" sketch:name="Clip 2" fill="white">
                <use xlink:href="#path-1"></use>
            </mask>
            <g id="Clip-2"></g>
            <path d="M40.372,80.803 C40.227,80.902 40.083,81.002 39.937,81.1 C39.83,81.229 39.724,81.357 39.614,81.485 C39.361,81.736 39.085,81.954 38.827,82.197 C38.752,82.281 38.679,82.363 38.604,82.445 C38.294,82.676 37.919,82.869 37.646,83.121 C37.413,83.408 37.183,83.695 36.95,83.982 C36.515,84.432 36.123,84.949 35.624,85.354 C35.387,85.545 35.143,85.637 34.888,85.783 C34.503,86.023 34.121,86.264 33.736,86.501 C33.399,86.684 33.009,86.816 32.666,86.998 C32.274,87.202 31.855,87.279 31.445,87.438 C31.213,87.527 31.035,87.742 30.811,87.83 C30.38,87.997 29.328,87.943 29.257,88.547 C29.234,88.727 29.304,88.906 29.39,89.043 C29.613,89.398 29.949,89.576 30.238,89.855 C31.059,90.648 31.942,91.421 32.896,92.041 C33.095,92.154 33.294,92.267 33.493,92.377 C33.639,92.5 33.785,92.623 33.93,92.745 C34.276,92.902 34.625,93.063 34.972,93.219 C35.238,93.373 36.68,93.639 37.006,93.607 C37.091,93.598 37.132,93.613 37.132,93.523 C37.398,93.619 38.022,93.75 38.327,93.714 C38.489,93.656 38.652,93.598 38.815,93.537 C38.895,93.514 39.052,93.512 39.052,93.402 C39.121,93.422 39.292,93.525 39.292,93.402 C39.536,93.345 40.252,93.123 40.252,92.803 L40.372,92.803 C40.421,92.842 40.491,92.912 40.491,92.803 C40.851,92.705 41.015,92.443 41.3,92.244 C41.853,91.854 42.416,91.449 42.973,91.068 C43.441,90.746 43.847,90.326 44.285,89.984 C44.546,89.781 44.706,89.469 44.962,89.238 C45.272,88.953 45.647,88.719 45.948,88.421 C46.252,88.115 46.618,87.66 46.647,87.221 C46.708,86.317 45.753,85.469 45.19,84.924 C45.081,84.795 44.974,84.666 44.862,84.534 C44.706,84.43 44.552,84.324 44.394,84.217 C43.95,83.789 43.569,83.305 43.101,82.879 C42.763,82.614 42.425,82.352 42.085,82.088 C41.748,81.779 41.556,81.351 41.173,81.1 C40.942,80.947 40.642,80.863 40.372,80.803 L40.372,80.803 Z M17.092,75.764 C16.837,75.968 16.55,76.14 16.323,76.42 C16.247,76.571 16.17,76.723 16.093,76.873 C15.915,77.185 15.637,77.398 15.465,77.711 C15.159,78.26 14.827,78.838 14.516,79.385 C14.354,79.576 14.195,79.768 14.034,79.957 C13.806,80.355 13.579,80.752 13.35,81.148 C13.194,81.363 13.04,81.581 12.885,81.797 C12.808,81.971 12.731,82.146 12.652,82.318 C12.57,82.425 12.489,82.531 12.407,82.639 C12.187,82.995 12.084,83.445 11.955,83.846 C11.78,84.296 11.606,84.746 11.432,85.194 C11.246,85.757 11.214,86.362 11.134,86.979 C11.019,87.838 10.912,88.67 10.912,89.623 C10.912,90.281 10.877,91.32 11.208,91.796 C11.354,92.006 11.554,92.064 11.776,92.145 C12.028,92.171 12.279,92.197 12.528,92.222 C12.922,92.267 13.321,92.391 13.725,92.467 C14.179,92.552 14.646,92.705 15.075,92.87 C15.585,93.017 16.095,93.164 16.602,93.311 C16.886,93.438 17.169,93.564 17.452,93.689 C17.554,93.736 18.232,93.858 18.232,93.764 C18.667,93.776 19.076,93.911 19.55,93.866 C19.89,93.832 21.952,93.293 21.952,93.043 C22.035,93.058 22.192,93.156 22.192,93.043 C23.383,92.966 23.766,91.635 24.08,90.714 C24.182,90.408 24.283,90.104 24.382,89.797 C24.392,89.34 24.401,88.883 24.41,88.423 C24.399,87.82 24.241,87.253 24.093,86.73 C23.937,86.185 23.925,85.627 23.769,85.078 C23.675,84.828 23.581,84.581 23.488,84.332 C23.385,83.878 23.283,83.424 23.18,82.971 C23.09,82.659 22.892,82.377 22.822,82.056 C22.618,81.127 22.507,80.179 22.558,79.123 C22.58,78.632 22.7,78.163 22.659,77.623 C22.627,77.234 22.376,77.021 22.012,76.963 L22.012,76.903 C21.463,76.27 21.048,76.291 20.283,76.08 C20.158,76.027 20.032,75.977 19.905,75.924 C19.627,75.949 19.35,75.973 19.07,75.998 C18.382,76.007 17.722,75.909 17.092,75.764 L17.092,75.764 Z M38.332,70.004 C38.222,70.133 38.06,70.199 38.017,70.375 C37.906,70.804 38.071,71.211 38.079,71.623 C38.083,71.877 38.004,72.053 37.991,72.283 C37.96,72.738 38.136,73.543 38.692,73.543 C38.792,73.377 38.956,73.297 39.091,73.164 C39.419,72.834 39.772,72.23 39.772,71.743 C40.21,71.605 40.899,70.537 40.325,70.196 C39.823,69.898 38.978,70.004 38.332,70.004 L38.332,70.004 Z M47.212,62.383 C46.927,62.635 46.503,62.545 46.165,62.682 C46.009,62.768 45.853,62.854 45.695,62.939 C45.042,63.21 44.377,63.387 43.774,63.764 C43.437,63.973 43.152,64.343 42.866,64.631 C42.682,64.846 42.5,65.059 42.316,65.272 C42.087,65.717 41.913,66.059 41.941,66.641 C41.974,66.821 42.005,67.004 42.037,67.184 C42.06,67.453 42.082,67.723 42.104,67.991 C42.196,68.267 42.513,69.163 42.474,69.447 C42.38,70.103 41.79,70.697 41.708,71.324 C41.587,72.257 41.907,73.194 42.103,74.043 C42.106,74.146 42.112,74.25 42.116,74.354 C42.176,74.64 42.271,74.908 42.282,75.223 C42.298,75.734 42.157,76.252 42.078,76.727 C42.056,76.94 42.033,77.154 42.011,77.368 C41.842,78.024 41.421,78.707 41.573,79.421 C41.589,79.476 41.604,79.529 41.616,79.584 C41.658,79.701 41.796,79.771 41.884,79.879 C42.506,80.64 43.352,81.201 44.06,81.909 C44.475,82.314 44.889,82.719 45.304,83.125 C45.4,83.205 45.498,83.285 45.596,83.364 C45.823,83.64 46.05,83.916 46.274,84.189 C46.358,84.257 46.493,84.283 46.612,84.283 C46.621,84.341 46.631,84.399 46.638,84.457 C46.696,84.752 46.991,84.92 47.159,85.158 C47.54,85.699 47.907,86.248 48.022,86.927 C48.063,87.176 48.087,87.615 47.98,87.84 C47.799,88.213 47.371,88.574 47.503,89.068 C47.552,89.254 47.769,89.366 47.938,89.416 C48.009,89.438 48.292,89.564 48.292,89.443 C48.493,89.482 48.693,89.523 48.892,89.563 C48.981,89.492 49.252,89.546 49.252,89.443 C49.337,89.452 49.612,89.558 49.612,89.443 C50.191,89.439 50.771,89.438 51.35,89.434 C51.552,89.422 51.735,89.334 51.94,89.373 C52.005,89.385 52.012,89.403 52.012,89.322 C53.22,89.244 53.096,88.758 52.985,87.762 C52.929,87.345 52.874,86.929 52.818,86.51 C52.717,86.107 52.618,85.704 52.517,85.299 C52.421,84.67 52.401,84.1 52.362,83.443 C52.327,83.102 52.293,82.762 52.257,82.421 C52.25,82.02 52.36,81.738 52.368,81.344 C52.392,79.727 52.407,78.227 52.634,76.727 C52.7,76.445 52.767,76.164 52.833,75.881 C52.853,75.545 52.87,75.21 52.89,74.873 C52.972,74.533 53.101,74.195 53.179,73.836 C53.241,73.526 53.198,73.26 53.259,72.954 C53.304,72.83 53.349,72.707 53.392,72.583 C53.418,72.387 53.331,72.096 53.335,71.863 C53.356,71.664 53.377,71.466 53.396,71.267 C53.351,70.473 53.204,69.697 53.063,68.927 C53.015,68.783 52.968,68.639 52.919,68.492 C52.849,67.997 52.778,67.502 52.708,67.007 C52.606,66.399 52.372,65.771 52.372,65.143 C51.933,64.977 51.706,64.121 51.472,63.742 C50.593,62.319 48.767,62.432 47.212,62.383 L47.212,62.383 Z M51.532,60.104 C51.438,60.199 51.345,60.295 51.249,60.391 C51.089,60.67 51.125,61.387 51.217,61.704 C51.282,61.934 51.431,62.025 51.581,62.201 C51.628,62.278 51.675,62.357 51.72,62.434 C51.812,62.517 51.903,62.604 51.995,62.689 C52.052,62.795 52.109,62.902 52.165,63.01 C52.331,63.225 52.548,63.375 52.696,63.604 C52.778,63.789 52.86,63.975 52.943,64.158 C53.251,64.773 53.501,65.387 53.703,66.061 C53.774,66.298 53.784,66.591 53.844,66.828 C53.974,67.361 54.125,67.918 54.206,68.447 C54.223,68.664 54.239,68.882 54.255,69.098 C54.399,69.969 54.693,70.887 54.708,71.803 C54.696,72.078 54.687,72.355 54.677,72.632 C54.634,72.797 54.59,72.964 54.545,73.129 C54.502,73.451 54.5,73.755 54.438,74.074 C54.374,74.336 54.313,74.601 54.249,74.863 C54.144,75.797 54.101,76.712 54.071,77.619 C54.022,77.941 53.974,78.264 53.923,78.587 C53.901,78.86 53.995,79.125 53.978,79.421 C53.927,79.645 53.876,79.869 53.823,80.092 C53.712,80.971 53.798,81.926 53.757,82.844 C53.743,83.156 53.784,83.467 53.812,83.748 C53.894,84.589 53.769,85.969 54.307,86.609 C54.425,86.692 54.545,86.775 54.663,86.855 C54.774,86.976 54.886,87.096 54.997,87.214 C55.156,87.287 55.315,87.359 55.474,87.432 C55.845,87.617 56.225,87.883 56.691,87.883 C56.911,87.666 57.13,87.447 57.35,87.229 C57.763,86.768 58.11,86.264 58.495,85.791 C58.845,85.357 59.247,84.988 59.624,84.583 C59.743,84.375 59.862,84.168 59.98,83.961 C60.28,83.494 60.614,82.965 60.831,82.453 C60.96,82.147 61.014,81.842 61.175,81.555 C61.511,80.947 61.968,80.402 62.327,79.804 C62.868,78.902 63.228,77.889 63.507,76.855 C63.588,76.629 63.669,76.402 63.749,76.176 C63.749,76.043 63.751,75.909 63.751,75.774 C63.816,75.416 63.969,74.949 63.916,74.568 C63.818,74.264 63.721,73.957 63.622,73.652 C63.55,73.408 63.479,73.166 63.408,72.922 C63.038,72.285 62.671,71.647 62.302,71.008 C62.098,70.608 61.951,70.192 61.737,69.799 C61.634,69.611 61.458,69.506 61.335,69.33 C61.276,69.182 61.218,69.035 61.16,68.887 C60.81,68.348 60.485,67.802 60.132,67.273 C59.714,66.646 59.135,66.108 58.673,65.505 C58.366,65.104 58.04,64.682 57.733,64.271 C57.612,64.158 57.491,64.047 57.366,63.932 C57.009,63.52 56.691,63.041 56.298,62.66 C55.807,62.185 55.128,61.865 54.573,61.49 C53.642,60.86 52.743,60.178 51.532,60.104 L51.532,60.104 Z M47.092,51.823 C46.713,52.159 45.544,52.129 44.993,52.201 C44.425,52.275 43.87,52.539 43.346,52.729 C42.821,52.916 42.08,52.936 41.616,53.203 C41.385,53.336 41,53.693 40.897,53.94 C40.631,54.563 40.771,55.307 40.835,55.963 C40.843,56.521 40.853,57.082 40.859,57.641 C40.96,58.221 41.063,58.802 41.165,59.381 C41.191,59.877 41.167,60.35 41.259,60.836 C41.259,60.926 41.261,61.018 41.261,61.107 C41.319,61.414 41.379,61.72 41.437,62.023 C41.477,62.52 41.448,63.057 41.724,63.438 C41.776,63.508 42.052,63.615 42.052,63.463 C42.119,63.499 42.202,63.583 42.292,63.583 C42.44,63.152 43.095,62.887 43.454,62.684 C43.651,62.554 43.851,62.424 44.047,62.293 C44.688,61.965 45.366,61.742 46.036,61.482 C46.389,61.402 46.741,61.324 47.092,61.243 C47.212,61.191 47.692,61.209 47.692,61.063 C47.765,61.084 47.932,61.188 47.932,61.063 C48.364,61.063 48.8,61.082 49.194,61.121 C49.269,61.129 49.252,61.133 49.252,61.063 C49.394,61.037 49.537,61.011 49.679,60.982 C50.296,60.632 50.212,58.756 50.212,58.063 C50.442,57.778 50.313,57.124 50.343,56.743 C50.481,54.949 50.763,53.773 49.429,52.484 C49.237,52.301 49.056,52.041 48.77,52.013 C48.679,52.004 48.651,52.043 48.651,51.943 C48.2,51.787 47.634,51.823 47.092,51.823 L47.092,51.823 Z M12.472,47.023 C12.308,47.158 12.017,47.194 11.825,47.286 C11.469,47.498 11.113,47.709 10.755,47.921 C10.594,47.993 10.433,48.064 10.271,48.133 C10.119,48.256 9.969,48.377 9.817,48.497 C9.667,48.6 9.452,48.602 9.304,48.713 C8.441,49.347 7.753,50.282 7.155,51.135 C6.977,51.35 6.801,51.563 6.622,51.776 C4.639,55.345 3.862,59.709 3.78,64.182 C3.759,64.343 3.738,64.504 3.716,64.663 C3.71,65.162 3.705,65.662 3.697,66.161 C3.667,66.361 3.638,66.563 3.607,66.762 C3.638,66.941 3.667,67.123 3.697,67.303 C3.71,67.528 3.639,67.75 3.654,67.951 C3.692,68.236 3.729,68.521 3.767,68.807 C3.782,69.053 3.705,69.31 3.718,69.581 C3.752,69.803 3.787,70.023 3.821,70.243 C3.874,71.096 3.905,71.797 3.96,72.641 C3.997,73.241 4.144,73.903 4.181,74.504 C4.188,74.783 4.198,75.063 4.206,75.342 C4.27,75.623 4.335,75.906 4.398,76.188 C4.412,76.545 4.427,76.903 4.44,77.262 C4.474,77.816 4.627,78.43 4.753,78.952 C4.775,79.207 4.798,79.463 4.818,79.716 C4.877,80.057 5.014,80.368 5.026,80.743 C5.057,81.709 4.672,82.217 4.231,82.924 C4.159,83.081 4.085,83.24 4.013,83.398 C3.815,83.68 3.621,83.961 3.424,84.24 C3.294,84.416 3.081,84.545 2.938,84.703 C2.861,84.828 2.784,84.956 2.706,85.082 C2.468,85.431 2.216,85.818 1.98,86.16 C1.633,86.654 1.146,87.135 1.087,87.764 C1.001,88.659 1.357,89.173 1.631,89.878 C1.798,90.311 1.924,90.986 2.426,91.168 C2.713,91.271 2.896,91.001 3.108,90.883 C3.351,90.746 3.469,90.532 3.645,90.338 C4.391,89.503 3.549,88.678 3.283,87.924 C3.157,87.57 3.088,86.91 3.122,86.503 C3.143,86.216 3.27,85.881 3.418,85.653 C3.52,85.494 3.952,85.339 3.952,85.123 C4.087,85.188 4.303,85.291 4.361,85.447 C4.457,85.712 4.192,86.132 4.206,86.501 C4.226,87.199 4.678,88.443 5.216,88.883 C5.393,88.955 5.568,89.031 5.743,89.104 C5.824,89.13 5.895,89.203 5.992,89.203 L5.992,89.083 C6.296,88.975 6.508,89.083 6.832,89.083 C6.887,88.875 7.054,88.604 7.312,88.604 C7.162,88.207 7.192,87.705 7.192,87.283 C6.681,86.935 6.33,85.268 6.521,84.596 C6.579,84.385 6.705,84.232 6.866,84.078 C6.992,83.955 7.11,83.846 7.309,83.857 C7.764,83.88 7.478,84.445 7.47,84.703 C7.464,84.852 7.53,84.928 7.563,85.043 C7.56,85.149 7.556,85.256 7.552,85.363 C8.208,85.8 8.075,88.243 9.232,88.243 C9.244,88.207 9.255,88.172 9.264,88.135 C9.341,87.909 9.587,87.799 9.66,87.566 C9.684,87.293 9.708,87.019 9.731,86.745 C9.785,86.31 10.132,85.492 10.011,85.082 C9.984,85 9.934,84.883 9.832,84.883 C9.954,84.264 9.42,83.613 9.165,83.115 C9.043,82.877 9.035,82.635 8.934,82.389 C8.766,81.984 8.395,81.536 8.344,81.094 C8.36,80.996 8.377,80.9 8.393,80.803 C8.083,80.591 7.896,80.127 7.753,79.8 C7.627,79.602 7.504,79.404 7.378,79.205 C7.11,78.699 7.115,78.102 7.018,77.512 C6.995,77.409 6.975,77.307 6.952,77.203 C7.185,76.813 6.941,76.123 6.995,75.711 C7.149,74.498 7.19,73.327 7.329,72.105 C7.438,71.644 7.547,71.183 7.653,70.721 C7.669,70.443 7.684,70.166 7.697,69.887 C7.757,69.683 7.816,69.479 7.877,69.273 C7.899,69.1 7.924,68.927 7.946,68.752 C8.038,68.464 8.132,68.175 8.224,67.885 C8.257,67.678 8.291,67.473 8.323,67.266 C8.546,66.574 8.888,65.9 9.178,65.236 C9.296,64.965 9.302,64.66 9.401,64.382 C9.526,64.146 9.652,63.912 9.778,63.675 C10.076,63.041 10.322,62.387 10.592,61.74 C10.719,61.504 10.849,61.268 10.976,61.029 C11.169,60.695 11.287,60.298 11.426,59.937 C11.568,59.556 11.842,59.223 12.049,58.863 C12.127,58.689 12.206,58.517 12.285,58.343 C12.53,57.977 12.832,57.721 12.832,57.223 C13.456,57.008 13.721,56.191 14.053,55.678 C14.143,55.58 14.235,55.482 14.325,55.386 C14.585,54.902 14.653,54.304 14.782,53.751 C14.865,53.449 14.947,53.146 15.03,52.844 C15.058,52.422 14.934,51.87 14.835,51.473 C14.743,51.3 14.651,51.128 14.558,50.955 C14.484,50.775 14.413,50.596 14.34,50.415 C14.253,50.258 14.167,50.102 14.079,49.945 C13.967,49.641 13.961,49.33 13.869,49.018 C13.773,48.701 13.606,48.441 13.528,48.109 C13.468,47.861 13.307,47.357 13.016,47.333 C12.945,47.325 12.952,47.334 12.952,47.263 C12.793,47.183 12.634,47.104 12.472,47.023 L12.472,47.023 Z M51.651,45.943 C51.494,46.12 51.402,46.063 51.172,46.063 C50.999,46.314 50.687,46.345 50.519,46.59 C50.142,47.136 49.938,47.775 49.69,48.385 C49.443,48.986 48.892,49.563 48.892,50.264 C49.116,50.334 49.229,50.623 49.491,50.623 C49.535,50.473 49.608,50.426 49.679,50.297 C49.806,50.021 49.931,49.746 50.056,49.471 C50.259,48.932 51.038,46.543 51.651,46.543 C51.698,46.3 51.907,46.1 51.651,45.943 L51.651,45.943 Z M43.132,44.383 L43.252,44.383 C43.218,44.453 43.218,44.503 43.132,44.503 L43.132,44.383 L43.132,44.383 Z M28.252,41.983 C28.005,42.673 28.295,43.182 28.474,43.787 C28.62,44.315 28.766,44.845 28.91,45.371 C29.002,45.506 29.094,45.642 29.185,45.774 C29.42,46.255 29.654,46.736 29.874,47.229 C30.052,47.637 30.149,48.098 30.337,48.499 C30.427,48.597 30.519,48.693 30.609,48.789 C30.894,49.211 31.123,49.678 31.421,50.102 C31.674,50.364 31.927,50.627 32.18,50.889 C32.401,51.15 32.623,51.41 32.842,51.67 C33.155,51.982 33.528,52.241 33.858,52.571 C33.986,52.725 34.113,52.879 34.239,53.033 C34.556,53.35 35.486,54.104 35.932,54.104 C35.99,54.032 36.048,53.963 36.104,53.891 C36.345,53.309 35.784,51.699 35.602,51.152 C35.33,50.338 35.161,49.498 34.8,48.732 C34.37,47.824 33.84,46.926 33.241,46.103 C33.035,45.878 32.829,45.652 32.623,45.426 C32.33,45.015 31.929,44.554 31.548,44.217 C31.435,44.146 31.325,44.074 31.213,44.003 C30.665,43.474 30.073,42.799 29.415,42.397 C29.057,42.178 28.629,42.148 28.252,41.983 L28.252,41.983 Z M42.292,40.063 L42.292,40.184 C42.363,40.149 42.412,40.153 42.412,40.063 L42.292,40.063 L42.292,40.063 Z M28.132,31.063 C27.699,31.44 27.029,31.178 26.583,31.731 C26.319,32.054 26.396,32.382 26.293,32.792 C26.115,33.488 25.942,34.18 25.771,34.853 C25.743,35.044 25.715,35.237 25.685,35.428 C25.562,35.68 25.439,35.931 25.316,36.182 C25.153,36.372 24.991,36.561 24.828,36.75 C24.667,36.893 24.463,36.957 24.33,37.149 C23.381,38.498 22.314,39.793 21.352,41.142 C21.061,41.606 20.773,42.073 20.482,42.538 C20.366,42.801 20.25,43.063 20.132,43.326 C19.708,44.091 19.32,44.818 18.969,45.623 C18.879,45.756 18.789,45.889 18.699,46.022 C18.53,46.435 18.394,46.877 18.217,47.284 C18.182,47.364 18.124,47.743 18.052,47.743 C17.956,47.976 17.821,48.188 17.739,48.42 C17.593,48.97 17.446,49.521 17.3,50.07 C16.944,51.176 16.563,52.307 16.188,53.406 C16.157,53.613 16.125,53.822 16.093,54.03 C15.971,54.487 15.815,54.973 15.588,55.382 C15.508,55.486 15.427,55.594 15.345,55.699 C15.184,55.987 15.022,56.276 14.861,56.565 C14.486,57.057 14.107,57.566 13.794,58.101 C13.672,58.354 13.55,58.607 13.429,58.859 C13.211,59.129 12.994,59.396 12.774,59.662 C12.448,60.204 12.314,60.814 12.058,61.393 C11.818,61.854 11.578,62.316 11.336,62.777 C11.222,63.141 11.109,63.504 10.995,63.868 C10.858,64.234 10.643,64.564 10.486,64.928 C10.147,65.707 9.962,66.535 9.66,67.337 C9.452,67.89 9.244,68.443 9.034,68.994 C8.972,69.39 8.912,69.785 8.85,70.18 C8.782,70.4 8.715,70.622 8.647,70.844 C8.632,71.081 8.619,71.319 8.604,71.558 C8.539,71.92 8.473,72.281 8.405,72.643 C8.244,74.666 8.077,77.215 8.537,79.115 C8.63,79.383 8.726,79.652 8.82,79.92 C8.941,80.081 9.063,80.242 9.186,80.402 C9.261,80.646 9.335,80.889 9.41,81.131 C9.534,81.351 9.658,81.57 9.782,81.789 C9.922,82.06 10.303,82.844 10.672,82.844 C10.738,82.773 10.806,82.704 10.871,82.635 C11.025,82.372 11.179,82.109 11.33,81.848 C11.512,81.527 11.604,81.148 11.805,80.837 C11.968,80.613 12.133,80.391 12.296,80.166 C12.412,79.949 12.528,79.736 12.644,79.521 C12.894,79.139 13.312,78.793 13.312,78.283 C13.674,78.17 13.689,77.684 14.032,77.684 C13.995,77.152 15.063,75.846 15.485,75.426 C15.596,75.313 16.372,74.647 16.372,74.623 L16.432,74.623 C16.474,74.67 16.552,74.793 16.552,74.684 L16.612,74.684 C16.933,74.644 17.253,74.604 17.572,74.563 L17.572,74.504 C17.69,74.56 18.232,74.747 18.232,74.684 L18.292,74.684 C18.545,74.588 18.879,74.692 19.134,74.723 C19.824,74.799 20.415,74.839 21.039,75.024 C21.131,75.071 21.225,75.12 21.316,75.166 C21.543,75.236 21.772,75.306 21.999,75.375 C22.186,75.471 22.374,75.568 22.561,75.664 C22.641,75.685 22.792,75.656 22.792,75.764 C23.208,76.249 23.79,76.59 23.996,77.222 C24.125,77.621 24.013,78.125 23.955,78.525 C23.951,78.864 23.947,79.203 23.941,79.541 C23.972,79.702 24.001,79.863 24.031,80.025 C24.048,80.362 24.065,80.699 24.082,81.035 C24.225,81.801 24.495,82.607 24.697,83.346 C24.701,83.475 24.705,83.604 24.706,83.733 C24.751,84.059 24.817,84.387 24.926,84.689 C25.023,84.962 25.078,85.237 25.179,85.524 C25.231,85.633 25.284,85.742 25.335,85.851 C25.494,86.501 25.494,87.12 26.085,87.531 C26.165,87.585 26.572,87.697 26.572,87.523 C26.642,87.541 26.812,87.645 26.812,87.523 L27.412,87.523 C27.495,87.336 27.772,87.365 27.772,87.283 C28.316,87.247 28.728,87.047 29.216,86.951 C29.559,86.882 29.893,86.863 30.219,86.764 C30.858,86.486 31.498,86.211 32.135,85.934 C32.458,85.77 32.774,85.616 33.095,85.453 C33.402,85.293 33.62,85.003 34.012,85.003 C34.104,84.74 34.612,84.572 34.612,84.403 C34.682,84.44 34.764,84.523 34.852,84.523 C34.955,84.072 35.44,83.813 35.744,83.5 C36.005,83.226 36.046,82.793 36.335,82.531 C36.584,82.305 36.826,82 37.1,81.801 C37.338,81.625 37.575,81.508 37.812,81.347 C38.124,81.065 38.437,80.784 38.748,80.502 C38.87,80.342 38.991,80.183 39.112,80.021 C39.358,79.766 39.651,79.522 39.651,79.123 C39.798,79.082 39.983,78.883 40.132,78.883 C40.054,78.482 40.542,77.867 40.681,77.484 C40.839,77.041 41.143,74.211 40.878,73.867 C40.378,73.217 39.638,74.539 39.142,74.737 C38.823,74.863 38.274,74.814 37.912,74.786 C37.823,74.779 37.492,74.768 37.492,74.684 C37.233,74.541 36.975,74.4 36.716,74.258 C36.298,73.871 36.043,73.367 35.807,72.885 C35.662,72.658 35.518,72.432 35.373,72.204 C35.184,71.771 35,71.35 34.813,70.92 C34.569,70.365 34.258,69.803 33.954,69.283 C33.635,68.739 33.404,68.125 33.118,67.566 C33.048,67.361 32.979,67.158 32.908,66.954 C32.735,66.583 32.562,66.214 32.39,65.843 C32.317,65.737 32.244,65.633 32.171,65.525 C32.008,65.087 31.845,64.65 31.68,64.211 C31.55,63.913 31.355,63.493 31.085,63.281 C30.877,63.118 30.678,63.043 30.474,62.861 C30.202,62.594 29.932,62.326 29.66,62.059 C29.533,61.965 29.405,61.871 29.278,61.775 C28.751,61.348 28.301,60.803 27.885,60.289 C27.705,60.094 27.524,59.9 27.343,59.705 C27.192,59.504 27.007,59.311 26.866,59.104 C26.754,58.907 26.642,58.71 26.529,58.514 C26.45,58.438 26.372,58.363 26.291,58.287 C26.154,58.135 25.899,57.725 25.794,57.544 C25.509,57.059 25.247,56.539 24.963,56.053 C24.687,55.58 24.296,55.135 24.099,54.625 C24.029,54.403 23.96,54.184 23.891,53.963 C23.88,53.861 23.868,53.76 23.857,53.657 C23.593,52.987 23.439,52.324 23.302,51.589 C23.21,51.096 23.002,50.611 22.987,50.081 C22.979,49.844 23.064,49.127 23.171,48.956 C23.255,48.816 23.572,48.634 23.572,48.583 C23.85,48.717 24,48.93 24.108,49.209 C24.142,49.457 24.176,49.705 24.21,49.951 C24.446,50.951 24.543,52.029 24.798,53.016 C24.892,53.203 24.988,53.392 25.081,53.58 C25.123,53.751 25.164,53.924 25.203,54.094 C25.451,54.561 25.698,55.027 25.946,55.492 C26.015,55.658 26.085,55.822 26.152,55.985 C26.968,57.444 28.085,58.789 29.248,60.068 C29.401,60.238 29.613,60.348 29.778,60.497 C29.93,60.664 30.082,60.832 30.232,61 C30.51,61.223 30.787,61.445 31.064,61.668 C31.35,61.899 31.527,62.205 31.768,62.468 C31.995,62.717 32.285,62.891 32.506,63.158 C32.72,63.414 32.731,63.738 32.876,64.025 C33.073,64.422 33.328,64.81 33.483,65.221 C33.637,65.627 33.708,66.017 33.975,66.371 C34.095,66.531 34.105,66.675 34.169,66.868 C34.265,67.076 34.361,67.286 34.456,67.494 C34.526,67.701 34.595,67.906 34.665,68.113 C34.841,68.5 35.934,70.545 36.301,70.588 C36.425,70.602 36.532,70.553 36.583,70.449 C36.614,70.241 36.646,70.035 36.678,69.826 C36.804,69.066 36.869,68.293 36.896,67.482 C36.934,67.201 36.971,66.922 37.006,66.641 C37.078,64.355 37.04,62.087 37.006,59.863 C37.001,59.568 36.913,59.354 36.901,59.081 C36.892,58.723 36.883,58.365 36.871,58.006 C36.83,57.688 36.701,57.32 36.714,56.984 C36.732,56.904 36.753,56.824 36.772,56.743 C36.513,56.574 36.491,56.305 36.347,56.066 C36.223,55.861 35.936,55.652 35.748,55.498 C35.422,55.335 35.098,55.172 34.771,55.009 C34.505,54.805 34.241,54.6 33.975,54.394 C33.738,54.242 33.502,54.09 33.264,53.938 C33.172,53.813 33.082,53.688 32.99,53.562 C32.762,53.307 32.516,53.089 32.272,52.846 C32.064,52.654 31.855,52.463 31.647,52.271 C31.393,51.943 31.14,51.617 30.885,51.289 C30.577,50.92 30.245,50.631 29.999,50.234 C29.861,50.012 29.605,49.826 29.48,49.588 C29.21,49.082 29.034,48.583 28.807,48.062 C28.723,47.942 28.639,47.824 28.554,47.704 C28.272,47.213 28.055,46.671 27.825,46.155 C27.746,45.885 27.667,45.617 27.588,45.347 C27.228,44.567 25.94,40.911 27.011,40.341 C27.607,40.022 28.385,40.423 28.894,40.695 C29.053,40.823 29.212,40.952 29.37,41.08 C29.935,41.428 30.566,41.822 31.076,42.279 C31.385,42.564 31.696,42.85 32.006,43.135 C33.121,43.995 34.081,45.124 34.76,46.345 C34.852,46.463 34.944,46.581 35.036,46.699 C35.232,47.033 35.432,47.368 35.628,47.702 C35.715,47.822 35.801,47.942 35.885,48.062 C36.114,48.585 36.256,49.16 36.446,49.708 C36.62,50.117 36.794,50.525 36.969,50.935 C37.059,51.238 37.083,51.555 37.168,51.87 C37.246,52.172 37.364,52.443 37.447,52.734 C37.472,52.948 37.496,53.164 37.519,53.378 C37.58,53.621 37.642,53.865 37.702,54.107 C37.727,54.465 37.75,54.823 37.774,55.18 C37.823,55.892 37.981,56.6 38.071,57.285 C38.079,57.984 38.087,58.684 38.094,59.381 C38.1,59.801 38.21,60.137 38.21,60.583 C38.214,60.962 38.218,61.343 38.222,61.721 C38.253,61.922 38.285,62.123 38.317,62.323 C38.368,63.41 38.345,64.643 38.328,65.803 C38.313,66.646 37.987,67.764 38.399,68.521 C38.411,68.537 38.424,68.552 38.435,68.566 C38.776,68.839 40.244,69.028 40.679,68.783 C40.851,68.686 40.931,68.445 40.95,68.26 C40.994,67.787 40.806,67.369 40.751,66.939 C40.735,66.581 40.721,66.225 40.704,65.867 C40.646,65.703 40.589,65.543 40.531,65.379 C40.544,65.223 40.558,65.064 40.571,64.907 C40.503,64.135 40.401,63.334 40.302,62.554 C40.226,61.963 40.272,61.32 40.177,60.725 C40.126,60.476 40.075,60.229 40.024,59.98 C39.931,59.016 39.942,58.153 39.881,57.163 C39.86,56.861 39.792,56.52 39.751,56.205 C39.718,56.064 39.686,55.924 39.651,55.783 C39.791,55.592 39.457,54.084 39.425,53.741 C39.427,52.844 39.431,51.945 39.433,51.045 C39.536,50.244 40.122,49.213 40.649,48.617 C40.892,48.385 41.134,48.152 41.375,47.919 C41.419,47.831 41.463,47.745 41.507,47.657 C41.819,47.158 42.046,46.794 42.14,46.178 C42.217,45.658 41.937,45.397 41.837,44.975 C41.511,43.624 41.03,42.334 40.533,41.066 C40.423,40.785 40.417,40.495 40.315,40.204 C40.128,39.673 39.896,39.186 39.896,38.562 C39.896,38.301 39.833,37.838 40.101,37.734 C40.739,37.479 40.979,38.383 41.572,38.383 C41.667,38.25 41.763,38.117 41.858,37.984 C41.903,37.718 41.948,37.451 41.991,37.184 C41.981,36.64 41.564,36.139 41.371,35.667 C41.263,35.4 41.212,35.115 41.042,34.881 C40.952,34.828 40.863,34.776 40.772,34.722 C40.222,34.569 39.235,35.317 38.776,35.556 C38.654,35.593 38.532,35.631 38.409,35.668 C38.145,35.77 37.983,35.946 37.67,35.972 C37.43,36.002 37.192,36.032 36.952,36.061 C36.609,36.053 36.298,35.865 35.98,35.785 C35.767,35.76 35.553,35.736 35.338,35.711 C34.989,35.64 34.647,35.505 34.301,35.425 C34.064,35.408 33.828,35.391 33.592,35.372 C33.221,35.348 32.85,35.278 32.452,35.248 C32.092,35.179 31.732,35.109 31.37,35.038 C31.052,35.029 30.732,35.02 30.412,35.008 C30.232,34.984 30.052,34.959 29.872,34.934 C29.679,34.942 29.489,35.014 29.272,35.008 C29.111,34.986 28.951,34.963 28.79,34.939 C28.625,34.936 28.449,35.008 28.293,34.939 C28.166,34.881 28.001,34.71 27.967,34.581 C27.8,33.943 28.849,34.101 29.036,33.735 C29.336,33.146 29.047,32.68 28.927,32.125 C28.861,31.83 28.854,31.637 28.684,31.397 C28.571,31.24 28.293,31.149 28.132,31.063 L28.132,31.063 Z M51.412,29.863 C51.065,30.167 48.547,30.418 47.931,30.448 C47.518,30.467 47.138,30.372 46.763,30.523 C46.288,30.713 46.064,31.092 45.765,31.476 C45.165,32.239 44.552,32.921 44.065,33.747 C43.895,33.962 43.725,34.178 43.552,34.392 C43.299,34.909 43.179,35.529 43.079,36.12 C43.038,36.354 43.158,36.564 43.208,36.772 C43.304,37.178 43.325,37.753 43.229,38.136 C43.175,38.284 43.12,38.434 43.066,38.582 C42.927,38.818 42.412,39.33 42.412,39.583 L42.651,39.583 C42.755,39.521 42.86,39.459 42.963,39.397 C43.128,39.277 43.171,39.067 43.319,38.938 C43.466,38.807 43.663,38.738 43.82,38.592 C44.45,37.942 45.08,37.294 45.71,36.644 C45.869,36.521 46.028,36.401 46.186,36.279 C46.269,36.163 46.352,36.047 46.436,35.929 C46.569,35.841 46.702,35.753 46.833,35.663 C47.011,35.46 47.189,35.258 47.366,35.055 C47.571,34.832 47.802,34.705 48.013,34.504 C48.112,34.384 48.212,34.264 48.309,34.142 C48.647,33.801 49.087,33.514 49.429,33.161 C49.511,33.047 49.595,32.933 49.677,32.818 C49.771,32.768 49.864,32.717 49.956,32.665 C50.193,32.476 50.358,32.144 50.692,32.144 C50.759,31.889 50.919,31.83 51.093,31.645 C51.261,31.431 51.427,31.217 51.592,31.003 C51.777,30.816 52.491,30.354 52.491,30.104 C52.438,30.053 52.452,30.043 52.372,30.043 L52.372,29.983 C52.31,30.021 52.192,30.15 52.192,30.043 C52.118,29.995 52.012,29.961 52.012,29.863 C51.794,29.94 51.641,29.899 51.412,29.863 L51.412,29.863 Z M31.252,17.323 C31.164,17.323 31.158,17.374 31.132,17.443 C31.265,17.443 31.334,17.637 31.455,17.684 C31.68,17.723 31.904,17.76 32.13,17.8 C32.321,17.871 32.411,18.102 32.585,18.199 C33.088,18.477 33.879,18.291 34.332,18.038 C34.762,17.796 35.368,17.226 34.949,16.679 C34.822,16.512 34.616,16.429 34.453,16.328 C34.396,16.283 34.338,16.236 34.282,16.189 C33.913,16.127 33.541,16.065 33.172,16.003 C32.664,16.425 31.445,16.592 31.252,17.323 L31.252,17.323 Z M36.129,5.485 C35.805,5.657 35.478,5.828 35.154,5.998 C35.055,6.094 34.953,6.188 34.852,6.284 C34.852,6.568 35.169,6.715 35.137,6.992 C35.062,7.626 33.892,7.049 33.581,7.461 C33.227,7.926 33.355,8.789 33.052,9.164 C33.125,9.424 33.196,9.685 33.268,9.945 C33.262,10.165 33.256,10.384 33.251,10.604 C33.414,11.258 33.474,14.168 34.524,13.874 C34.601,13.851 34.657,13.774 34.68,13.706 C34.854,13.148 34.544,12.615 34.441,12.137 C34.327,11.62 34.169,11.085 34.145,10.542 C34.164,10.283 34.183,10.022 34.201,9.764 C34.201,9.207 34.078,8.809 34.295,8.28 C34.411,7.994 34.642,7.997 34.89,8.125 C35.234,8.301 35.178,8.725 35.475,8.956 C36.155,9.484 38.122,8.775 38.624,8.254 C38.884,7.984 39.243,6.908 38.952,6.554 C38.819,6.393 38.495,6.383 38.424,6.183 C38.421,6.139 38.415,6.096 38.411,6.053 C38.433,5.832 38.66,5.708 38.647,5.445 C38.628,5.083 38.1,4.984 37.853,5.204 C37.732,5.164 37.612,5.123 37.492,5.083 C37.14,5.376 36.54,5.311 36.129,5.485 L36.129,5.485 Z M34.852,0.884 C34.519,1.153 33.787,0.943 33.361,1.041 C32.774,1.174 32.084,1.155 31.498,1.275 C31.333,1.335 31.17,1.395 31.005,1.454 C30.734,1.512 30.442,1.53 30.213,1.671 C29.927,1.844 29.805,2.217 29.662,2.487 C29.059,3.621 28.492,4.718 28.492,6.164 C28.593,6.152 28.852,6.175 28.852,6.044 C28.972,6.083 29.092,6.124 29.212,6.164 C29.362,6.021 30.052,6.072 30.052,5.924 C30.14,5.952 30.532,6.098 30.532,5.924 C30.607,5.956 30.652,5.946 30.652,6.044 C30.922,6.233 30.836,6.521 30.948,6.799 C31.042,7.032 31.252,7.065 31.252,7.363 C31.515,7.363 32.114,7.279 32.272,7.472 C32.626,7.907 32.336,8.53 32.352,9.042 C32.379,9.203 32.405,9.364 32.432,9.523 C32.465,10.634 32.334,11.901 32.595,12.996 C32.642,13.196 32.866,13.785 33.031,13.909 C33.165,14.009 34.612,14.299 33.924,14.759 C33.783,14.834 33.644,14.908 33.504,14.983 C33.182,15.122 32.988,15.042 32.694,14.918 C32.495,14.834 32.313,14.721 32.18,14.543 C32.105,14.311 32.03,14.08 31.953,13.847 C31.892,13.701 31.83,13.557 31.766,13.41 C31.578,12.891 31.439,12.252 31.385,11.682 C31.338,11.192 31.498,9.96 31.078,9.735 C30.858,9.617 30.037,9.947 29.748,9.981 C29.304,10.03 28.488,9.853 28.181,10.172 C27.939,10.42 28.076,10.769 28.076,11.081 C28.057,11.243 28.038,11.404 28.018,11.563 C28.008,12.089 28.068,12.572 28.149,13.06 C28.217,13.472 28.432,13.783 28.562,14.16 C28.631,14.47 28.702,14.779 28.771,15.088 C28.978,15.642 29.185,16.195 29.392,16.748 C29.497,17.025 29.514,17.331 29.602,17.612 C29.698,17.8 29.793,17.989 29.887,18.177 C30.084,18.792 30.182,19.783 30.588,20.269 C30.635,20.325 30.689,20.384 30.772,20.384 L30.772,20.443 C30.708,20.584 30.806,20.753 30.892,20.861 C31.635,21.797 32.874,21.09 33.84,20.985 C33.977,21.004 34.115,21.024 34.252,21.043 C34.565,20.747 36.661,20.764 36.198,21.509 C36.082,21.595 35.968,21.683 35.852,21.769 C35.681,21.795 35.51,21.821 35.338,21.848 C34.849,21.939 34.348,22.007 33.834,22.084 C33.65,22.146 33.468,22.21 33.284,22.271 C32.829,22.363 32.135,22.45 31.674,22.397 C31.271,22.351 30.934,22.135 30.622,21.904 C30.42,21.754 30.347,21.465 30.236,21.265 C30.045,20.922 29.844,20.616 29.694,20.264 C29.599,20.035 29.505,19.806 29.409,19.575 C29.27,19.322 29.133,19.069 28.995,18.816 C28.935,18.604 28.874,18.393 28.812,18.179 C28.719,17.969 28.627,17.76 28.533,17.55 C28.434,17.205 28.376,16.874 28.228,16.557 C28.142,16.373 27.995,16.094 27.761,16.06 C27.29,15.988 26.988,16.437 26.771,16.752 C26.564,16.956 26.358,17.16 26.15,17.365 C25.715,17.959 24.958,19.714 24.277,19.982 C24.194,20.014 23.932,20.144 23.932,20.023 C23.593,19.936 23.426,19.691 23.034,19.724 C22.73,19.813 22.427,19.903 22.123,19.992 C21.056,20.271 20.066,20.687 19.052,21.053 C18.823,21.12 18.594,21.189 18.365,21.257 C17.955,21.471 17.544,21.685 17.132,21.896 C16.498,22.155 15.819,22.302 15.202,22.602 C15.082,22.684 14.962,22.767 14.842,22.849 C14.509,23.027 14.214,23.153 13.888,23.342 C13.462,23.588 12.862,23.798 12.637,24.302 C12.472,24.67 12.429,25.069 12.309,25.469 C12.184,25.881 11.979,26.309 11.9,26.747 C11.647,28.122 11.651,29.445 11.628,30.882 C11.623,31.153 11.556,31.363 11.54,31.605 C11.559,31.765 11.578,31.924 11.595,32.084 C11.58,32.203 11.564,32.323 11.55,32.441 C11.574,32.622 11.601,32.804 11.625,32.983 C11.676,34.082 11.726,35.061 11.831,36.107 C11.823,36.242 11.816,36.379 11.809,36.514 C11.887,37.221 12.084,37.911 12.204,38.627 C12.223,38.863 12.244,39.1 12.262,39.336 C12.322,39.54 12.382,39.745 12.442,39.947 C12.467,40.161 12.491,40.376 12.514,40.59 C12.605,40.838 12.699,41.087 12.791,41.334 C12.825,41.47 12.858,41.606 12.891,41.741 C12.939,41.859 13.018,42.583 13.072,42.583 C13.226,43.037 13.38,43.493 13.532,43.946 C13.588,44.055 13.644,44.164 13.7,44.271 C13.804,44.642 13.908,45.015 14.012,45.387 C14.063,45.479 14.113,45.57 14.162,45.66 C14.282,46.003 14.329,46.359 14.48,46.678 C14.664,47.064 14.642,47.647 14.872,48.07 C15.009,48.322 15.069,48.602 15.204,48.864 C15.308,49.066 15.772,49.467 15.772,49.664 C15.821,49.612 15.832,49.622 15.832,49.543 C15.846,49.534 15.86,49.524 15.873,49.516 C15.894,49.498 15.917,49.482 15.938,49.467 C16.292,49.123 16.31,48.685 16.488,48.25 C16.678,47.777 16.936,47.301 17.105,46.824 C17.179,46.579 17.253,46.335 17.327,46.09 C17.57,45.574 17.814,45.059 18.056,44.541 C18.161,44.344 18.322,44.196 18.416,43.995 C18.489,43.791 18.563,43.586 18.634,43.38 C18.75,43.103 18.952,42.928 18.952,42.583 C19.145,42.486 19.192,42.34 19.192,42.104 C19.227,42.092 19.266,42.081 19.301,42.069 C19.346,42.043 19.393,42.017 19.437,41.991 C19.669,41.805 19.693,41.533 19.847,41.301 C20.057,40.979 20.352,40.701 20.58,40.386 C20.735,40.133 20.893,39.88 21.048,39.626 C21.236,39.377 21.479,39.207 21.658,38.946 C21.813,38.713 21.934,38.464 22.109,38.231 C22.245,38.111 22.38,37.991 22.515,37.87 C22.719,37.611 22.923,37.354 23.126,37.095 C23.617,36.553 24.142,36.096 24.468,35.466 C24.738,34.937 24.806,34.251 24.917,33.647 C24.971,33.52 25.027,33.394 25.081,33.267 C25.125,33.067 25.17,32.871 25.213,32.672 C25.297,32.327 25.29,32.001 25.427,31.689 C25.931,30.518 26.358,30.593 27.459,30.186 C27.553,30.15 27.772,30.1 27.772,29.983 C27.845,30.004 28.012,30.109 28.012,29.983 C28.592,29.983 29.343,29.976 29.722,30.37 C29.868,30.521 30.026,31.116 30.11,31.33 C30.236,31.65 30.159,31.796 30.382,32.097 C30.442,32.179 30.427,32.383 30.532,32.383 C30.594,32.529 30.656,32.678 30.716,32.824 C30.823,33.017 31.132,33.229 31.132,33.463 L31.252,33.463 C31.297,33.094 31.323,32.711 31.199,32.34 C30.854,31.309 30.112,30.469 29.506,29.584 C28.807,28.566 28.325,27.438 27.255,26.672 C26.535,26.158 25.824,25.615 25.095,25.114 C24.673,24.823 23.546,24.321 23.401,23.783 C23.36,23.635 23.397,23.509 23.48,23.406 C23.84,22.941 24.797,23.711 25.194,23.785 C25.274,23.798 25.312,23.768 25.312,23.863 C25.517,24.118 25.736,24.165 26.004,24.325 C26.334,24.52 26.585,24.792 26.895,25.031 C27.058,25.131 27.223,25.232 27.386,25.331 C27.68,25.615 27.975,25.897 28.269,26.179 C28.484,26.34 28.7,26.503 28.916,26.665 C29.083,26.922 29.251,27.18 29.418,27.438 C29.718,27.754 30.019,28.073 30.318,28.39 C30.449,28.581 30.581,28.772 30.71,28.961 C30.909,29.194 31.109,29.429 31.309,29.661 C31.515,29.995 31.694,30.392 31.88,30.745 C31.976,30.876 32.071,31.009 32.167,31.14 C32.373,31.613 32.591,32.099 32.765,32.58 C32.913,32.995 33.015,33.407 33.302,33.752 C33.742,34.283 35.84,34.635 36.594,34.771 C36.676,34.783 37.012,34.897 37.012,34.783 L37.853,34.783 C37.97,34.45 38.263,34.5 38.534,34.357 C39.06,34.078 39.606,33.861 40.156,33.64 C40.313,33.593 40.474,33.548 40.631,33.501 C40.713,33.461 40.853,33.456 40.853,33.344 C41.104,33.439 41.358,33.535 41.609,33.628 C41.984,33.792 41.989,34.192 42.569,34.001 C42.843,33.91 43.218,33.224 43.372,33.224 C43.368,33.15 43.364,33.079 43.358,33.006 C43.544,32.747 43.731,32.488 43.917,32.228 C44.032,32.01 44.147,31.795 44.263,31.577 C44.388,31.38 44.516,31.184 44.642,30.984 C44.714,30.79 44.804,30.463 44.743,30.246 C44.69,30.066 44.597,29.899 44.601,29.684 C44.603,29.517 44.638,29.354 44.792,29.282 C45.099,29.136 46.294,29.282 46.667,29.352 C46.809,29.402 46.951,29.453 47.092,29.503 C47.092,29.419 47.052,29.383 47.151,29.383 L47.151,29.323 L47.212,29.323 C47.232,29.402 47.226,29.503 47.331,29.503 C47.481,29.34 47.658,29.483 47.864,29.456 C47.946,29.432 48.029,29.408 48.112,29.383 L48.112,29.323 L48.172,29.323 C48.192,29.402 48.185,29.503 48.292,29.503 C48.382,29.382 48.772,29.344 48.772,29.264 L48.831,29.264 C49.548,29.151 50.267,29.04 50.982,28.928 C51.327,28.83 51.675,28.734 52.019,28.637 C52.274,28.613 52.529,28.59 52.782,28.566 C53.021,28.487 53.261,28.408 53.499,28.329 C53.585,28.296 53.752,28.225 53.752,28.123 L53.812,28.123 C54.091,28.262 54.3,27.998 54.545,27.93 C54.739,27.915 54.937,27.9 55.132,27.883 C55.152,27.803 55.173,27.724 55.192,27.644 C55.653,27.583 55.989,27.344 56.407,27.212 C57.194,26.963 58.03,26.837 58.857,26.727 C58.993,26.732 59.129,26.738 59.265,26.741 C59.409,26.694 59.556,26.647 59.699,26.601 C60.013,26.528 60.337,26.503 60.651,26.515 C60.796,26.519 61.252,26.503 61.252,26.503 L61.311,26.503 C61.659,26.348 62.763,26.59 63.097,26.717 C63.262,26.779 63.402,26.983 63.592,26.983 L63.592,27.163 C63.466,27.246 63.341,27.33 63.215,27.413 C62.935,27.497 62.534,27.461 62.212,27.461 C61.293,27.469 60.374,27.477 59.454,27.482 C59.04,27.527 58.721,27.769 58.351,27.893 C57.91,28.039 57.532,28.114 57.134,28.341 C56.821,28.517 56.577,28.823 56.316,29.066 C56.048,29.241 55.782,29.415 55.515,29.59 C55.319,29.771 55.124,29.953 54.929,30.133 C54.125,30.713 53.321,31.292 52.515,31.87 C51.873,32.38 51.318,32.95 50.75,33.52 C50.589,33.64 50.427,33.762 50.267,33.882 C49.878,34.249 49.489,34.618 49.101,34.986 C48.962,35.089 48.823,35.194 48.684,35.297 C48.372,35.578 48.129,35.91 47.854,36.205 C47.516,36.564 47.118,36.872 46.771,37.221 C46.539,37.51 46.306,37.798 46.073,38.087 C45.794,38.398 45.491,38.653 45.187,38.938 C44.78,39.317 44.424,39.743 44.056,40.149 C43.854,40.343 43.651,40.536 43.447,40.727 C43.378,40.843 43.31,40.959 43.241,41.074 C42.954,41.434 42.649,41.642 42.563,42.109 C42.419,42.88 42.734,43.277 42.862,43.907 C42.926,44.282 42.989,44.657 43.052,45.03 C43.113,45.253 43.354,45.572 43.312,45.819 C43.297,45.9 43.28,45.943 43.372,45.943 C43.507,46.182 43.811,46.266 43.908,46.508 C44.179,47.187 43.048,48.994 42.714,49.58 C42.552,49.861 42.498,50.175 42.343,50.464 C42.215,50.696 41.986,50.816 41.96,51.105 C41.941,51.297 41.954,51.551 42.142,51.633 C42.417,51.75 42.781,51.65 43.009,51.517 C44.415,50.684 44.772,48.922 45.592,47.623 C45.868,47.183 46.021,46.519 46.531,46.258 C46.674,46.184 46.912,46.184 47.092,46.184 C47.065,46.984 46.991,47.04 46.675,47.657 C46.631,47.792 46.587,47.929 46.542,48.064 C46.46,48.184 46.378,48.304 46.295,48.422 C46.218,48.664 46.142,48.906 46.064,49.146 C45.841,49.566 45.616,49.867 45.573,50.387 C45.554,50.604 45.643,50.863 45.892,50.863 C46.05,50.758 46.185,50.863 46.372,50.863 C46.503,50.739 46.727,50.749 46.892,50.693 C47.049,50.635 47.279,50.475 47.39,50.336 C47.694,49.946 47.792,49.475 47.98,49.023 C48.103,48.864 48.225,48.705 48.347,48.544 C48.455,48.3 48.563,48.056 48.673,47.813 C49.028,47.021 49.533,46.209 50.167,45.599 C50.936,44.854 51.845,44.333 52.692,43.729 C52.807,43.611 52.921,43.495 53.034,43.376 C53.128,43.326 53.224,43.275 53.317,43.225 C53.495,43.067 53.673,42.911 53.85,42.754 C54.962,41.959 56.204,41.329 57.284,40.474 C57.806,40.058 61.671,37.956 61.671,37.663 C61.741,37.701 61.823,37.783 61.911,37.783 L61.911,37.663 C62.043,37.561 62.177,37.459 62.308,37.356 C62.589,37.168 62.948,37.062 63.215,36.863 C63.594,36.578 63.938,36.281 64.349,36.047 C64.525,35.968 64.702,35.89 64.876,35.809 C65.153,35.633 65.388,35.368 65.669,35.205 C65.956,35.035 66.305,34.896 66.575,34.703 C66.714,34.588 66.852,34.474 66.989,34.357 C67.199,34.238 67.409,34.12 67.617,34 C67.854,33.807 68.044,33.584 68.392,33.584 C68.54,33.163 69.2,33.01 69.552,32.8 C69.952,32.558 70.331,32.284 70.694,31.98 C70.747,31.889 70.8,31.798 70.852,31.707 C71.046,31.512 71.241,31.316 71.435,31.12 C71.519,30.953 71.604,30.788 71.687,30.621 C72.226,29.796 72.824,29.104 73.204,28.189 C73.263,28.047 73.329,27.403 73.432,27.403 L73.432,27.224 C73.044,26.979 72.952,26.53 72.649,26.203 C71.704,25.186 70.679,24.263 69.68,23.295 C69.343,23.027 69.007,22.761 68.669,22.493 C68.493,22.333 68.316,22.176 68.14,22.017 C67.866,21.778 67.523,21.604 67.229,21.411 C67.002,21.261 66.725,21.098 66.532,20.92 C66.456,20.843 66.382,20.766 66.307,20.689 C66.015,20.53 65.722,20.372 65.427,20.213 C64.964,19.93 64.501,19.646 64.036,19.363 C63.737,19.245 63.439,19.127 63.142,19.009 C62.934,18.904 62.793,18.766 62.593,18.647 C62.139,18.441 61.686,18.235 61.233,18.026 C60.706,17.824 60.129,17.747 59.587,17.579 C59.356,17.468 59.128,17.357 58.897,17.245 C58.521,17.123 58.118,17.093 57.723,17.023 C57.419,16.969 57.132,16.797 56.806,16.765 C56.626,16.746 56.491,16.844 56.331,16.844 C56.032,16.405 55.224,16.408 54.714,16.343 C54.187,16.273 53.671,16.082 53.147,16.032 C52.91,16.052 52.672,16.075 52.434,16.096 C50.021,15.939 47.599,15.943 45.46,16.566 C44.837,16.746 44.128,16.787 43.655,17.246 C42.937,17.94 43.445,19.273 43.582,20.087 C43.591,20.466 43.603,20.845 43.612,21.224 C43.342,21.197 43.07,21.043 42.892,21.043 C42.83,20.552 42.587,20.168 42.457,19.706 C42.249,18.972 42.221,18.255 42.157,17.443 C42.127,17.282 42.097,17.123 42.065,16.962 C42.067,16.583 42.069,16.204 42.071,15.825 C42.101,15.664 42.131,15.503 42.161,15.342 C42.167,14.861 42.172,14.384 42.176,13.903 C42.196,13.724 42.217,13.543 42.235,13.363 C42.235,13.131 42.17,12.898 42.179,12.644 C42.212,12.443 42.243,12.242 42.274,12.042 C42.302,11.61 42.176,11.276 42.176,10.844 C42.176,9.983 42.272,9.186 42.288,8.322 C42.282,8.102 42.276,7.885 42.269,7.665 C42.237,7.525 42.206,7.384 42.172,7.244 C42.313,7.067 42.278,6.814 42.309,6.585 C42.339,6.445 42.368,6.304 42.397,6.162 C42.406,5.622 42.416,5.083 42.425,4.544 C42.493,3.69 42.331,2.28 41.647,1.784 C41.184,1.446 40.591,1.45 40.018,1.332 C39.871,1.281 39.726,1.23 39.579,1.18 C39.204,1.155 38.829,1.133 38.452,1.108 C38.291,1.079 38.132,1.049 37.97,1.017 C37.531,1.007 37.093,0.998 36.652,0.988 C36.512,0.96 36.371,0.933 36.228,0.904 C35.758,0.857 35.277,1.041 34.852,0.884 L34.852,0.884 Z M34.492,0.044 C34.771,0.083 35.053,0.124 35.332,0.164 C35.503,0.012 36.172,0.13 36.172,0.044 C36.532,0.047 36.892,0.053 37.25,0.057 C37.43,0.089 37.612,0.121 37.792,0.152 C38.171,0.164 38.55,0.175 38.929,0.186 C39.005,0.195 39.172,0.278 39.172,0.164 C40.362,0.354 41.981,0.46 42.826,1.306 C43.509,1.988 43.544,3.257 43.481,4.302 C43.445,4.542 43.411,4.784 43.376,5.023 C43.368,5.433 43.45,5.852 43.45,6.222 C43.427,6.422 43.401,6.623 43.376,6.823 C43.372,7.363 43.368,7.903 43.364,8.441 C43.333,8.663 43.302,8.884 43.271,9.103 C43.302,9.503 43.335,9.904 43.366,10.304 C43.37,10.643 43.292,10.958 43.292,11.262 C43.292,11.496 43.37,11.719 43.358,11.981 C43.325,12.203 43.292,12.424 43.258,12.644 C43.228,13.264 43.286,13.883 43.335,14.447 C43.366,14.834 43.272,15.206 43.434,15.554 C43.507,15.711 43.683,15.733 43.853,15.745 C44.577,15.79 45.544,15.43 46.256,15.312 C46.625,15.25 47.044,15.197 47.392,15.171 C47.603,15.15 47.813,15.13 48.024,15.107 C48.116,15.075 48.412,15.049 48.412,14.924 C48.532,14.963 48.651,15.004 48.772,15.043 C48.954,14.886 49.165,15.043 49.372,15.043 L49.372,14.924 C49.491,14.963 49.612,15.004 49.731,15.043 C49.904,14.894 50.812,15.083 50.812,14.924 C50.881,14.942 51.052,15.045 51.052,14.924 C51.464,14.924 51.8,14.983 52.192,14.983 L52.192,14.924 C52.535,15.073 52.925,15.012 53.326,15.066 C53.739,15.12 54.223,15.283 54.651,15.283 L54.651,15.224 L54.712,15.224 L54.712,15.164 C55.29,15.428 56.037,15.438 56.687,15.546 C57.253,15.64 57.771,15.867 58.313,15.985 C58.79,16.094 59.269,16.202 59.744,16.309 C59.849,16.343 60.292,16.32 60.292,16.424 C60.753,16.802 61.46,16.915 62.022,17.106 C62.364,17.222 63.108,17.83 63.479,17.7 C63.543,17.678 63.532,17.676 63.532,17.743 L63.592,17.743 C63.929,18.104 64.515,18.229 64.938,18.452 C65.171,18.574 65.646,18.981 65.89,19.026 C65.971,19.039 66.052,18.962 66.052,19.063 L66.112,19.063 C66.31,19.275 66.583,19.394 66.81,19.564 C67.321,19.946 67.856,20.252 68.366,20.648 C68.665,20.88 68.925,21.181 69.206,21.418 C69.449,21.626 69.784,21.773 70.044,21.972 C70.591,22.481 71.138,22.992 71.687,23.501 C71.804,23.668 71.923,23.835 72.038,24 C72.19,24.148 72.344,24.297 72.495,24.443 C72.637,24.562 72.749,24.807 72.876,24.958 C73.11,25.236 73.362,25.446 73.593,25.733 C73.754,25.997 73.915,26.262 74.077,26.524 C74.206,26.723 74.418,26.937 74.472,27.171 C74.517,27.375 74.521,27.666 74.464,27.866 C74.39,28.122 74.21,28.349 74.095,28.579 C74.052,28.712 74.011,28.847 73.968,28.98 C73.731,29.327 73.495,29.676 73.259,30.022 C73.21,30.163 73.161,30.304 73.11,30.443 C72.833,30.819 72.558,31.198 72.28,31.575 C72.093,31.854 71.933,32.247 71.663,32.462 C71.356,32.706 71.081,32.957 70.758,33.173 C70.383,33.405 70.008,33.638 69.633,33.87 C69.487,33.994 69.341,34.118 69.192,34.239 C68.87,34.431 68.526,34.579 68.216,34.785 C67.702,35.168 67.188,35.55 66.675,35.931 C66.472,36.067 66.198,36.16 66.009,36.3 C65.504,36.69 65,37.08 64.495,37.47 C64.407,37.514 64.321,37.557 64.233,37.598 C63.877,37.856 63.522,38.115 63.166,38.372 C62.95,38.531 62.695,38.631 62.469,38.77 C62.271,38.944 62.073,39.118 61.874,39.291 C61.636,39.458 61.397,39.625 61.158,39.79 C60.513,40.29 60.038,40.885 59.478,41.466 C59.3,41.608 59.124,41.753 58.946,41.896 C58.487,42.31 58.13,42.735 57.681,43.146 C57.423,43.333 57.168,43.522 56.911,43.71 C56.716,43.89 56.522,44.072 56.328,44.252 C56.124,44.392 55.921,44.533 55.717,44.674 C55.482,44.916 55.25,45.158 55.016,45.397 C54.888,45.477 54.761,45.555 54.634,45.632 C54.327,45.904 54.024,46.178 53.718,46.449 C53.593,46.522 53.467,46.598 53.341,46.671 C52.835,47.055 52.239,47.466 51.892,48.021 C51.588,48.503 51.476,48.992 51.241,49.51 C51.025,49.979 50.774,50.432 50.622,50.94 C50.544,51.197 50.624,51.467 50.665,51.707 C50.692,51.879 50.718,52.052 50.743,52.223 C50.907,52.5 51.073,52.779 51.237,53.057 C51.446,53.383 51.554,53.869 51.585,54.273 C51.631,54.953 51.504,55.607 51.456,56.264 C51.417,56.783 51.412,57.373 51.412,57.943 C51.412,58.219 51.378,58.545 51.583,58.716 C52.038,59.095 52.644,59.201 53.177,59.439 C53.298,59.52 53.42,59.603 53.54,59.684 C53.815,59.813 54.108,59.891 54.378,60.033 C54.618,60.199 54.858,60.365 55.099,60.531 C56.141,61.078 57.06,61.682 57.927,62.576 C58.004,62.655 58.252,62.727 58.252,62.803 C58.385,62.971 58.521,63.064 58.665,63.225 C58.835,63.414 59.034,63.821 59.21,64.062 C59.561,64.469 59.911,64.877 60.262,65.283 C60.524,65.611 60.659,66 60.892,66.34 C61.248,66.858 61.621,67.357 61.981,67.877 C62.255,68.395 62.528,68.912 62.802,69.43 C62.964,69.66 63.125,69.891 63.284,70.121 C64.05,71.374 64.78,72.707 65.005,74.207 C65.137,75.09 65.007,75.979 64.823,76.789 C64.696,77.346 64.604,77.977 64.377,78.489 C64.193,78.898 63.948,79.271 63.741,79.676 C63.671,79.836 63.599,79.995 63.526,80.154 C63.445,80.24 63.364,80.326 63.284,80.413 C63.062,80.781 62.917,81.186 62.72,81.564 C62.591,81.764 62.463,81.962 62.333,82.158 C62.259,82.359 62.185,82.563 62.11,82.762 C62.022,82.918 61.935,83.074 61.847,83.229 C61.581,83.784 61.351,84.33 61.054,84.872 C60.628,85.639 59.878,86.175 59.294,86.82 C58.97,87.174 58.665,87.613 58.34,87.971 C58.233,88.063 58.128,88.154 58.021,88.246 C57.884,88.429 57.747,88.61 57.61,88.791 C57.142,89.173 56.351,89.342 55.687,89.156 C55.399,89.076 55.132,88.894 54.792,89.021 C54.573,89.1 54.534,89.389 54.394,89.543 C54.114,89.84 53.71,90.148 53.351,90.334 C53.047,90.487 52.436,90.619 52.071,90.607 C51.853,90.6 51.649,90.523 51.412,90.539 C51.071,90.611 50.731,90.683 50.39,90.752 C49.904,90.781 49.337,90.762 48.879,90.719 C48.741,90.73 48.606,90.744 48.47,90.756 C48.172,90.742 47.874,90.729 47.573,90.716 C47.128,90.684 46.672,90.551 46.194,90.506 C46.073,90.493 45.924,90.44 45.8,90.473 C45.311,90.59 45.031,90.883 44.649,91.188 C44.477,91.301 44.304,91.418 44.132,91.531 C43.786,91.818 43.443,92.105 43.099,92.393 C42.59,92.754 42.108,93.202 41.609,93.57 C41.397,93.725 41.193,93.962 40.944,94.029 C40.863,94.05 40.731,94.021 40.731,94.123 C40.126,94.339 39.506,94.666 38.86,94.781 C38.226,94.892 37.519,94.785 36.89,94.736 C36.374,94.695 35.817,94.766 35.358,94.648 C35.111,94.582 34.631,94.412 34.413,94.297 C34.293,94.213 34.173,94.129 34.053,94.045 C32.597,93.392 31.404,92.317 30.091,91.431 C29.861,91.229 29.63,91.025 29.397,90.822 C29.187,90.671 28.978,90.521 28.766,90.369 C28.136,89.797 27.437,88.901 26.516,88.924 C25.692,88.94 25.694,89.831 25.425,90.359 C25.252,90.689 25.054,90.96 24.926,91.314 C24.767,91.75 24.59,92.552 24.335,92.906 C24.253,93.022 24.172,93.141 24.09,93.256 C23.85,93.487 23.143,93.822 22.828,93.949 C22.582,94.021 22.336,94.095 22.091,94.166 C21.971,94.248 21.852,94.331 21.732,94.412 C21.448,94.48 21.163,94.551 20.876,94.618 C20.748,94.676 20.621,94.734 20.493,94.793 C18.592,95.399 16.436,94.543 14.844,93.941 C14.469,93.855 14.096,93.769 13.721,93.681 C13.346,93.619 12.973,93.557 12.598,93.493 C12.471,93.451 12.343,93.41 12.214,93.367 C12.039,93.377 11.867,93.387 11.692,93.394 C11.181,93.385 10.833,93.162 10.479,92.867 C10.172,92.609 10.228,92.23 10.164,91.849 C10.066,91.504 9.969,91.158 9.872,90.813 C9.757,90.375 9.802,89.793 9.229,89.739 C7.999,89.619 6.853,90.002 5.803,90.435 C5.398,90.6 5.025,90.658 4.686,90.954 C4.042,91.512 3.619,92.205 2.867,92.607 C2.603,92.748 2.201,92.778 1.952,92.625 C1.146,92.126 0.875,90.658 0.534,89.835 C0.343,89.377 0.107,88.995 0.021,88.477 C0.013,88.199 0.007,87.922 0,87.643 C0.024,87.086 0.473,86.754 0.473,86.203 C0.589,86.162 0.648,86.143 0.74,86.053 C0.791,85.955 0.842,85.857 0.891,85.76 C1.054,85.559 1.217,85.355 1.378,85.153 C1.455,84.996 1.532,84.84 1.606,84.683 C1.768,84.497 1.929,84.311 2.091,84.123 C2.139,84.024 2.188,83.925 2.237,83.826 C2.35,83.723 2.464,83.621 2.576,83.518 C2.698,83.336 2.822,83.156 2.943,82.975 C3.212,82.652 3.516,82.313 3.66,81.924 C4.104,80.711 3.626,79.014 3.386,77.854 C3.365,77.599 3.345,77.344 3.322,77.087 C3.161,76.209 3.063,75.318 2.976,74.383 C2.966,74.295 2.857,74.023 2.992,74.023 L2.992,73.844 C2.852,73.682 2.807,72.774 2.807,72.523 C2.807,72.453 2.797,72.463 2.872,72.463 L2.872,72.283 C2.659,72.039 2.775,71.527 2.723,71.207 C2.692,71.066 2.662,70.926 2.632,70.783 L2.752,70.783 L2.752,70.604 C2.514,70.331 2.647,69.168 2.621,68.743 C2.585,68.543 2.55,68.344 2.513,68.143 C2.797,67.791 2.603,66.112 2.576,65.617 C2.595,65.379 2.614,65.141 2.631,64.903 C2.644,64.014 2.632,63.071 2.632,62.264 C2.863,61.959 2.735,61.285 2.762,60.883 C2.782,60.537 2.848,60.172 2.891,59.805 C2.945,59.319 3.047,58.688 3.143,58.189 C3.189,58.047 3.236,57.904 3.283,57.762 C3.292,57.673 3.236,57.583 3.353,57.583 C3.456,56.91 3.65,56.293 3.813,55.658 C3.872,55.404 3.932,55.151 3.99,54.896 C4.08,54.727 4.17,54.555 4.26,54.385 C4.436,53.875 4.53,53.352 4.706,52.856 C4.869,52.391 5.185,51.96 5.458,51.547 C5.537,51.373 5.615,51.199 5.694,51.024 C5.998,50.52 6.444,50.109 6.778,49.626 C6.96,49.357 7.115,49.102 7.344,48.857 C7.618,48.563 7.938,48.324 8.195,48.022 C8.396,47.783 8.657,47.727 8.914,47.591 C9.032,47.5 9.15,47.408 9.268,47.315 C9.667,47.08 10.066,46.843 10.466,46.607 C10.603,46.565 10.742,46.524 10.878,46.483 C11.136,46.365 11.304,46.192 11.583,46.099 C11.713,46.06 11.842,46.02 11.972,45.979 C12.168,45.836 12.394,45.642 12.438,45.397 C12.489,45.118 12.422,44.861 12.375,44.618 C12.251,43.989 12.099,43.444 11.962,42.829 C11.902,42.664 11.844,42.501 11.784,42.336 C11.595,41.321 11.447,40.41 11.24,39.409 C11.189,39.302 11.139,39.197 11.087,39.09 C10.957,38.468 10.989,37.819 10.882,37.187 C10.852,37.013 10.753,36.343 10.552,36.343 C10.641,36.057 10.577,35.859 10.56,35.562 C10.509,34.779 10.433,34.097 10.433,33.283 C10.438,32.044 10.443,30.805 10.449,29.565 C10.511,29.303 10.575,29.04 10.637,28.776 C10.657,28.42 10.678,28.063 10.697,27.705 C10.753,27.308 10.935,26.933 11.004,26.558 C11.143,25.795 11.338,25.082 11.583,24.385 C11.658,24.169 11.686,23.961 11.792,23.764 C12.309,22.78 13.8,22.279 14.724,21.831 C15.549,21.428 16.384,21.081 17.226,20.715 C17.338,20.665 17.572,20.608 17.572,20.443 C17.702,20.421 17.833,20.4 17.962,20.378 C18.073,20.303 18.185,20.228 18.296,20.151 C18.446,20.059 19.132,19.901 19.132,19.724 L19.192,19.724 C19.233,19.771 19.313,19.894 19.313,19.783 L19.372,19.783 C19.743,19.489 22.132,18.76 22.132,18.523 L22.192,18.523 C22.327,18.606 22.852,18.651 22.852,18.403 L22.912,18.403 C22.963,18.46 23.002,18.523 23.092,18.523 C23.306,18.308 23.842,18.283 24.172,18.283 C24.266,18.006 24.54,17.972 24.716,17.759 C25.47,16.829 26.195,15.87 26.852,14.89 C26.976,14.751 27.101,14.612 27.225,14.472 C27.448,13.988 27.253,13.42 27.191,12.939 C27.133,12.495 27.106,12.111 27.02,11.689 C26.958,11.505 26.896,11.323 26.835,11.14 C26.831,10.362 26.829,9.583 26.825,8.804 C26.93,7.463 27.178,6.158 27.596,4.941 C27.73,4.542 27.779,4.167 27.942,3.792 C28.151,3.373 28.359,2.956 28.565,2.537 C28.64,2.359 28.717,2.181 28.792,2.001 C28.946,1.724 29.212,1.476 29.212,1.123 C29.279,1.101 29.347,1.079 29.413,1.054 C29.688,0.898 29.896,0.702 30.198,0.585 C30.406,0.552 30.614,0.518 30.821,0.484 C31.299,0.372 31.756,0.321 32.269,0.265 C32.442,0.244 32.604,0.177 32.799,0.21 C32.885,0.226 33.172,0.263 33.172,0.164 C33.253,0.173 33.532,0.28 33.532,0.164 C33.856,0.152 34.248,0.212 34.492,0.044 L34.492,0.044 Z" id="Fill-1" fill="#1A1918" sketch:type="MSShapeGroup" mask="url(#mask-2)"></path>
        </g>
    </g>
</svg>