<svg class="fill-current" width="{{ .width }}" height="{{ .height }}" viewBox="0 0 75 95" xmlns="http://www.w3.org/2000/svg">
  <path d="M40.372 80.803c-.145.099-.289.199-.435.297-.107.129-.213.257-.323.385-.253.251-.529.469-.787.712-.075.084-.148.166-.223.248-.31.231-.685.424-.958.676-.233.287-.463.574-.696.861-.435.45-.827.967-1.326 1.372-.237.191-.481.283-.736.429-.385.24-.767.481-1.152.718-.337.183-.727.315-1.07.497-.392.204-.811.281-1.221.44-.232.089-.41.304-.634.392-.431.167-1.483.113-1.554.717-.023.18.047.359.133.496.223.355.559.533.848.812.821.793 1.704 1.566 2.658 2.186.199.113.398.226.597.336.146.123.292.246.437.368.346.157.695.318 1.042.474.266.154 1.708.42 2.034.388.085-.009.126.006.126-.084.266.096.89.227 1.195.191.162-.058.325-.116.488-.177.08-.023.237-.025.237-.135.069.02.24.123.24 0 .244-.057.96-.279.96-.599h.12c.049.039.119.109.119 0 .36-.098.524-.36.809-.559.553-.39 1.116-.795 1.673-1.176.468-.322.874-.742 1.312-1.084.261-.203.421-.515.677-.746.31-.285.685-.519.986-.817.304-.306.67-.761.699-1.2.061-.904-.894-1.752-1.457-2.297-.109-.129-.216-.258-.328-.39-.156-.104-.31-.21-.468-.317-.444-.428-.825-.912-1.293-1.338-.338-.265-.676-.527-1.016-.791-.337-.309-.529-.737-.912-.988-.231-.153-.531-.237-.801-.297zm-23.28-5.039c-.255.204-.542.376-.769.656-.076.151-.153.303-.23.453-.178.312-.456.525-.628.838-.306.549-.638 1.127-.949 1.674-.162.191-.321.383-.482.572-.228.398-.455.795-.684 1.191-.156.215-.31.433-.465.649-.077.174-.154.349-.233.521-.082.107-.163.213-.245.321-.22.356-.323.806-.452 1.207-.175.45-.349.9-.523 1.348-.186.563-.218 1.168-.298 1.785-.115.859-.222 1.691-.222 2.644 0 .658-.035 1.697.296 2.173.146.21.346.268.568.349.252.026.503.052.752.077.394.045.793.169 1.197.245.454.085.921.238 1.35.403.51.147 1.02.294 1.527.441.284.127.567.253.85.378.102.047.78.169.78.075.435.012.844.147 1.318.102.34-.034 2.402-.573 2.402-.823.083.015.24.113.24 0 1.191-.077 1.574-1.408 1.888-2.329.102-.306.203-.61.302-.917.01-.457.019-.914.028-1.374-.011-.603-.169-1.17-.317-1.693-.156-.545-.168-1.103-.324-1.652-.094-.25-.188-.497-.281-.746-.103-.454-.205-.908-.308-1.361-.09-.312-.288-.594-.358-.915-.204-.929-.315-1.877-.264-2.933.022-.491.142-.96.101-1.5-.032-.389-.283-.602-.647-.66v-.06c-.549-.633-.964-.612-1.729-.823-.125-.053-.251-.103-.378-.156-.278.025-.555.049-.835.074-.688.009-1.348-.089-1.978-.234zm21.24-5.76c-.11.129-.272.195-.315.371-.111.429.054.836.062 1.248.004.254-.075.43-.088.66-.031.455.145 1.26.701 1.26.1-.166.264-.246.399-.379.328-.33.681-.934.681-1.421.438-.138 1.127-1.206.553-1.547-.502-.298-1.347-.192-1.993-.192zm8.88-7.621c-.285.252-.709.162-1.047.299-.156.086-.312.172-.47.257-.653.271-1.318.448-1.921.825-.337.209-.622.579-.908.867-.184.215-.366.428-.55.641-.229.445-.403.787-.375 1.369.033.18.064.363.096.543.023.269.045.539.067.807.092.276.409 1.172.37 1.456-.094.656-.684 1.25-.766 1.877-.121.933.199 1.87.395 2.719.003.103.009.207.013.311.06.286.155.554.166.869.016.511-.125 1.029-.204 1.504-.022.213-.045.427-.067.641-.169.656-.59 1.339-.438 2.053.016.055.031.108.043.163.042.117.18.187.268.295.622.761 1.468 1.322 2.176 2.03.415.405.829.81 1.244 1.216.096.08.194.16.292.239.227.276.454.552.678.825.084.068.219.094.338.094.009.058.019.116.026.174.058.295.353.463.521.701.381.541.748 1.09.863 1.769.041.249.065.688-.042.913-.181.373-.609.734-.477 1.228.049.186.266.298.435.348.071.022.354.148.354.027.201.039.401.08.6.12.089-.071.36-.017.36-.12.085.009.36.115.36 0 .579-.004 1.159-.005 1.738-.009.202-.012.385-.1.59-.061.065.012.072.03.072-.051 1.208-.078 1.084-.564.973-1.56-.056-.417-.111-.833-.167-1.252-.101-.403-.2-.806-.301-1.211-.096-.629-.116-1.199-.155-1.856-.035-.341-.069-.681-.105-1.022-.007-.401.103-.683.111-1.077.024-1.617.039-3.117.266-4.617.066-.282.133-.563.199-.846.02-.336.037-.671.057-1.008.082-.34.211-.678.289-1.037.062-.31.019-.576.08-.882.045-.124.09-.247.133-.371.026-.196-.061-.487-.057-.72.021-.199.042-.397.061-.596-.045-.794-.192-1.57-.333-2.34-.048-.144-.095-.288-.144-.435-.07-.495-.141-.99-.211-1.485-.102-.608-.336-1.236-.336-1.864-.439-.166-.666-1.022-.9-1.401-.879-1.423-2.705-1.31-4.26-1.359zm4.32-2.279c-.094.095-.187.191-.283.287-.16.279-.124.996-.032 1.313.065.23.214.321.364.497.047.077.094.156.139.233.092.083.183.17.275.255.057.106.114.213.17.321.166.215.383.365.531.594.082.185.164.371.247.554.308.615.558 1.229.76 1.903.071.237.081.53.141.767.13.533.281 1.09.362 1.619.017.217.033.435.049.651.144.871.438 1.789.453 2.705-.012.275-.021.552-.031.829-.043.165-.087.332-.132.497-.043.322-.045.626-.107.945-.064.262-.125.527-.189.789-.105.934-.148 1.849-.178 2.756-.049.322-.097.645-.148.968-.022.273.072.538.055.834-.051.224-.102.448-.155.671-.111.879-.025 1.834-.066 2.752-.014.312.027.623.055.904.082.841-.043 2.221.495 2.861.118.083.238.166.356.246.111.121.223.241.334.359.159.073.318.145.477.218.371.185.751.451 1.217.451.22-.217.439-.436.659-.654.413-.461.76-.965 1.145-1.438.35-.434.752-.803 1.129-1.208.119-.208.238-.415.356-.622.3-.467.634-.996.851-1.508.129-.306.183-.611.344-.898.336-.608.793-1.153 1.152-1.751.541-.902.901-1.915 1.18-2.949.081-.226.162-.453.242-.679 0-.133.002-.267.002-.402.065-.358.218-.825.165-1.206-.098-.304-.195-.611-.294-.916-.072-.244-.143-.486-.214-.73-.37-.637-.737-1.275-1.106-1.914-.204-.4-.351-.816-.565-1.209-.103-.188-.279-.293-.402-.469-.059-.148-.117-.295-.175-.443-.35-.539-.675-1.085-1.028-1.614-.418-.627-.997-1.165-1.459-1.768-.307-.401-.633-.823-.94-1.234-.121-.113-.242-.224-.367-.339-.357-.412-.675-.891-1.068-1.272-.491-.475-1.17-.795-1.725-1.17-.931-.63-1.83-1.312-3.041-1.386zm-4.44-8.281c-.379.336-1.548.306-2.099.378-.568.074-1.123.338-1.647.528-.525.187-1.266.207-1.73.474-.231.133-.616.49-.719.737-.266.623-.126 1.367-.062 2.023.008.558.018 1.119.024 1.678.101.58.204 1.161.306 1.74.026.496.002.969.094 1.455 0 .09.002.182.002.271.058.307.118.613.176.916.04.497.011 1.034.287 1.415.052.07.328.177.328.025.067.036.15.12.24.12.148-.431.803-.696 1.162-.899.197-.13.397-.26.593-.391.641-.328 1.319-.551 1.989-.811.353-.08.705-.158 1.056-.239.12-.052.6-.034.6-.18.073.021.24.125.24 0 .432 0 .868.019 1.262.058.075.008.058.012.058-.058.142-.026.285-.052.427-.081.617-.35.533-2.226.533-2.919.23-.285.101-.939.131-1.32.138-1.794.42-2.97-.914-4.259-.192-.183-.373-.443-.659-.471-.091-.009-.119.03-.119-.07-.451-.156-1.017-.12-1.559-.12zm-34.62-4.8c-.164.135-.455.171-.647.263-.356.212-.712.423-1.07.635-.161.072-.322.143-.484.212-.152.123-.302.244-.454.364-.15.103-.365.105-.513.216-.863.634-1.551 1.569-2.149 2.422-.178.215-.354.428-.533.641-1.983 3.569-2.76 7.933-2.842 12.406-.021.161-.042.322-.064.481-.006.499-.011.999-.019 1.498-.03.2-.059.402-.09.601.031.179.06.361.09.541.013.225-.058.447-.043.648.038.285.075.57.113.856.015.246-.062.503-.049.774.034.222.069.442.103.662.053.853.084 1.554.139 2.398.037.6.184 1.262.221 1.863.007.279.017.559.025.838.064.281.129.564.192.846.014.357.029.715.042 1.074.034.554.187 1.168.313 1.69.022.255.045.511.065.764.059.341.196.652.208 1.027.031.966-.354 1.474-.795 2.181-.072.157-.146.316-.218.474-.198.282-.392.563-.589.842-.13.176-.343.305-.486.463-.077.125-.154.253-.232.379-.238.349-.49.736-.726 1.078-.347.494-.834.975-.893 1.604-.086.895.27 1.409.544 2.114.167.433.293 1.108.795 1.29.287.103.47-.167.682-.285.243-.137.361-.351.537-.545.746-.835-.096-1.66-.362-2.414-.126-.354-.195-1.014-.161-1.421.021-.287.148-.622.296-.85.102-.159.534-.314.534-.53.135.065.351.168.409.324.096.265-.169.685-.155 1.054.02.698.472 1.942 1.01 2.382.177.072.352.148.527.221.081.026.152.099.249.099v-.12c.304-.108.516 0 .84 0 .055-.208.222-.479.48-.479-.15-.397-.12-.899-.12-1.321-.511-.348-.862-2.015-.671-2.687.058-.211.184-.364.345-.518.126-.123.244-.232.443-.221.455.023.169.588.161.846-.006.149.06.225.093.34-.003.106-.007.213-.011.32.656.437.523 2.88 1.68 2.88.012-.036.023-.071.032-.108.077-.226.323-.336.396-.569.024-.273.048-.547.071-.821.054-.435.401-1.253.28-1.663-.027-.082-.077-.199-.179-.199.122-.619-.412-1.27-.667-1.768-.122-.238-.13-.48-.231-.726-.168-.405-.539-.853-.59-1.295.016-.098.033-.194.049-.291-.31-.212-.497-.676-.64-1.003-.126-.198-.249-.396-.375-.595-.268-.506-.263-1.103-.36-1.693-.023-.103-.043-.205-.066-.309.233-.39-.011-1.08.043-1.492.154-1.213.195-2.384.334-3.606.109-.461.218-.922.324-1.384.016-.278.031-.555.044-.834.06-.204.119-.408.18-.614.022-.173.047-.346.069-.521.092-.288.186-.577.278-.867.033-.207.067-.412.099-.619.223-.692.565-1.366.855-2.03.118-.271.124-.576.223-.854.125-.236.251-.47.377-.707.298-.634.544-1.288.814-1.935.127-.236.257-.472.384-.711.193-.334.311-.731.45-1.092.142-.381.416-.714.623-1.074.078-.174.157-.346.236-.52.245-.366.547-.622.547-1.12.624-.215.889-1.032 1.221-1.545.09-.098.182-.196.272-.292.26-.484.328-1.082.457-1.635.083-.302.165-.605.248-.907.028-.422-.096-.974-.195-1.371-.092-.173-.184-.345-.277-.518-.074-.18-.145-.359-.218-.54-.087-.157-.173-.313-.261-.47-.112-.304-.118-.615-.21-.927-.096-.317-.263-.577-.341-.909-.06-.248-.221-.752-.512-.776-.071-.008-.064.001-.064-.07-.159-.08-.318-.159-.48-.24zm39.179-1.08c-.157.177-.249.12-.479.12-.173.251-.485.282-.653.527-.377.546-.581 1.185-.829 1.795-.247.601-.798 1.178-.798 1.879.224.07.337.359.599.359.044-.15.117-.197.188-.326.127-.276.252-.551.377-.826.203-.539.982-2.928 1.595-2.928.047-.243.256-.443 0-.6zm-8.519-1.56h.12c-.034.07-.034.12-.12.12v-.12zm-14.88-2.4c-.247.69.043 1.199.222 1.804.146.528.292 1.058.436 1.584.092.135.184.271.275.403.235.481.469.962.689 1.455.178.408.275.869.463 1.27.09.098.182.194.272.29.285.422.514.889.812 1.313.253.262.506.525.759.787.221.261.443.521.662.781.313.312.686.571 1.016.901.128.154.255.308.381.462.317.317 1.247 1.071 1.693 1.071.058-.072.116-.141.172-.213.241-.582-.32-2.192-.502-2.739-.272-.814-.441-1.654-.802-2.42-.43-.908-.96-1.806-1.559-2.629-.206-.225-.412-.451-.618-.677-.293-.411-.694-.872-1.075-1.209-.113-.071-.223-.143-.335-.214-.548-.529-1.14-1.204-1.798-1.606-.358-.219-.786-.249-1.163-.414zm14.04-1.92v.121c.071-.035.12-.031.12-.121h-.12zm-14.16-9c-.433.377-1.103.115-1.549.668-.264.323-.187.651-.29 1.061-.178.696-.351 1.388-.522 2.061-.028.191-.056.384-.086.575-.123.252-.246.503-.369.754-.163.19-.325.379-.488.568-.161.143-.365.207-.498.399-.949 1.349-2.016 2.644-2.978 3.993-.291.464-.579.931-.87 1.396-.116.263-.232.525-.35.788-.424.765-.812 1.492-1.163 2.297l-.27.399c-.169.413-.305.855-.482 1.262-.035.08-.093.459-.165.459-.096.233-.231.445-.313.677-.146.55-.293 1.101-.439 1.65-.356 1.106-.737 2.237-1.112 3.336-.031.207-.063.416-.095.624-.122.457-.278.943-.505 1.352-.08.104-.161.212-.243.317-.161.288-.323.577-.484.866-.375.492-.754 1.001-1.067 1.536-.122.253-.244.506-.365.758-.218.27-.435.537-.655.803-.326.542-.46 1.152-.716 1.731-.24.461-.48.923-.722 1.384-.114.364-.227.727-.341 1.091-.137.366-.352.696-.509 1.06-.339.779-.524 1.607-.826 2.409-.208.553-.416 1.106-.626 1.657-.062.396-.122.791-.184 1.186-.068.22-.135.442-.203.664-.015.237-.028.475-.043.714-.065.362-.131.723-.199 1.085-.161 2.023-.328 4.572.132 6.472.093.268.189.537.283.805.121.161.243.322.366.482.075.244.149.487.224.729.124.22.248.439.372.658.14.271.521 1.055.89 1.055.066-.071.134-.14.199-.209.154-.263.308-.526.459-.787.182-.321.274-.7.475-1.011.163-.224.328-.446.491-.671.116-.217.232-.43.348-.645.25-.382.668-.728.668-1.238.362-.113.377-.599.72-.599-.037-.532 1.031-1.838 1.453-2.258.111-.113.887-.779.887-.803h.06c.042.047.12.17.12.061h.06c.321-.04.641-.08.96-.121v-.059c.118.056.66.243.66.18h.06c.253-.096.587.008.842.039.69.076 1.281.116 1.905.301.092.047.186.096.277.142.227.07.456.14.683.209.187.096.375.193.562.289.08.021.231-.008.231.1.416.485.998.826 1.204 1.458.129.399.017.903-.041 1.303-.004.339-.008.678-.014 1.016.031.161.06.322.09.484.017.337.034.674.051 1.01.143.766.413 1.572.615 2.311.004.129.008.258.009.387.045.326.111.654.22.956.097.273.152.548.253.835.052.109.105.218.156.327.159.65.159 1.269.75 1.68.08.054.487.166.487-.008.07.018.24.122.24 0h.6c.083-.187.36-.158.36-.24.544-.036.956-.236 1.444-.332.343-.069.677-.088 1.003-.187.639-.278 1.279-.553 1.916-.83.323-.164.639-.318.96-.481.307-.16.525-.45.917-.45.092-.263.6-.431.6-.6.07.037.152.12.24.12.103-.451.588-.71.892-1.023.261-.274.302-.707.591-.969.249-.226.491-.531.765-.73.238-.176.475-.293.712-.454.312-.282.625-.563.936-.845.122-.16.243-.319.364-.481.246-.255.539-.499.539-.898.147-.041.332-.24.481-.24-.078-.401.41-1.016.549-1.399.158-.443.462-3.273.197-3.617-.5-.65-1.24.672-1.736.87-.319.126-.868.077-1.23.049-.089-.007-.42-.018-.42-.102-.259-.143-.517-.284-.776-.426-.418-.387-.673-.891-.909-1.373-.145-.227-.289-.453-.434-.681-.189-.433-.373-.854-.56-1.284-.244-.555-.555-1.117-.859-1.637-.319-.544-.55-1.158-.836-1.717-.07-.205-.139-.408-.21-.612-.173-.371-.346-.74-.518-1.111-.073-.106-.146-.21-.219-.318-.163-.438-.326-.875-.491-1.314-.13-.298-.325-.718-.595-.93-.208-.163-.407-.238-.611-.42-.272-.267-.542-.535-.814-.802-.127-.094-.255-.188-.382-.284-.527-.427-.977-.972-1.393-1.486-.18-.195-.361-.389-.542-.584-.151-.201-.336-.394-.477-.601-.112-.197-.224-.394-.337-.59-.079-.076-.157-.151-.238-.227-.137-.152-.392-.562-.497-.743-.285-.485-.547-1.005-.831-1.491-.276-.473-.667-.918-.864-1.428-.07-.222-.139-.441-.208-.662-.011-.102-.023-.203-.034-.306-.264-.67-.418-1.333-.555-2.068-.092-.493-.3-.978-.315-1.508-.008-.237.077-.954.184-1.125.084-.14.401-.322.401-.373.278.134.428.347.536.626.034.248.068.496.102.742.236 1 .333 2.078.588 3.065.094.187.19.376.283.564.042.171.083.344.122.514.248.467.495.933.743 1.398.069.166.139.33.206.493.816 1.459 1.933 2.804 3.096 4.083.153.17.365.28.53.429.152.167.304.335.454.503.278.223.555.445.832.668.286.231.463.537.704.8.227.249.517.423.738.69.214.256.225.58.37.867.197.397.452.785.607 1.196.154.406.225.796.492 1.15.12.16.13.304.194.497.096.208.192.418.287.626.07.207.139.412.209.619.176.387 1.269 2.432 1.636 2.475.124.014.231-.035.282-.139.031-.208.063-.414.095-.623.126-.76.191-1.533.218-2.344.038-.281.075-.56.11-.841.072-2.286.034-4.554 0-6.778-.005-.295-.093-.509-.105-.782-.009-.358-.018-.716-.03-1.075-.041-.318-.17-.686-.157-1.022.018-.08.039-.16.058-.241-.259-.169-.281-.438-.425-.677-.124-.205-.411-.414-.599-.568-.326-.163-.65-.326-.977-.489-.266-.204-.53-.409-.796-.615-.237-.152-.473-.304-.711-.456-.092-.125-.182-.25-.274-.376-.228-.255-.474-.473-.718-.716-.208-.192-.417-.383-.625-.575-.254-.328-.507-.654-.762-.982-.308-.369-.64-.658-.886-1.055-.138-.222-.394-.408-.519-.646-.27-.506-.446-1.005-.673-1.526-.084-.12-.168-.238-.253-.358-.282-.491-.499-1.033-.729-1.549-.079-.27-.158-.538-.237-.808-.36-.78-1.648-4.436-.577-5.006.596-.319 1.374.082 1.883.354.159.128.318.257.476.385.565.348 1.196.742 1.706 1.199.309.285.62.571.93.856 1.115.86 2.075 1.989 2.754 3.21l.276.354c.196.334.396.669.592 1.003.087.12.173.24.257.36.229.523.371 1.098.561 1.646.174.409.348.817.523 1.227.09.303.114.62.199.935.078.302.196.573.279.864.025.214.049.43.072.644.061.243.123.487.183.729.025.358.048.716.072 1.073.049.712.207 1.42.297 2.105.008.699.016 1.399.023 2.096.006.42.116.756.116 1.202.004.379.008.76.012 1.138.031.201.063.402.095.602.051 1.087.028 2.32.011 3.48-.015.843-.341 1.961.071 2.718.012.016.025.031.036.045.341.273 1.809.462 2.244.217.172-.097.252-.338.271-.523.044-.473-.144-.891-.199-1.321-.016-.358-.03-.714-.047-1.072-.058-.164-.115-.324-.173-.488.013-.156.027-.315.04-.472-.068-.772-.17-1.573-.269-2.353-.076-.591-.03-1.234-.125-1.829-.051-.249-.102-.496-.153-.745-.093-.964-.082-1.827-.143-2.817-.021-.302-.089-.643-.13-.958-.033-.141-.065-.281-.1-.422.14-.191-.194-1.699-.226-2.042.002-.897.006-1.796.008-2.696.103-.801.689-1.832 1.216-2.428.243-.232.485-.465.726-.698.044-.088.088-.174.132-.262.312-.499.539-.863.633-1.479.077-.52-.203-.781-.303-1.203-.326-1.351-.807-2.641-1.304-3.909-.11-.281-.116-.571-.218-.862-.187-.531-.419-1.018-.419-1.642 0-.261-.063-.724.205-.828.638-.255.878.649 1.471.649.095-.133.191-.266.286-.399.045-.266.09-.533.133-.8-.01-.544-.427-1.045-.62-1.517-.108-.267-.159-.552-.329-.786-.09-.053-.179-.105-.27-.159-.55-.153-1.537.595-1.996.834-.122.037-.244.075-.367.112-.264.102-.426.278-.739.304-.24.03-.478.06-.718.089-.343-.008-.654-.196-.972-.276-.213-.025-.427-.049-.642-.074-.349-.071-.691-.206-1.037-.286-.237-.017-.473-.034-.709-.053-.371-.024-.742-.094-1.14-.124-.36-.069-.72-.139-1.082-.21-.318-.009-.638-.018-.958-.03-.18-.024-.36-.049-.54-.074-.193.008-.383.08-.6.074-.161-.022-.321-.045-.482-.069-.165-.003-.341.069-.497 0-.127-.058-.292-.229-.326-.358-.167-.638.882-.48 1.069-.846.3-.589.011-1.055-.109-1.61-.066-.295-.073-.488-.243-.728-.113-.157-.391-.248-.552-.334zm23.28-1.2c-.347.304-2.865.555-3.481.585-.413.019-.793-.076-1.168.075-.475.19-.699.569-.998.953-.6.763-1.213 1.445-1.7 2.271-.17.215-.34.431-.513.645-.253.517-.373 1.137-.473 1.728-.041.234.079.444.129.652.096.406.117.981.021 1.364-.054.148-.109.298-.163.446-.139.236-.654.748-.654 1.001h.239c.104-.062.209-.124.312-.186.165-.12.208-.33.356-.459.147-.131.344-.2.501-.346.63-.65 1.26-1.298 1.89-1.948.159-.123.318-.243.476-.365.083-.116.166-.232.25-.35.133-.088.266-.176.397-.266.178-.203.356-.405.533-.608.205-.223.436-.35.647-.551.099-.12.199-.24.296-.362.338-.341.778-.628 1.12-.981.082-.114.166-.228.248-.343.094-.05.187-.101.279-.153.237-.189.402-.521.736-.521.067-.255.227-.314.401-.499.168-.214.334-.428.499-.642.185-.187.899-.649.899-.899-.053-.051-.039-.061-.119-.061v-.06c-.062.038-.18.167-.18.06-.074-.048-.18-.082-.18-.18-.218.077-.371.036-.6 0zm-20.16-12.54c-.088 0-.094.051-.12.12.133 0 .202.194.323.241.225.039.449.076.675.116.191.071.281.302.455.399.503.278 1.294.092 1.747-.161.43-.242 1.036-.812.617-1.359-.127-.167-.333-.25-.496-.351-.057-.045-.115-.092-.171-.139-.369-.062-.741-.124-1.11-.186-.508.422-1.727.589-1.92 1.32zm4.877-11.838c-.324.172-.651.343-.975.513-.099.096-.201.19-.302.286 0 .284.317.431.285.708-.075.634-1.245.057-1.556.469-.354.465-.226 1.328-.529 1.703.073.26.144.521.216.781-.006.22-.012.439-.017.659.163.654.223 3.564 1.273 3.27.077-.023.133-.1.156-.168.174-.558-.136-1.091-.239-1.569-.114-.517-.272-1.052-.296-1.595.019-.259.038-.52.056-.778 0-.557-.123-.955.094-1.484.116-.286.347-.283.595-.155.344.176.288.6.585.831.68.528 2.647-.181 3.149-.702.26-.27.619-1.346.328-1.7-.133-.161-.457-.171-.528-.371-.003-.044-.009-.087-.013-.13.022-.221.249-.345.236-.608-.019-.362-.547-.461-.794-.241-.121-.04-.241-.081-.361-.121-.352.293-.952.228-1.363.402zM34.852.884c-.333.269-1.065.059-1.491.157-.587.133-1.277.114-1.863.234-.165.06-.328.12-.493.179-.271.058-.563.076-.792.217-.286.173-.408.546-.551.816-.603 1.134-1.17 2.231-1.17 3.677.101-.012.36.011.36-.12.12.039.24.08.36.12.15-.143.84-.092.84-.24.088.028.48.174.48 0 .075.032.12.022.12.12.27.189.184.477.296.755.094.233.304.266.304.564.263 0 .862-.084 1.02.109.354.435.064 1.058.08 1.57.027.161.053.322.08.481.033 1.111-.098 2.378.163 3.473.047.2.271.789.436.913.134.1 1.581.39.893.85-.141.075-.28.149-.42.224-.322.139-.516.059-.81-.065-.199-.084-.381-.197-.514-.375-.075-.232-.15-.463-.227-.696-.061-.146-.123-.29-.187-.437-.188-.519-.327-1.158-.381-1.728-.047-.49.113-1.722-.307-1.947-.22-.118-1.041.212-1.33.246-.444.049-1.26-.128-1.567.191-.242.248-.105.597-.105.909-.019.162-.038.323-.058.482-.01.526.05 1.009.131 1.497.068.412.283.723.413 1.1.069.31.14.619.209.928.207.554.414 1.107.621 1.66.105.277.122.583.21.864.096.188.191.377.285.565.197.615.295 1.606.701 2.092.047.056.101.115.184.115v.059c-.064.141.034.31.12.418.743.936 1.982.229 2.948.124.137.019.275.039.412.058.313-.296 2.409-.279 1.946.466-.116.086-.23.174-.346.26-.171.026-.342.052-.514.079-.489.091-.99.159-1.504.236-.184.062-.366.126-.55.187-.455.092-1.149.179-1.61.126-.403-.046-.74-.262-1.052-.493-.202-.15-.275-.439-.386-.639-.191-.343-.392-.649-.542-1.001-.095-.229-.189-.458-.285-.689-.139-.253-.276-.506-.414-.759-.06-.212-.121-.423-.183-.637-.093-.21-.185-.419-.279-.629-.099-.345-.157-.676-.305-.993-.086-.184-.233-.463-.467-.497-.471-.072-.773.377-.99.692-.207.204-.413.408-.621.613-.435.594-1.192 2.349-1.873 2.617-.083.032-.345.162-.345.041-.339-.087-.506-.332-.898-.299-.304.089-.607.179-.911.268-1.067.279-2.057.695-3.071 1.061-.229.067-.458.136-.687.204-.41.214-.821.428-1.233.639-.634.259-1.313.406-1.93.706-.12.082-.24.165-.36.247-.333.178-.628.304-.954.493-.426.246-1.026.456-1.251.96-.165.368-.208.767-.328 1.167-.125.412-.33.84-.409 1.278-.253 1.375-.249 2.698-.272 4.135-.005.271-.072.481-.088.723.019.16.038.319.055.479-.015.119-.031.239-.045.357.024.181.051.363.075.542.051 1.099.101 2.078.206 3.124-.008.135-.015.272-.022.407.078.707.275 1.397.395 2.113.019.236.04.473.058.709.06.204.12.409.18.611.025.214.049.429.072.643.091.248.185.497.277.744.034.136.067.272.1.407.048.118.127.842.181.842.154.454.308.91.46 1.363.056.109.112.218.168.325.104.371.208.744.312 1.116.051.092.101.183.15.273.12.343.167.699.318 1.018.184.386.162.969.392 1.392.137.252.197.532.332.794.104.202.568.603.568.8.049-.052.06-.042.06-.121.014-.009.028-.019.041-.027.021-.018.044-.034.065-.049.354-.344.372-.782.55-1.217.19-.473.448-.949.617-1.426.074-.245.148-.489.222-.734.243-.516.487-1.031.729-1.549.105-.197.266-.345.36-.546.073-.204.147-.409.218-.615.116-.277.318-.452.318-.797.193-.097.24-.243.24-.479.035-.012.074-.023.109-.035.045-.026.092-.052.136-.078.232-.186.256-.458.41-.69.21-.322.505-.6.733-.915.155-.253.313-.506.468-.76.188-.249.431-.419.61-.68.155-.233.276-.482.451-.715.136-.12.271-.24.406-.361.204-.259.408-.516.611-.775.491-.542 1.016-.999 1.342-1.629.27-.529.338-1.215.449-1.819.054-.127.11-.253.164-.38.044-.2.089-.396.132-.595.084-.345.077-.671.214-.983.504-1.171.931-1.096 2.032-1.503.094-.036.313-.086.313-.203.073.021.24.126.24 0 .58 0 1.331-.007 1.71.387.146.151.304.746.388.96.126.32.049.466.272.767.06.082.045.286.15.286.062.146.124.295.184.441.107.193.416.405.416.639h.12c.045-.369.071-.752-.053-1.123-.345-1.031-1.087-1.871-1.693-2.756-.699-1.018-1.181-2.146-2.251-2.912-.72-.514-1.431-1.057-2.16-1.558-.422-.291-1.549-.793-1.694-1.331-.041-.148-.004-.274.079-.377.36-.465 1.317.305 1.714.379.08.013.118-.017.118.078.205.255.424.302.692.462.33.195.581.467.891.706.163.1.328.201.491.3.294.284.589.566.883.848.215.161.431.324.647.486.167.257.335.515.502.773.3.316.601.635.9.952.131.191.263.382.392.571.199.233.399.468.599.7.206.334.385.731.571 1.084.096.131.191.264.287.395.206.473.424.959.598 1.44.148.415.25.827.537 1.172.44.531 2.538.883 3.292 1.019.082.012.418.126.418.012h.841c.117-.333.41-.283.681-.426.526-.279 1.072-.496 1.622-.717.157-.047.318-.092.475-.139.082-.04.222-.045.222-.157.251.095.505.191.756.284.375.164.38.564.96.373.274-.091.649-.777.803-.777-.004-.074-.008-.145-.014-.218.186-.259.373-.518.559-.778.115-.218.23-.433.346-.651.125-.197.253-.393.379-.593.072-.194.162-.521.101-.738-.053-.18-.146-.347-.142-.562.002-.167.037-.33.191-.402.307-.146 1.502 0 1.875.07.142.05.284.101.425.151 0-.084-.04-.12.059-.12v-.06h.061c.02.079.014.18.119.18.15-.163.327-.02.533-.047.082-.024.165-.048.248-.073v-.06h.06c.02.079.013.18.12.18.09-.121.48-.159.48-.239h.059c.717-.113 1.436-.224 2.151-.336.345-.098.693-.194 1.037-.291.255-.024.51-.047.763-.071.239-.079.479-.158.717-.237.086-.033.253-.104.253-.206h.06c.279.139.488-.125.733-.193.194-.015.392-.03.587-.047.02-.08.041-.159.06-.239.461-.061.797-.3 1.215-.432.787-.249 1.623-.375 2.45-.485.136.005.272.011.408.014.144-.047.291-.094.434-.14.314-.073.638-.098.952-.086.145.004.601-.012.601-.012h.059c.348-.155 1.452.087 1.786.214.165.062.305.266.495.266v.18c-.126.083-.251.167-.377.25-.28.084-.681.048-1.003.048-.919.008-1.838.016-2.758.021-.414.045-.733.287-1.103.411-.441.146-.819.221-1.217.448-.313.176-.557.482-.818.725-.268.175-.534.349-.801.524-.196.181-.391.363-.586.543-.804.58-1.608 1.159-2.414 1.737-.642.51-1.197 1.08-1.765 1.65-.161.12-.323.242-.483.362-.389.367-.778.736-1.166 1.104-.139.103-.278.208-.417.311-.312.281-.555.613-.83.908-.338.359-.736.667-1.083 1.016-.232.289-.465.577-.698.866-.279.311-.582.566-.886.851-.407.379-.763.805-1.131 1.211-.202.194-.405.387-.609.578-.069.116-.137.232-.206.347-.287.36-.592.568-.678 1.035-.144.771.171 1.168.299 1.798.064.375.127.75.19 1.123.061.223.302.542.26.789-.015.081-.032.124.06.124.135.239.439.323.536.565.271.679-.86 2.486-1.194 3.072-.162.281-.216.595-.371.884-.128.232-.357.352-.383.641-.019.192-.006.446.182.528.275.117.639.017.867-.116 1.406-.833 1.763-2.595 2.583-3.894.276-.44.429-1.104.939-1.365.143-.074.381-.074.561-.074-.027.8-.101.856-.417 1.473-.044.135-.088.272-.133.407-.082.12-.164.24-.247.358-.077.242-.153.484-.231.724-.223.42-.448.721-.491 1.241-.019.217.07.476.319.476.158-.105.293 0 .48 0 .131-.124.355-.114.52-.17.157-.058.387-.218.498-.357.304-.39.402-.861.59-1.313.123-.159.245-.318.367-.479.108-.244.216-.488.326-.731.355-.792.86-1.604 1.494-2.214.769-.745 1.678-1.266 2.525-1.87.115-.118.229-.234.342-.353.094-.05.19-.101.283-.151.178-.158.356-.314.533-.471 1.112-.795 2.354-1.425 3.434-2.28.522-.416 4.387-2.518 4.387-2.811.07.038.152.12.24.12v-.12c.132-.102.266-.204.397-.307.281-.188.64-.294.907-.493.379-.285.723-.582 1.134-.816.176-.079.353-.157.527-.238.277-.176.512-.441.793-.604.287-.17.636-.309.906-.502.139-.115.277-.229.414-.346.21-.119.42-.237.628-.357.237-.193.427-.416.775-.416.148-.421.808-.574 1.16-.784.4-.242.779-.516 1.142-.82.053-.091.106-.182.158-.273.194-.195.389-.391.583-.587.084-.167.169-.332.252-.499.539-.825 1.137-1.517 1.517-2.432.059-.142.125-.786.228-.786v-.179c-.388-.245-.48-.694-.783-1.021-.945-1.017-1.97-1.94-2.969-2.908-.337-.268-.673-.534-1.011-.802-.176-.16-.353-.317-.529-.476-.274-.239-.617-.413-.911-.606-.227-.15-.504-.313-.697-.491-.076-.077-.15-.154-.225-.231-.292-.159-.585-.317-.88-.476-.463-.283-.926-.567-1.391-.85-.299-.118-.597-.236-.894-.354-.208-.105-.349-.243-.549-.362-.454-.206-.907-.412-1.36-.621-.527-.202-1.104-.279-1.646-.447-.231-.111-.459-.222-.69-.334-.376-.122-.779-.152-1.174-.222-.304-.054-.591-.226-.917-.258-.18-.019-.315.079-.475.079-.299-.439-1.107-.436-1.617-.501-.527-.07-1.043-.261-1.567-.311-.237.02-.475.043-.713.064-2.413-.157-4.835-.153-6.974.47-.623.18-1.332.221-1.805.68-.718.694-.21 2.027-.073 2.841.009.379.021.758.03 1.137-.27-.027-.542-.181-.72-.181-.062-.491-.305-.875-.435-1.337-.208-.734-.236-1.451-.3-2.263-.03-.161-.06-.32-.092-.481l.006-1.137.09-.483c.006-.481.011-.958.015-1.439.02-.179.041-.36.059-.54 0-.232-.065-.465-.056-.719.033-.201.064-.402.095-.602.028-.432-.098-.766-.098-1.198 0-.861.096-1.658.112-2.522-.006-.22-.012-.437-.019-.657-.032-.14-.063-.281-.097-.421.141-.177.106-.43.137-.659.03-.14.059-.281.088-.423.009-.54.019-1.079.028-1.618.068-.854-.094-2.264-.778-2.76-.463-.338-1.056-.334-1.629-.452-.147-.051-.292-.102-.439-.152-.375-.025-.75-.047-1.127-.072-.161-.029-.32-.059-.482-.091-.439-.01-.877-.019-1.318-.029-.14-.028-.281-.055-.424-.084-.47-.047-.951.137-1.376-.02zm-.36-.84c.279.039.561.08.84.12.171-.152.84-.034.84-.12.36.003.72.009 1.078.013.18.032.362.064.542.095.379.012.758.023 1.137.034.076.009.243.092.243-.022 1.19.19 2.809.296 3.654 1.142.683.682.718 1.951.655 2.996-.036.24-.07.482-.105.721-.008.41.074.829.074 1.199-.023.2-.049.401-.074.601-.004.54-.008 1.08-.012 1.618-.031.222-.062.443-.093.662.031.4.064.801.095 1.201.004.339-.074.654-.074.958 0 .234.078.457.066.719-.033.222-.066.443-.1.663-.03.62.028 1.239.077 1.803.031.387-.063.759.099 1.107.073.157.249.179.419.191.724.045 1.691-.315 2.403-.433.369-.062.788-.115 1.136-.141.211-.021.421-.041.632-.064.092-.032.388-.058.388-.183.12.039.239.08.36.119.182-.157.393 0 .6 0v-.119c.119.039.24.08.359.119.173-.149 1.081.04 1.081-.119.069.018.24.121.24 0 .412 0 .748.059 1.14.059v-.059c.343.149.733.088 1.134.142.413.054.897.217 1.325.217v-.059h.061v-.06c.578.264 1.325.274 1.975.382.566.094 1.084.321 1.626.439.477.109.956.217 1.431.324.105.034.548.011.548.115.461.378 1.168.491 1.73.682.342.116 1.086.724 1.457.594.064-.022.053-.024.053.043h.06c.337.361.923.486 1.346.709.233.122.708.529.952.574.081.013.162-.064.162.037h.06c.198.212.471.331.698.501.511.382 1.046.688 1.556 1.084.299.232.559.533.84.77.243.208.578.355.838.554.547.509 1.094 1.02 1.643 1.529.117.167.236.334.351.499.152.148.306.297.457.443.142.119.254.364.381.515.234.278.486.488.717.775.161.264.322.529.484.791.129.199.341.413.395.647.045.204.049.495-.008.695-.074.256-.254.483-.369.713-.043.133-.084.268-.127.401-.237.347-.473.696-.709 1.042-.049.141-.098.282-.149.421-.277.376-.552.755-.83 1.132-.187.279-.347.672-.617.887-.307.244-.582.495-.905.711-.375.232-.75.465-1.125.697-.146.124-.292.248-.441.369-.322.192-.666.34-.976.546-.514.383-1.028.765-1.541 1.146-.203.136-.477.229-.666.369-.505.39-1.009.78-1.514 1.17-.088.044-.174.087-.262.128-.356.258-.711.517-1.067.774-.216.159-.471.259-.697.398-.198.174-.396.348-.595.521-.238.167-.477.334-.716.499-.645.5-1.12 1.095-1.68 1.676-.178.142-.354.287-.532.43-.459.414-.816.839-1.265 1.25-.258.187-.513.376-.77.564-.195.18-.389.362-.583.542-.204.14-.407.281-.611.422-.235.242-.467.484-.701.723-.128.08-.255.158-.382.235-.307.272-.61.546-.916.817-.125.073-.251.149-.377.222-.506.384-1.102.795-1.449 1.35-.304.482-.416.971-.651 1.489-.216.469-.467.922-.619 1.43-.078.257.002.527.043.767.027.172.053.345.078.516.164.277.33.556.494.834.209.326.317.812.348 1.216.046.68-.081 1.334-.129 1.991-.039.519-.044 1.109-.044 1.679 0 .276-.034.602.171.773.455.379 1.061.485 1.594.723.121.081.243.164.363.245.275.129.568.207.838.349.24.166.48.332.721.498 1.042.547 1.961 1.151 2.828 2.045.077.079.325.151.325.227.133.168.269.261.413.422.17.189.369.596.545.837.351.407.701.815 1.052 1.221.262.328.397.717.63 1.057.356.518.729 1.017 1.089 1.537.274.518.547 1.035.821 1.553.162.23.323.461.482.691.766 1.253 1.496 2.586 1.721 4.086.132.883.002 1.772-.182 2.582-.127.557-.219 1.188-.446 1.7-.184.409-.429.782-.636 1.187-.07.16-.142.319-.215.478-.081.086-.162.172-.242.259-.222.368-.367.773-.564 1.151-.129.2-.257.398-.387.594-.074.201-.148.405-.223.604-.088.156-.175.312-.263.467-.266.555-.496 1.101-.793 1.643-.426.767-1.176 1.303-1.76 1.948-.324.354-.629.793-.954 1.151-.107.092-.212.183-.319.275-.137.183-.274.364-.411.545-.468.382-1.259.551-1.923.365-.288-.08-.555-.262-.895-.135-.219.079-.258.368-.398.522-.28.297-.684.605-1.043.791-.304.153-.915.285-1.28.273-.218-.007-.422-.084-.659-.068-.341.072-.681.144-1.022.213-.486.029-1.053.01-1.511-.033-.138.011-.273.025-.409.037-.298-.014-.596-.027-.897-.04-.445-.032-.901-.165-1.379-.21-.121-.013-.27-.066-.394-.033-.489.117-.769.41-1.151.715-.172.113-.345.23-.517.343-.346.287-.689.574-1.033.862-.509.361-.991.809-1.49 1.177-.212.155-.416.392-.665.459-.081.021-.213-.008-.213.094-.605.216-1.225.543-1.871.658-.634.111-1.341.004-1.97-.045-.516-.041-1.073.03-1.532-.088-.247-.066-.727-.236-.945-.351l-.36-.252c-1.456-.653-2.649-1.728-3.962-2.614-.23-.202-.461-.406-.694-.609-.21-.151-.419-.301-.631-.453-.63-.572-1.329-1.468-2.25-1.445-.824.016-.822.907-1.091 1.435-.173.33-.371.601-.499.955-.159.436-.336 1.238-.591 1.592-.082.116-.163.235-.245.35-.24.231-.947.566-1.262.693-.246.072-.492.146-.737.217-.12.082-.239.165-.359.246-.284.068-.569.139-.856.206-.128.058-.255.116-.383.175-1.901.606-4.057-.25-5.649-.852-.375-.086-.748-.172-1.123-.26-.375-.062-.748-.124-1.123-.188-.127-.042-.255-.083-.384-.126-.175.01-.347.02-.522.027-.511-.009-.859-.232-1.213-.527-.307-.258-.251-.637-.315-1.018-.098-.345-.195-.691-.292-1.036-.115-.438-.07-1.02-.643-1.074-1.23-.12-2.376.263-3.426.696-.405.165-.778.223-1.117.519-.644.558-1.067 1.251-1.819 1.653-.264.141-.666.171-.915.018-.806-.499-1.077-1.967-1.418-2.79-.191-.458-.427-.84-.513-1.358-.008-.278-.014-.555-.021-.834.024-.557.473-.889.473-1.44.116-.041.175-.06.267-.15.051-.098.102-.196.151-.293.163-.201.326-.405.487-.607.077-.157.154-.313.228-.47.162-.186.323-.372.485-.56.048-.099.097-.198.146-.297.113-.103.227-.205.339-.308.122-.182.246-.362.367-.543.269-.323.573-.662.717-1.051.444-1.213-.034-2.91-.274-4.07-.021-.255-.041-.51-.064-.767-.161-.878-.259-1.769-.346-2.704-.01-.088-.119-.36.016-.36v-.179c-.14-.162-.185-1.07-.185-1.321 0-.07-.01-.06.065-.06v-.18c-.213-.244-.097-.756-.149-1.076-.031-.141-.061-.281-.091-.424h.12v-.179c-.238-.273-.105-1.436-.131-1.861-.036-.2-.071-.399-.108-.6.284-.352.09-2.031.063-2.526.019-.238.038-.476.055-.714.013-.889.001-1.832.001-2.639.231-.305.103-.979.13-1.381.02-.346.086-.711.129-1.078.054-.486.156-1.117.252-1.616.046-.142.093-.285.14-.427.009-.089-.047-.179.07-.179.103-.673.297-1.29.46-1.925.059-.254.119-.507.177-.762.09-.169.18-.341.27-.511.176-.51.27-1.033.446-1.529.163-.465.479-.896.752-1.309.079-.174.157-.348.236-.523.304-.504.75-.915 1.084-1.398.182-.269.337-.524.566-.769.274-.294.594-.533.851-.835.201-.239.462-.295.719-.431.118-.091.236-.183.354-.276.399-.235.798-.472 1.198-.708.137-.042.276-.083.412-.124.258-.118.426-.291.705-.384.13-.039.259-.079.389-.12.196-.143.422-.337.466-.582.051-.279-.016-.536-.063-.779-.124-.629-.276-1.174-.413-1.789-.06-.165-.118-.328-.178-.493-.189-1.015-.337-1.926-.544-2.927-.051-.107-.101-.212-.153-.319-.13-.622-.098-1.271-.205-1.903-.03-.174-.129-.844-.33-.844.089-.286.025-.484.008-.781-.051-.783-.127-1.465-.127-2.279.005-1.239.01-2.478.016-3.718.062-.262.126-.525.188-.789.02-.356.041-.713.06-1.071.056-.397.238-.772.307-1.147.139-.763.334-1.476.579-2.173.075-.216.103-.424.209-.621.517-.984 2.008-1.485 2.932-1.933.825-.403 1.66-.75 2.502-1.116.112-.05.346-.107.346-.272.13-.022.261-.043.39-.065.111-.075.223-.15.334-.227.15-.092.836-.25.836-.427h.06c.041.047.121.17.121.059h.059c.371-.294 2.76-1.023 2.76-1.26h.06c.135.083.66.128.66-.12h.06c.051.057.09.12.18.12.214-.215.75-.24 1.08-.24.094-.277.368-.311.544-.524.754-.93 1.479-1.889 2.136-2.869.124-.139.249-.278.373-.418.223-.484.028-1.052-.034-1.533-.058-.444-.085-.828-.171-1.25-.062-.184-.124-.366-.185-.549-.004-.778-.006-1.557-.01-2.336.105-1.341.353-2.646.771-3.863.134-.399.183-.774.346-1.149.209-.419.417-.836.623-1.255.075-.178.152-.356.227-.536.154-.277.42-.525.42-.878.067-.022.135-.044.201-.069.275-.156.483-.352.785-.469.208-.033.416-.067.623-.101.478-.112.935-.163 1.448-.219.173-.021.335-.088.53-.055.086.016.373.053.373-.046.081.009.36.116.36 0 .324-.012.716.048.96-.12z" fill-rule="nonzero"/>
</svg>
